G75*
%MOIN*%
%OFA0B0*%
%FSLAX25Y25*%
%IPPOS*%
%LPD*%
%AMOC8*
5,1,8,0,0,1.08239X$1,22.5*
%
%ADD10C,0.00000*%
%ADD11R,0.06200X0.06200*%
%ADD12C,0.06200*%
%ADD13OC8,0.05800*%
%ADD14OC8,0.06900*%
%ADD15C,0.06900*%
%ADD16OC8,0.07200*%
%ADD17R,0.06600X0.06600*%
%ADD18C,0.06600*%
%ADD19R,0.06900X0.05200*%
%ADD20R,0.05200X0.06900*%
%ADD21C,0.04600*%
D10*
X0042595Y0003750D02*
X0042595Y0048750D01*
X0238845Y0048750D01*
X0238845Y0003750D01*
X0042595Y0003750D01*
D11*
X0061345Y0011250D03*
D12*
X0071345Y0011250D03*
X0081345Y0011250D03*
X0091345Y0011250D03*
X0101345Y0011250D03*
X0111345Y0011250D03*
X0121345Y0011250D03*
X0131345Y0011250D03*
X0141345Y0011250D03*
X0151345Y0011250D03*
X0161345Y0011250D03*
X0171345Y0011250D03*
X0181345Y0011250D03*
X0191345Y0011250D03*
X0191345Y0041250D03*
X0181345Y0041250D03*
X0171345Y0041250D03*
X0161345Y0041250D03*
X0151345Y0041250D03*
X0141345Y0041250D03*
X0131345Y0041250D03*
X0121345Y0041250D03*
X0111345Y0041250D03*
X0101345Y0041250D03*
X0091345Y0041250D03*
X0081345Y0041250D03*
X0071345Y0041250D03*
X0061345Y0041250D03*
D13*
X0091345Y0031250D03*
X0091345Y0021250D03*
X0121345Y0021250D03*
X0131345Y0021250D03*
X0141345Y0021250D03*
X0151345Y0021250D03*
X0141345Y0031250D03*
X0131345Y0031250D03*
X0121345Y0031250D03*
X0181345Y0021250D03*
D14*
X0207595Y0031250D03*
D15*
X0207595Y0041250D03*
D16*
X0207595Y0021250D03*
X0207595Y0011250D03*
D17*
X0048845Y0041250D03*
D18*
X0048845Y0031250D03*
X0048845Y0021250D03*
X0048845Y0011250D03*
D19*
X0081345Y0020250D03*
X0081345Y0026250D03*
X0081345Y0032250D03*
D20*
X0072345Y0026250D03*
X0066345Y0026250D03*
X0060345Y0026250D03*
D21*
X0222345Y0023750D02*
X0226345Y0023750D01*
X0226345Y0018750D02*
X0222345Y0018750D01*
X0222345Y0013750D02*
X0226345Y0013750D01*
X0226345Y0008750D02*
X0222345Y0008750D01*
X0222345Y0028750D02*
X0226345Y0028750D01*
X0226345Y0033750D02*
X0222345Y0033750D01*
X0222345Y0038750D02*
X0226345Y0038750D01*
X0226345Y0043750D02*
X0222345Y0043750D01*
M02*
