%
M48
M72
T01C0.0130
T02C0.0197
T03C0.0320
T04C0.0400
%
T01
X21235Y2650
X5415Y3245
X17540Y3245
X18050Y3210
T02
X22635Y875
X22635Y1375
X22635Y1875
X22635Y2375
X22635Y2875
X22635Y3375
X22635Y3875
X22635Y4375
T03
X6135Y1125
X7135Y1125
X8135Y1125
X9135Y1125
X10135Y1125
X11135Y1125
X12135Y1125
X13135Y1125
X14135Y1125
X15135Y1125
X16135Y1125
X17135Y1125
X18135Y1125
X19135Y1125
X19135Y4125
X18135Y4125
X17135Y4125
X16135Y4125
X15135Y4125
X14135Y4125
X13135Y4125
X12135Y4125
X11135Y4125
X10135Y4125
X9135Y4125
X8135Y4125
X7135Y4125
X6135Y4125
X13135Y3125
X13135Y2125
X14135Y3125
X14135Y2125
X9135Y2125
X12135Y2125
X20760Y3125
X20760Y4125
X20760Y1125
X20760Y2125
X18135Y2125
X15135Y2125
X12135Y3125
X9135Y3125
T04
X4885Y4125
X4885Y3125
X4885Y2125
X4885Y1125
M30
