G75*
%MOIN*%
%OFA0B0*%
%FSLAX25Y25*%
%IPPOS*%
%LPD*%
%AMOC8*
5,1,8,0,0,1.08239X$1,22.5*
%
%ADD10C,0.00000*%
%ADD11R,0.05600X0.05600*%
%ADD12C,0.05600*%
%ADD13OC8,0.05200*%
%ADD14OC8,0.06300*%
%ADD15C,0.06300*%
%ADD16OC8,0.06600*%
%ADD17R,0.06000X0.06000*%
%ADD18C,0.06000*%
%ADD19R,0.06300X0.04600*%
%ADD20R,0.04600X0.06300*%
%ADD21C,0.04000*%
%ADD22C,0.01400*%
%ADD23C,0.02700*%
%ADD24C,0.01600*%
%ADD25C,0.00700*%
D10*
X0042595Y0003750D02*
X0042595Y0048750D01*
X0238845Y0048750D01*
X0238845Y0003750D01*
X0042595Y0003750D01*
D11*
X0061345Y0011250D03*
D12*
X0071345Y0011250D03*
X0081345Y0011250D03*
X0091345Y0011250D03*
X0101345Y0011250D03*
X0111345Y0011250D03*
X0121345Y0011250D03*
X0131345Y0011250D03*
X0141345Y0011250D03*
X0151345Y0011250D03*
X0161345Y0011250D03*
X0171345Y0011250D03*
X0181345Y0011250D03*
X0191345Y0011250D03*
X0191345Y0041250D03*
X0181345Y0041250D03*
X0171345Y0041250D03*
X0161345Y0041250D03*
X0151345Y0041250D03*
X0141345Y0041250D03*
X0131345Y0041250D03*
X0121345Y0041250D03*
X0111345Y0041250D03*
X0101345Y0041250D03*
X0091345Y0041250D03*
X0081345Y0041250D03*
X0071345Y0041250D03*
X0061345Y0041250D03*
D13*
X0091345Y0031250D03*
X0091345Y0021250D03*
X0121345Y0021250D03*
X0131345Y0021250D03*
X0141345Y0021250D03*
X0151345Y0021250D03*
X0141345Y0031250D03*
X0131345Y0031250D03*
X0121345Y0031250D03*
X0181345Y0021250D03*
D14*
X0207595Y0031250D03*
D15*
X0207595Y0041250D03*
D16*
X0207595Y0021250D03*
X0207595Y0011250D03*
D17*
X0048845Y0041250D03*
D18*
X0048845Y0031250D03*
X0048845Y0021250D03*
X0048845Y0011250D03*
D19*
X0081345Y0020250D03*
X0081345Y0026250D03*
X0081345Y0032250D03*
D20*
X0072345Y0026250D03*
X0066345Y0026250D03*
X0060345Y0026250D03*
D21*
X0222345Y0023750D02*
X0226345Y0023750D01*
X0226345Y0018750D02*
X0222345Y0018750D01*
X0222345Y0013750D02*
X0226345Y0013750D01*
X0226345Y0008750D02*
X0222345Y0008750D01*
X0222345Y0028750D02*
X0226345Y0028750D01*
X0226345Y0033750D02*
X0222345Y0033750D01*
X0222345Y0038750D02*
X0226345Y0038750D01*
X0226345Y0043750D02*
X0222345Y0043750D01*
D22*
X0226345Y0038750D02*
X0215145Y0038750D01*
X0207795Y0031400D01*
X0207595Y0031250D01*
X0212345Y0026500D01*
X0207595Y0021250D02*
X0195545Y0021250D01*
X0181895Y0034900D01*
X0155295Y0034900D01*
X0141645Y0021250D01*
X0141345Y0021250D01*
X0133545Y0026250D02*
X0126345Y0026250D01*
X0121345Y0021250D01*
X0121345Y0011250D01*
X0121345Y0021250D02*
X0111545Y0031050D01*
X0091595Y0031050D01*
X0091345Y0031250D01*
X0066345Y0026250D02*
X0066045Y0026150D01*
X0066045Y0024400D01*
X0062895Y0021250D01*
X0048845Y0021250D01*
X0054145Y0032450D02*
X0060345Y0026250D01*
X0133545Y0026250D02*
X0138345Y0031050D01*
X0141295Y0031050D01*
X0141345Y0031250D01*
D23*
X0175395Y0032450D03*
X0180495Y0032100D03*
X0212345Y0026500D03*
X0054145Y0032450D03*
D24*
X0053345Y0032145D02*
X0053026Y0032915D01*
X0054945Y0034834D01*
X0054945Y0037984D01*
X0057136Y0040175D01*
X0057700Y0038814D01*
X0058909Y0037605D01*
X0060490Y0036950D01*
X0062200Y0036950D01*
X0062857Y0037222D01*
X0069179Y0030900D01*
X0063647Y0030900D01*
X0063340Y0031077D01*
X0062882Y0031200D01*
X0060695Y0031200D01*
X0060695Y0026600D01*
X0059995Y0026600D01*
X0059995Y0025900D01*
X0056245Y0025900D01*
X0056245Y0023450D01*
X0052805Y0023450D01*
X0052660Y0023799D01*
X0051394Y0025065D01*
X0049740Y0025750D01*
X0047950Y0025750D01*
X0046296Y0025065D01*
X0045395Y0024164D01*
X0045395Y0028336D01*
X0046296Y0027435D01*
X0047950Y0026750D01*
X0049740Y0026750D01*
X0051394Y0027435D01*
X0052660Y0028701D01*
X0053345Y0030355D01*
X0053345Y0032145D01*
X0053189Y0032523D02*
X0067556Y0032523D01*
X0065957Y0034122D02*
X0054233Y0034122D01*
X0054945Y0035720D02*
X0064359Y0035720D01*
X0059600Y0037319D02*
X0054945Y0037319D01*
X0051245Y0036450D02*
X0051245Y0036366D01*
X0050369Y0035490D01*
X0049740Y0035750D01*
X0047950Y0035750D01*
X0046296Y0035065D01*
X0045395Y0034164D01*
X0045395Y0036507D01*
X0045608Y0036450D01*
X0048645Y0036450D01*
X0048645Y0041050D01*
X0049045Y0041050D01*
X0049045Y0036450D01*
X0051245Y0036450D01*
X0050599Y0035720D02*
X0049812Y0035720D01*
X0049045Y0037319D02*
X0048645Y0037319D01*
X0047878Y0035720D02*
X0045395Y0035720D01*
X0048645Y0038917D02*
X0049045Y0038917D01*
X0049045Y0040516D02*
X0048645Y0040516D01*
X0055879Y0038917D02*
X0057657Y0038917D01*
X0067195Y0042467D02*
X0067195Y0043716D01*
X0064961Y0045950D01*
X0219595Y0045950D01*
X0219378Y0045733D01*
X0218845Y0044446D01*
X0218845Y0043054D01*
X0219378Y0041767D01*
X0219683Y0041462D01*
X0219393Y0041172D01*
X0218978Y0040550D01*
X0218691Y0039858D01*
X0218545Y0039124D01*
X0218545Y0038750D01*
X0226345Y0038750D01*
X0226345Y0038750D01*
X0218545Y0038750D01*
X0218545Y0038376D01*
X0218691Y0037642D01*
X0218978Y0036950D01*
X0219393Y0036328D01*
X0219683Y0036038D01*
X0219378Y0035733D01*
X0218845Y0034446D01*
X0218845Y0033054D01*
X0219378Y0031767D01*
X0219895Y0031250D01*
X0219378Y0030733D01*
X0218845Y0029446D01*
X0218845Y0028054D01*
X0219378Y0026767D01*
X0219895Y0026250D01*
X0219545Y0025900D01*
X0212061Y0025900D01*
X0210653Y0027308D01*
X0212545Y0029200D01*
X0212545Y0031250D01*
X0212545Y0033300D01*
X0209645Y0036200D01*
X0207595Y0036200D01*
X0205545Y0036200D01*
X0202645Y0033300D01*
X0202645Y0031250D01*
X0207595Y0031250D01*
X0207595Y0031250D01*
X0202645Y0031250D01*
X0202645Y0029200D01*
X0203145Y0028700D01*
X0193511Y0028700D01*
X0184194Y0038018D01*
X0184990Y0038814D01*
X0185645Y0040395D01*
X0185645Y0042105D01*
X0184990Y0043686D01*
X0183781Y0044895D01*
X0182200Y0045550D01*
X0180490Y0045550D01*
X0178909Y0044895D01*
X0177700Y0043686D01*
X0177045Y0042105D01*
X0177045Y0040395D01*
X0177540Y0039200D01*
X0175150Y0039200D01*
X0175645Y0040395D01*
X0175645Y0042105D01*
X0174990Y0043686D01*
X0173781Y0044895D01*
X0172200Y0045550D01*
X0170490Y0045550D01*
X0168909Y0044895D01*
X0167700Y0043686D01*
X0167045Y0042105D01*
X0167045Y0040395D01*
X0167540Y0039200D01*
X0165150Y0039200D01*
X0165645Y0040395D01*
X0165645Y0042105D01*
X0164990Y0043686D01*
X0163781Y0044895D01*
X0162200Y0045550D01*
X0160490Y0045550D01*
X0158909Y0044895D01*
X0157700Y0043686D01*
X0157045Y0042105D01*
X0157045Y0040395D01*
X0157540Y0039200D01*
X0156061Y0039200D01*
X0155417Y0039844D01*
X0155645Y0040395D01*
X0155645Y0042105D01*
X0154990Y0043686D01*
X0153781Y0044895D01*
X0152200Y0045550D01*
X0150490Y0045550D01*
X0148909Y0044895D01*
X0147700Y0043686D01*
X0147045Y0042105D01*
X0147045Y0040395D01*
X0147700Y0038814D01*
X0148909Y0037605D01*
X0150490Y0036950D01*
X0152200Y0036950D01*
X0152822Y0037207D01*
X0154529Y0035500D01*
X0181479Y0035500D01*
X0191979Y0025000D01*
X0204133Y0025000D01*
X0202495Y0023362D01*
X0202495Y0021250D01*
X0207595Y0021250D01*
X0207595Y0021250D01*
X0202495Y0021250D01*
X0202495Y0019138D01*
X0203083Y0018550D01*
X0196661Y0018550D01*
X0183345Y0031866D01*
X0183345Y0032667D01*
X0182911Y0033714D01*
X0182110Y0034516D01*
X0181062Y0034950D01*
X0179928Y0034950D01*
X0178881Y0034516D01*
X0178079Y0033714D01*
X0177645Y0032667D01*
X0177645Y0031533D01*
X0178079Y0030486D01*
X0178881Y0029684D01*
X0179928Y0029250D01*
X0180729Y0029250D01*
X0195129Y0014850D01*
X0204407Y0014850D01*
X0202795Y0013238D01*
X0202795Y0009262D01*
X0205507Y0006550D01*
X0045395Y0006550D01*
X0045395Y0008336D01*
X0046296Y0007435D01*
X0047950Y0006750D01*
X0049740Y0006750D01*
X0051394Y0007435D01*
X0052660Y0008701D01*
X0053345Y0010355D01*
X0053345Y0012145D01*
X0052660Y0013799D01*
X0051394Y0015065D01*
X0049740Y0015750D01*
X0047950Y0015750D01*
X0046296Y0015065D01*
X0045395Y0014164D01*
X0045395Y0018336D01*
X0046296Y0017435D01*
X0047950Y0016750D01*
X0049740Y0016750D01*
X0051394Y0017435D01*
X0052660Y0018701D01*
X0052805Y0019050D01*
X0063806Y0019050D01*
X0065095Y0020339D01*
X0066356Y0021600D01*
X0069266Y0021600D01*
X0069345Y0021679D01*
X0069424Y0021600D01*
X0075266Y0021600D01*
X0076145Y0022479D01*
X0076145Y0027784D01*
X0076695Y0027234D01*
X0076695Y0023329D01*
X0076774Y0023250D01*
X0076695Y0023171D01*
X0076695Y0017329D01*
X0077574Y0016450D01*
X0085116Y0016450D01*
X0085995Y0017329D01*
X0085995Y0018700D01*
X0088097Y0018700D01*
X0089395Y0017402D01*
X0089395Y0015097D01*
X0088909Y0014895D01*
X0087700Y0013686D01*
X0087045Y0012105D01*
X0087045Y0010395D01*
X0087700Y0008814D01*
X0088909Y0007605D01*
X0090490Y0006950D01*
X0092200Y0006950D01*
X0093781Y0007605D01*
X0094990Y0008814D01*
X0095645Y0010395D01*
X0095645Y0012105D01*
X0094990Y0013686D01*
X0093781Y0014895D01*
X0093095Y0015179D01*
X0093095Y0017202D01*
X0095445Y0019552D01*
X0095445Y0022948D01*
X0093043Y0025350D01*
X0089647Y0025350D01*
X0087245Y0022948D01*
X0087245Y0022400D01*
X0085995Y0022400D01*
X0085995Y0023171D01*
X0085916Y0023250D01*
X0085995Y0023329D01*
X0085995Y0029171D01*
X0085916Y0029250D01*
X0085995Y0029329D01*
X0085995Y0035171D01*
X0085116Y0036050D01*
X0079411Y0036050D01*
X0075476Y0039986D01*
X0075645Y0040395D01*
X0075645Y0042105D01*
X0074990Y0043686D01*
X0073781Y0044895D01*
X0072200Y0045550D01*
X0070490Y0045550D01*
X0068909Y0044895D01*
X0067700Y0043686D01*
X0067195Y0042467D01*
X0067195Y0043713D02*
X0067727Y0043713D01*
X0065600Y0045311D02*
X0069914Y0045311D01*
X0072777Y0045311D02*
X0079914Y0045311D01*
X0080490Y0045550D02*
X0078909Y0044895D01*
X0077700Y0043686D01*
X0077045Y0042105D01*
X0077045Y0040395D01*
X0077700Y0038814D01*
X0078909Y0037605D01*
X0080490Y0036950D01*
X0082200Y0036950D01*
X0083781Y0037605D01*
X0084990Y0038814D01*
X0085645Y0040395D01*
X0085645Y0042105D01*
X0084990Y0043686D01*
X0083781Y0044895D01*
X0082200Y0045550D01*
X0080490Y0045550D01*
X0082777Y0045311D02*
X0089914Y0045311D01*
X0090490Y0045550D02*
X0088909Y0044895D01*
X0087700Y0043686D01*
X0087045Y0042105D01*
X0087045Y0040395D01*
X0087700Y0038814D01*
X0088909Y0037605D01*
X0090490Y0036950D01*
X0092200Y0036950D01*
X0093781Y0037605D01*
X0094990Y0038814D01*
X0095645Y0040395D01*
X0095645Y0042105D01*
X0094990Y0043686D01*
X0093781Y0044895D01*
X0092200Y0045550D01*
X0090490Y0045550D01*
X0092777Y0045311D02*
X0099914Y0045311D01*
X0100490Y0045550D02*
X0098909Y0044895D01*
X0097700Y0043686D01*
X0097045Y0042105D01*
X0097045Y0040395D01*
X0097700Y0038814D01*
X0098909Y0037605D01*
X0100490Y0036950D01*
X0102200Y0036950D01*
X0103781Y0037605D01*
X0104990Y0038814D01*
X0105645Y0040395D01*
X0105645Y0042105D01*
X0104990Y0043686D01*
X0103781Y0044895D01*
X0102200Y0045550D01*
X0100490Y0045550D01*
X0102777Y0045311D02*
X0109914Y0045311D01*
X0110490Y0045550D02*
X0108909Y0044895D01*
X0107700Y0043686D01*
X0107045Y0042105D01*
X0107045Y0040395D01*
X0107700Y0038814D01*
X0108909Y0037605D01*
X0110490Y0036950D01*
X0112200Y0036950D01*
X0113781Y0037605D01*
X0114990Y0038814D01*
X0115645Y0040395D01*
X0115645Y0042105D01*
X0114990Y0043686D01*
X0113781Y0044895D01*
X0112200Y0045550D01*
X0110490Y0045550D01*
X0112777Y0045311D02*
X0119184Y0045311D01*
X0118934Y0045184D02*
X0119579Y0045513D01*
X0120268Y0045737D01*
X0120983Y0045850D01*
X0121345Y0045850D01*
X0121345Y0041250D01*
X0121345Y0041250D01*
X0116745Y0041250D01*
X0116745Y0041612D01*
X0116858Y0042327D01*
X0117082Y0043016D01*
X0117411Y0043661D01*
X0117836Y0044247D01*
X0118348Y0044759D01*
X0118934Y0045184D01*
X0117449Y0043713D02*
X0114963Y0043713D01*
X0115641Y0042114D02*
X0116825Y0042114D01*
X0116745Y0041250D02*
X0116745Y0040888D01*
X0116858Y0040173D01*
X0117082Y0039484D01*
X0117411Y0038839D01*
X0117836Y0038253D01*
X0118348Y0037741D01*
X0118934Y0037316D01*
X0119579Y0036987D01*
X0120268Y0036763D01*
X0120983Y0036650D01*
X0121345Y0036650D01*
X0121345Y0041250D01*
X0116745Y0041250D01*
X0116804Y0040516D02*
X0115645Y0040516D01*
X0115033Y0038917D02*
X0117371Y0038917D01*
X0121345Y0038917D02*
X0121345Y0038917D01*
X0121345Y0040516D02*
X0121345Y0040516D01*
X0121345Y0041250D02*
X0121345Y0036650D01*
X0121707Y0036650D01*
X0122422Y0036763D01*
X0123111Y0036987D01*
X0123756Y0037316D01*
X0124342Y0037741D01*
X0124854Y0038253D01*
X0125279Y0038839D01*
X0125608Y0039484D01*
X0125832Y0040173D01*
X0125945Y0040888D01*
X0125945Y0041250D01*
X0125945Y0041612D01*
X0125832Y0042327D01*
X0125608Y0043016D01*
X0125279Y0043661D01*
X0124854Y0044247D01*
X0124342Y0044759D01*
X0123756Y0045184D01*
X0123111Y0045513D01*
X0122422Y0045737D01*
X0121707Y0045850D01*
X0121345Y0045850D01*
X0121345Y0041250D01*
X0121345Y0041250D01*
X0121345Y0041250D01*
X0125945Y0041250D01*
X0121345Y0041250D01*
X0121345Y0041250D01*
X0121345Y0042114D02*
X0121345Y0042114D01*
X0121345Y0043713D02*
X0121345Y0043713D01*
X0121345Y0045311D02*
X0121345Y0045311D01*
X0123507Y0045311D02*
X0129914Y0045311D01*
X0130490Y0045550D02*
X0128909Y0044895D01*
X0127700Y0043686D01*
X0127045Y0042105D01*
X0127045Y0040395D01*
X0127700Y0038814D01*
X0128909Y0037605D01*
X0130490Y0036950D01*
X0132200Y0036950D01*
X0133781Y0037605D01*
X0134990Y0038814D01*
X0135645Y0040395D01*
X0135645Y0042105D01*
X0134990Y0043686D01*
X0133781Y0044895D01*
X0132200Y0045550D01*
X0130490Y0045550D01*
X0132777Y0045311D02*
X0139914Y0045311D01*
X0140490Y0045550D02*
X0138909Y0044895D01*
X0137700Y0043686D01*
X0137045Y0042105D01*
X0137045Y0040395D01*
X0137700Y0038814D01*
X0138909Y0037605D01*
X0140490Y0036950D01*
X0142200Y0036950D01*
X0143781Y0037605D01*
X0144990Y0038814D01*
X0145645Y0040395D01*
X0145645Y0042105D01*
X0144990Y0043686D01*
X0143781Y0044895D01*
X0142200Y0045550D01*
X0140490Y0045550D01*
X0142777Y0045311D02*
X0149914Y0045311D01*
X0147727Y0043713D02*
X0144963Y0043713D01*
X0145641Y0042114D02*
X0147049Y0042114D01*
X0147045Y0040516D02*
X0145645Y0040516D01*
X0145033Y0038917D02*
X0147657Y0038917D01*
X0149600Y0037319D02*
X0143091Y0037319D01*
X0143043Y0035350D02*
X0139647Y0035350D01*
X0137547Y0033250D01*
X0137434Y0033250D01*
X0135445Y0031261D01*
X0135445Y0032948D01*
X0133043Y0035350D01*
X0129647Y0035350D01*
X0127245Y0032948D01*
X0127245Y0029552D01*
X0128347Y0028450D01*
X0125434Y0028450D01*
X0122334Y0025350D01*
X0120356Y0025350D01*
X0112456Y0033250D01*
X0095143Y0033250D01*
X0093043Y0035350D01*
X0089647Y0035350D01*
X0087245Y0032948D01*
X0087245Y0029552D01*
X0089647Y0027150D01*
X0093043Y0027150D01*
X0094743Y0028850D01*
X0110634Y0028850D01*
X0117245Y0022239D01*
X0117245Y0019552D01*
X0119145Y0017652D01*
X0119145Y0014993D01*
X0118909Y0014895D01*
X0117700Y0013686D01*
X0117045Y0012105D01*
X0117045Y0010395D01*
X0117700Y0008814D01*
X0118909Y0007605D01*
X0120490Y0006950D01*
X0122200Y0006950D01*
X0123781Y0007605D01*
X0124990Y0008814D01*
X0125645Y0010395D01*
X0125645Y0012105D01*
X0124990Y0013686D01*
X0123781Y0014895D01*
X0123545Y0014993D01*
X0123545Y0017652D01*
X0125445Y0019552D01*
X0125445Y0022239D01*
X0127256Y0024050D01*
X0127923Y0024050D01*
X0126945Y0023073D01*
X0126945Y0021250D01*
X0131345Y0021250D01*
X0131345Y0021250D01*
X0126945Y0021250D01*
X0126945Y0019427D01*
X0129523Y0016850D01*
X0131345Y0016850D01*
X0131345Y0021250D01*
X0131345Y0021250D01*
X0131345Y0016850D01*
X0133168Y0016850D01*
X0135745Y0019427D01*
X0135745Y0021250D01*
X0135745Y0023073D01*
X0134612Y0024206D01*
X0135745Y0025339D01*
X0138602Y0028195D01*
X0139647Y0027150D01*
X0143043Y0027150D01*
X0145445Y0029552D01*
X0145445Y0032948D01*
X0143043Y0035350D01*
X0144272Y0034122D02*
X0178486Y0034122D01*
X0177645Y0032523D02*
X0145445Y0032523D01*
X0145445Y0030925D02*
X0177897Y0030925D01*
X0179744Y0029326D02*
X0145220Y0029326D01*
X0143621Y0027728D02*
X0182251Y0027728D01*
X0185885Y0029326D02*
X0187653Y0029326D01*
X0187484Y0027728D02*
X0189251Y0027728D01*
X0192885Y0029326D02*
X0202645Y0029326D01*
X0202645Y0030925D02*
X0191287Y0030925D01*
X0189688Y0032523D02*
X0202645Y0032523D01*
X0203467Y0034122D02*
X0188090Y0034122D01*
X0186491Y0035720D02*
X0205065Y0035720D01*
X0204961Y0037308D02*
X0206670Y0036600D01*
X0208520Y0036600D01*
X0210229Y0037308D01*
X0211537Y0038616D01*
X0212245Y0040325D01*
X0212245Y0042175D01*
X0211537Y0043884D01*
X0210229Y0045192D01*
X0208520Y0045900D01*
X0206670Y0045900D01*
X0204961Y0045192D01*
X0203653Y0043884D01*
X0202945Y0042175D01*
X0202945Y0040325D01*
X0203653Y0038616D01*
X0204961Y0037308D01*
X0204950Y0037319D02*
X0193091Y0037319D01*
X0193781Y0037605D02*
X0192200Y0036950D01*
X0190490Y0036950D01*
X0188909Y0037605D01*
X0187700Y0038814D01*
X0187045Y0040395D01*
X0187045Y0042105D01*
X0187700Y0043686D01*
X0188909Y0044895D01*
X0190490Y0045550D01*
X0192200Y0045550D01*
X0193781Y0044895D01*
X0194990Y0043686D01*
X0195645Y0042105D01*
X0195645Y0040395D01*
X0194990Y0038814D01*
X0193781Y0037605D01*
X0195033Y0038917D02*
X0203528Y0038917D01*
X0202945Y0040516D02*
X0195645Y0040516D01*
X0195641Y0042114D02*
X0202945Y0042114D01*
X0203582Y0043713D02*
X0194963Y0043713D01*
X0192777Y0045311D02*
X0205249Y0045311D01*
X0209941Y0045311D02*
X0219203Y0045311D01*
X0218845Y0043713D02*
X0211608Y0043713D01*
X0212245Y0042114D02*
X0219234Y0042114D01*
X0218963Y0040516D02*
X0212245Y0040516D01*
X0211662Y0038917D02*
X0218545Y0038917D01*
X0218825Y0037319D02*
X0210240Y0037319D01*
X0210125Y0035720D02*
X0219373Y0035720D01*
X0218845Y0034122D02*
X0211724Y0034122D01*
X0212545Y0032523D02*
X0219065Y0032523D01*
X0219570Y0030925D02*
X0212545Y0030925D01*
X0212545Y0031250D02*
X0207595Y0031250D01*
X0207595Y0036200D01*
X0207595Y0031250D01*
X0207595Y0031250D01*
X0212545Y0031250D01*
X0212545Y0029326D02*
X0218845Y0029326D01*
X0218980Y0027728D02*
X0211073Y0027728D01*
X0211832Y0026129D02*
X0219775Y0026129D01*
X0228795Y0026250D02*
X0229312Y0026767D01*
X0229845Y0028054D01*
X0229845Y0029446D01*
X0229312Y0030733D01*
X0228795Y0031250D01*
X0229312Y0031767D01*
X0229845Y0033054D01*
X0229845Y0034446D01*
X0229312Y0035733D01*
X0229007Y0036038D01*
X0229297Y0036328D01*
X0229713Y0036950D01*
X0229999Y0037642D01*
X0230145Y0038376D01*
X0230145Y0038750D01*
X0230145Y0039124D01*
X0229999Y0039858D01*
X0229713Y0040550D01*
X0229297Y0041172D01*
X0229007Y0041462D01*
X0229312Y0041767D01*
X0229845Y0043054D01*
X0229845Y0044446D01*
X0229312Y0045733D01*
X0229095Y0045950D01*
X0236045Y0045950D01*
X0236045Y0006550D01*
X0229095Y0006550D01*
X0229312Y0006767D01*
X0229845Y0008054D01*
X0229845Y0009446D01*
X0229312Y0010733D01*
X0228795Y0011250D01*
X0229312Y0011767D01*
X0229845Y0013054D01*
X0229845Y0014446D01*
X0229312Y0015733D01*
X0228795Y0016250D01*
X0229312Y0016767D01*
X0229845Y0018054D01*
X0229845Y0019446D01*
X0229312Y0020733D01*
X0228795Y0021250D01*
X0229312Y0021767D01*
X0229845Y0023054D01*
X0229845Y0024446D01*
X0229312Y0025733D01*
X0228795Y0026250D01*
X0228916Y0026129D02*
X0236045Y0026129D01*
X0236045Y0024531D02*
X0229810Y0024531D01*
X0229795Y0022932D02*
X0236045Y0022932D01*
X0236045Y0021334D02*
X0228879Y0021334D01*
X0229725Y0019735D02*
X0236045Y0019735D01*
X0236045Y0018137D02*
X0229845Y0018137D01*
X0229083Y0016538D02*
X0236045Y0016538D01*
X0236045Y0014940D02*
X0229641Y0014940D01*
X0229845Y0013341D02*
X0236045Y0013341D01*
X0236045Y0011743D02*
X0229287Y0011743D01*
X0229556Y0010144D02*
X0236045Y0010144D01*
X0236045Y0008546D02*
X0229845Y0008546D01*
X0229387Y0006947D02*
X0236045Y0006947D01*
X0205110Y0006947D02*
X0132988Y0006947D01*
X0133111Y0006987D02*
X0133756Y0007316D01*
X0134342Y0007741D01*
X0134854Y0008253D01*
X0135279Y0008839D01*
X0135608Y0009484D01*
X0135832Y0010173D01*
X0135945Y0010888D01*
X0135945Y0011250D01*
X0135945Y0011612D01*
X0135832Y0012327D01*
X0135608Y0013016D01*
X0135279Y0013661D01*
X0134854Y0014247D01*
X0134342Y0014759D01*
X0133756Y0015184D01*
X0133111Y0015513D01*
X0132422Y0015737D01*
X0131707Y0015850D01*
X0131345Y0015850D01*
X0130983Y0015850D01*
X0130268Y0015737D01*
X0129579Y0015513D01*
X0128934Y0015184D01*
X0128348Y0014759D01*
X0127836Y0014247D01*
X0127411Y0013661D01*
X0127082Y0013016D01*
X0126858Y0012327D01*
X0126745Y0011612D01*
X0126745Y0011250D01*
X0131345Y0011250D01*
X0131345Y0011250D01*
X0126745Y0011250D01*
X0126745Y0010888D01*
X0126858Y0010173D01*
X0127082Y0009484D01*
X0127411Y0008839D01*
X0127836Y0008253D01*
X0128348Y0007741D01*
X0128934Y0007316D01*
X0129579Y0006987D01*
X0130268Y0006763D01*
X0130983Y0006650D01*
X0131345Y0006650D01*
X0131345Y0011250D01*
X0131345Y0015850D01*
X0131345Y0011250D01*
X0131345Y0011250D01*
X0131345Y0011250D01*
X0131345Y0006650D01*
X0131707Y0006650D01*
X0132422Y0006763D01*
X0133111Y0006987D01*
X0131345Y0006947D02*
X0131345Y0006947D01*
X0129702Y0006947D02*
X0050216Y0006947D01*
X0047474Y0006947D02*
X0045395Y0006947D01*
X0052505Y0008546D02*
X0057045Y0008546D01*
X0057045Y0007829D02*
X0057924Y0006950D01*
X0064766Y0006950D01*
X0065645Y0007829D01*
X0065645Y0014671D01*
X0064766Y0015550D01*
X0057924Y0015550D01*
X0057045Y0014671D01*
X0057045Y0007829D01*
X0057045Y0010144D02*
X0053258Y0010144D01*
X0053345Y0011743D02*
X0057045Y0011743D01*
X0057045Y0013341D02*
X0052850Y0013341D01*
X0051520Y0014940D02*
X0057313Y0014940D01*
X0065377Y0014940D02*
X0069016Y0014940D01*
X0068909Y0014895D02*
X0067700Y0013686D01*
X0067045Y0012105D01*
X0067045Y0010395D01*
X0067700Y0008814D01*
X0068909Y0007605D01*
X0070490Y0006950D01*
X0072200Y0006950D01*
X0073781Y0007605D01*
X0074990Y0008814D01*
X0075645Y0010395D01*
X0075645Y0012105D01*
X0074990Y0013686D01*
X0073781Y0014895D01*
X0072200Y0015550D01*
X0070490Y0015550D01*
X0068909Y0014895D01*
X0067557Y0013341D02*
X0065645Y0013341D01*
X0065645Y0011743D02*
X0067045Y0011743D01*
X0067149Y0010144D02*
X0065645Y0010144D01*
X0065645Y0008546D02*
X0067968Y0008546D01*
X0074722Y0008546D02*
X0077968Y0008546D01*
X0077700Y0008814D02*
X0078909Y0007605D01*
X0080490Y0006950D01*
X0082200Y0006950D01*
X0083781Y0007605D01*
X0084990Y0008814D01*
X0085645Y0010395D01*
X0085645Y0012105D01*
X0084990Y0013686D01*
X0083781Y0014895D01*
X0082200Y0015550D01*
X0080490Y0015550D01*
X0078909Y0014895D01*
X0077700Y0013686D01*
X0077045Y0012105D01*
X0077045Y0010395D01*
X0077700Y0008814D01*
X0077149Y0010144D02*
X0075541Y0010144D01*
X0075645Y0011743D02*
X0077045Y0011743D01*
X0077557Y0013341D02*
X0075133Y0013341D01*
X0073674Y0014940D02*
X0079016Y0014940D01*
X0077486Y0016538D02*
X0045395Y0016538D01*
X0045395Y0018137D02*
X0045595Y0018137D01*
X0052096Y0018137D02*
X0076695Y0018137D01*
X0076695Y0019735D02*
X0064492Y0019735D01*
X0066090Y0021334D02*
X0076695Y0021334D01*
X0076695Y0022932D02*
X0076145Y0022932D01*
X0076145Y0024531D02*
X0076695Y0024531D01*
X0076695Y0026129D02*
X0076145Y0026129D01*
X0076145Y0027728D02*
X0076201Y0027728D01*
X0069154Y0030925D02*
X0063604Y0030925D01*
X0060695Y0030925D02*
X0059995Y0030925D01*
X0059995Y0031200D02*
X0057808Y0031200D01*
X0057350Y0031077D01*
X0056940Y0030840D01*
X0056605Y0030505D01*
X0056368Y0030095D01*
X0056245Y0029637D01*
X0056245Y0026600D01*
X0059995Y0026600D01*
X0059995Y0031200D01*
X0057086Y0030925D02*
X0053345Y0030925D01*
X0052919Y0029326D02*
X0056245Y0029326D01*
X0056245Y0027728D02*
X0051687Y0027728D01*
X0046003Y0027728D02*
X0045395Y0027728D01*
X0045395Y0026129D02*
X0059995Y0026129D01*
X0059995Y0027728D02*
X0060695Y0027728D01*
X0060695Y0029326D02*
X0059995Y0029326D01*
X0056245Y0024531D02*
X0051928Y0024531D01*
X0045762Y0024531D02*
X0045395Y0024531D01*
X0045395Y0014940D02*
X0046171Y0014940D01*
X0083674Y0014940D02*
X0089016Y0014940D01*
X0087557Y0013341D02*
X0085133Y0013341D01*
X0085645Y0011743D02*
X0087045Y0011743D01*
X0087149Y0010144D02*
X0085541Y0010144D01*
X0084722Y0008546D02*
X0087968Y0008546D01*
X0094722Y0008546D02*
X0097968Y0008546D01*
X0097700Y0008814D02*
X0098909Y0007605D01*
X0100490Y0006950D01*
X0102200Y0006950D01*
X0103781Y0007605D01*
X0104990Y0008814D01*
X0105645Y0010395D01*
X0105645Y0012105D01*
X0104990Y0013686D01*
X0103781Y0014895D01*
X0102200Y0015550D01*
X0100490Y0015550D01*
X0098909Y0014895D01*
X0097700Y0013686D01*
X0097045Y0012105D01*
X0097045Y0010395D01*
X0097700Y0008814D01*
X0097149Y0010144D02*
X0095541Y0010144D01*
X0095645Y0011743D02*
X0097045Y0011743D01*
X0097557Y0013341D02*
X0095133Y0013341D01*
X0093674Y0014940D02*
X0099016Y0014940D01*
X0103674Y0014940D02*
X0109016Y0014940D01*
X0108909Y0014895D02*
X0107700Y0013686D01*
X0107045Y0012105D01*
X0107045Y0010395D01*
X0107700Y0008814D01*
X0108909Y0007605D01*
X0110490Y0006950D01*
X0112200Y0006950D01*
X0113781Y0007605D01*
X0114990Y0008814D01*
X0115645Y0010395D01*
X0115645Y0012105D01*
X0114990Y0013686D01*
X0113781Y0014895D01*
X0112200Y0015550D01*
X0110490Y0015550D01*
X0108909Y0014895D01*
X0107557Y0013341D02*
X0105133Y0013341D01*
X0105645Y0011743D02*
X0107045Y0011743D01*
X0107149Y0010144D02*
X0105541Y0010144D01*
X0104722Y0008546D02*
X0107968Y0008546D01*
X0114722Y0008546D02*
X0117968Y0008546D01*
X0117149Y0010144D02*
X0115541Y0010144D01*
X0115645Y0011743D02*
X0117045Y0011743D01*
X0117557Y0013341D02*
X0115133Y0013341D01*
X0113674Y0014940D02*
X0119016Y0014940D01*
X0119145Y0016538D02*
X0093095Y0016538D01*
X0094030Y0018137D02*
X0118660Y0018137D01*
X0117245Y0019735D02*
X0095445Y0019735D01*
X0095445Y0021334D02*
X0117245Y0021334D01*
X0116552Y0022932D02*
X0095445Y0022932D01*
X0093863Y0024531D02*
X0114953Y0024531D01*
X0113355Y0026129D02*
X0085995Y0026129D01*
X0085995Y0024531D02*
X0088828Y0024531D01*
X0087245Y0022932D02*
X0085995Y0022932D01*
X0085995Y0018137D02*
X0088660Y0018137D01*
X0089395Y0016538D02*
X0085205Y0016538D01*
X0085995Y0027728D02*
X0089069Y0027728D01*
X0087471Y0029326D02*
X0085993Y0029326D01*
X0085995Y0030925D02*
X0087245Y0030925D01*
X0087245Y0032523D02*
X0085995Y0032523D01*
X0085995Y0034122D02*
X0088419Y0034122D01*
X0085446Y0035720D02*
X0154309Y0035720D01*
X0155645Y0040516D02*
X0157045Y0040516D01*
X0157049Y0042114D02*
X0155641Y0042114D01*
X0154963Y0043713D02*
X0157727Y0043713D01*
X0159914Y0045311D02*
X0152777Y0045311D01*
X0162777Y0045311D02*
X0169914Y0045311D01*
X0167727Y0043713D02*
X0164963Y0043713D01*
X0165641Y0042114D02*
X0167049Y0042114D01*
X0167045Y0040516D02*
X0165645Y0040516D01*
X0174963Y0043713D02*
X0177727Y0043713D01*
X0179914Y0045311D02*
X0172777Y0045311D01*
X0175641Y0042114D02*
X0177049Y0042114D01*
X0177045Y0040516D02*
X0175645Y0040516D01*
X0185033Y0038917D02*
X0187657Y0038917D01*
X0187045Y0040516D02*
X0185645Y0040516D01*
X0185641Y0042114D02*
X0187049Y0042114D01*
X0187727Y0043713D02*
X0184963Y0043713D01*
X0182777Y0045311D02*
X0189914Y0045311D01*
X0189600Y0037319D02*
X0184893Y0037319D01*
X0182857Y0034122D02*
X0182504Y0034122D01*
X0183345Y0032523D02*
X0184456Y0032523D01*
X0184287Y0030925D02*
X0186054Y0030925D01*
X0183850Y0026129D02*
X0136536Y0026129D01*
X0134937Y0024531D02*
X0138403Y0024531D01*
X0139523Y0025650D02*
X0136945Y0023073D01*
X0136945Y0021250D01*
X0141345Y0021250D01*
X0141345Y0021250D01*
X0136945Y0021250D01*
X0136945Y0019427D01*
X0139523Y0016850D01*
X0141345Y0016850D01*
X0141345Y0021250D01*
X0141345Y0025650D01*
X0139523Y0025650D01*
X0141345Y0025650D02*
X0141345Y0021250D01*
X0141345Y0021250D01*
X0141345Y0021250D01*
X0141345Y0016850D01*
X0143168Y0016850D01*
X0145745Y0019427D01*
X0145745Y0021250D01*
X0145745Y0023073D01*
X0143168Y0025650D01*
X0141345Y0025650D01*
X0141345Y0024531D02*
X0141345Y0024531D01*
X0144287Y0024531D02*
X0148828Y0024531D01*
X0149647Y0025350D02*
X0147245Y0022948D01*
X0147245Y0019552D01*
X0149647Y0017150D01*
X0153043Y0017150D01*
X0155445Y0019552D01*
X0155445Y0022948D01*
X0153043Y0025350D01*
X0149647Y0025350D01*
X0153863Y0024531D02*
X0178828Y0024531D01*
X0179647Y0025350D02*
X0177245Y0022948D01*
X0177245Y0019552D01*
X0179647Y0017150D01*
X0183043Y0017150D01*
X0185445Y0019552D01*
X0185445Y0022948D01*
X0183043Y0025350D01*
X0179647Y0025350D01*
X0183863Y0024531D02*
X0185448Y0024531D01*
X0189082Y0026129D02*
X0190850Y0026129D01*
X0190681Y0024531D02*
X0203663Y0024531D01*
X0202495Y0022932D02*
X0192279Y0022932D01*
X0193878Y0021334D02*
X0202495Y0021334D01*
X0207595Y0021250D02*
X0212695Y0021250D01*
X0212695Y0022200D01*
X0219199Y0022200D01*
X0219378Y0021767D01*
X0219895Y0021250D01*
X0219378Y0020733D01*
X0219199Y0020300D01*
X0213029Y0020300D01*
X0212695Y0019966D01*
X0212695Y0021250D01*
X0207595Y0021250D01*
X0207595Y0021250D01*
X0202495Y0019735D02*
X0195476Y0019735D01*
X0191842Y0018137D02*
X0184030Y0018137D01*
X0178660Y0018137D02*
X0154030Y0018137D01*
X0155445Y0019735D02*
X0177245Y0019735D01*
X0177245Y0021334D02*
X0155445Y0021334D01*
X0155445Y0022932D02*
X0177245Y0022932D01*
X0185445Y0022932D02*
X0187047Y0022932D01*
X0188645Y0021334D02*
X0185445Y0021334D01*
X0185445Y0019735D02*
X0190244Y0019735D01*
X0193441Y0016538D02*
X0123545Y0016538D01*
X0124030Y0018137D02*
X0128236Y0018137D01*
X0131345Y0018137D02*
X0131345Y0018137D01*
X0134454Y0018137D02*
X0138236Y0018137D01*
X0141345Y0018137D02*
X0141345Y0018137D01*
X0144454Y0018137D02*
X0148660Y0018137D01*
X0147245Y0019735D02*
X0145745Y0019735D01*
X0145745Y0021250D02*
X0141345Y0021250D01*
X0145745Y0021250D01*
X0145745Y0021334D02*
X0147245Y0021334D01*
X0147245Y0022932D02*
X0145745Y0022932D01*
X0141345Y0022932D02*
X0141345Y0022932D01*
X0141345Y0021334D02*
X0141345Y0021334D01*
X0141345Y0021250D02*
X0141345Y0021250D01*
X0141345Y0019735D02*
X0141345Y0019735D01*
X0136945Y0019735D02*
X0135745Y0019735D01*
X0135745Y0021250D02*
X0131345Y0021250D01*
X0135745Y0021250D01*
X0135745Y0021334D02*
X0136945Y0021334D01*
X0136945Y0022932D02*
X0135745Y0022932D01*
X0131345Y0021250D02*
X0131345Y0021250D01*
X0131345Y0019735D02*
X0131345Y0019735D01*
X0126945Y0019735D02*
X0125445Y0019735D01*
X0125445Y0021334D02*
X0126945Y0021334D01*
X0126945Y0022932D02*
X0126139Y0022932D01*
X0123113Y0026129D02*
X0119577Y0026129D01*
X0119647Y0027150D02*
X0123043Y0027150D01*
X0125445Y0029552D01*
X0125445Y0032948D01*
X0123043Y0035350D01*
X0119647Y0035350D01*
X0117245Y0032948D01*
X0117245Y0029552D01*
X0119647Y0027150D01*
X0119069Y0027728D02*
X0117979Y0027728D01*
X0117471Y0029326D02*
X0116380Y0029326D01*
X0117245Y0030925D02*
X0114782Y0030925D01*
X0113183Y0032523D02*
X0117245Y0032523D01*
X0118419Y0034122D02*
X0094272Y0034122D01*
X0093091Y0037319D02*
X0099600Y0037319D01*
X0103091Y0037319D02*
X0109600Y0037319D01*
X0107657Y0038917D02*
X0105033Y0038917D01*
X0105645Y0040516D02*
X0107045Y0040516D01*
X0107049Y0042114D02*
X0105641Y0042114D01*
X0104963Y0043713D02*
X0107727Y0043713D01*
X0097727Y0043713D02*
X0094963Y0043713D01*
X0095641Y0042114D02*
X0097049Y0042114D01*
X0097045Y0040516D02*
X0095645Y0040516D01*
X0095033Y0038917D02*
X0097657Y0038917D01*
X0089600Y0037319D02*
X0083091Y0037319D01*
X0079600Y0037319D02*
X0078143Y0037319D01*
X0077657Y0038917D02*
X0076544Y0038917D01*
X0077045Y0040516D02*
X0075645Y0040516D01*
X0075641Y0042114D02*
X0077049Y0042114D01*
X0077727Y0043713D02*
X0074963Y0043713D01*
X0084963Y0043713D02*
X0087727Y0043713D01*
X0087049Y0042114D02*
X0085641Y0042114D01*
X0085645Y0040516D02*
X0087045Y0040516D01*
X0087657Y0038917D02*
X0085033Y0038917D01*
X0113091Y0037319D02*
X0118930Y0037319D01*
X0121345Y0037319D02*
X0121345Y0037319D01*
X0123760Y0037319D02*
X0129600Y0037319D01*
X0133091Y0037319D02*
X0139600Y0037319D01*
X0137657Y0038917D02*
X0135033Y0038917D01*
X0135645Y0040516D02*
X0137045Y0040516D01*
X0137049Y0042114D02*
X0135641Y0042114D01*
X0134963Y0043713D02*
X0137727Y0043713D01*
X0127727Y0043713D02*
X0125242Y0043713D01*
X0125866Y0042114D02*
X0127049Y0042114D01*
X0127045Y0040516D02*
X0125886Y0040516D01*
X0125319Y0038917D02*
X0127657Y0038917D01*
X0128419Y0034122D02*
X0124272Y0034122D01*
X0125445Y0032523D02*
X0127245Y0032523D01*
X0127245Y0030925D02*
X0125445Y0030925D01*
X0125220Y0029326D02*
X0127471Y0029326D01*
X0124712Y0027728D02*
X0123621Y0027728D01*
X0111756Y0027728D02*
X0093621Y0027728D01*
X0123674Y0014940D02*
X0128597Y0014940D01*
X0127248Y0013341D02*
X0125133Y0013341D01*
X0125645Y0011743D02*
X0126766Y0011743D01*
X0126868Y0010144D02*
X0125541Y0010144D01*
X0124722Y0008546D02*
X0127624Y0008546D01*
X0131345Y0008546D02*
X0131345Y0008546D01*
X0135066Y0008546D02*
X0137968Y0008546D01*
X0137700Y0008814D02*
X0138909Y0007605D01*
X0140490Y0006950D01*
X0142200Y0006950D01*
X0143781Y0007605D01*
X0144990Y0008814D01*
X0145645Y0010395D01*
X0145645Y0012105D01*
X0144990Y0013686D01*
X0143781Y0014895D01*
X0142200Y0015550D01*
X0140490Y0015550D01*
X0138909Y0014895D01*
X0137700Y0013686D01*
X0137045Y0012105D01*
X0137045Y0010395D01*
X0137700Y0008814D01*
X0137149Y0010144D02*
X0135823Y0010144D01*
X0135945Y0011250D02*
X0131345Y0011250D01*
X0135945Y0011250D01*
X0135924Y0011743D02*
X0137045Y0011743D01*
X0137557Y0013341D02*
X0135442Y0013341D01*
X0134093Y0014940D02*
X0139016Y0014940D01*
X0143674Y0014940D02*
X0149016Y0014940D01*
X0148909Y0014895D02*
X0147700Y0013686D01*
X0147045Y0012105D01*
X0147045Y0010395D01*
X0147700Y0008814D01*
X0148909Y0007605D01*
X0150490Y0006950D01*
X0152200Y0006950D01*
X0153781Y0007605D01*
X0154990Y0008814D01*
X0155645Y0010395D01*
X0155645Y0012105D01*
X0154990Y0013686D01*
X0153781Y0014895D01*
X0152200Y0015550D01*
X0150490Y0015550D01*
X0148909Y0014895D01*
X0147557Y0013341D02*
X0145133Y0013341D01*
X0145645Y0011743D02*
X0147045Y0011743D01*
X0147149Y0010144D02*
X0145541Y0010144D01*
X0144722Y0008546D02*
X0147968Y0008546D01*
X0154722Y0008546D02*
X0157968Y0008546D01*
X0157700Y0008814D02*
X0158909Y0007605D01*
X0160490Y0006950D01*
X0162200Y0006950D01*
X0163781Y0007605D01*
X0164990Y0008814D01*
X0165645Y0010395D01*
X0165645Y0012105D01*
X0164990Y0013686D01*
X0163781Y0014895D01*
X0162200Y0015550D01*
X0160490Y0015550D01*
X0158909Y0014895D01*
X0157700Y0013686D01*
X0157045Y0012105D01*
X0157045Y0010395D01*
X0157700Y0008814D01*
X0157149Y0010144D02*
X0155541Y0010144D01*
X0155645Y0011743D02*
X0157045Y0011743D01*
X0157557Y0013341D02*
X0155133Y0013341D01*
X0153674Y0014940D02*
X0159016Y0014940D01*
X0163674Y0014940D02*
X0169016Y0014940D01*
X0168909Y0014895D02*
X0167700Y0013686D01*
X0167045Y0012105D01*
X0167045Y0010395D01*
X0167700Y0008814D01*
X0168909Y0007605D01*
X0170490Y0006950D01*
X0172200Y0006950D01*
X0173781Y0007605D01*
X0174990Y0008814D01*
X0175645Y0010395D01*
X0175645Y0012105D01*
X0174990Y0013686D01*
X0173781Y0014895D01*
X0172200Y0015550D01*
X0170490Y0015550D01*
X0168909Y0014895D01*
X0167557Y0013341D02*
X0165133Y0013341D01*
X0165645Y0011743D02*
X0167045Y0011743D01*
X0167149Y0010144D02*
X0165541Y0010144D01*
X0164722Y0008546D02*
X0167968Y0008546D01*
X0174722Y0008546D02*
X0177968Y0008546D01*
X0177700Y0008814D02*
X0178909Y0007605D01*
X0180490Y0006950D01*
X0182200Y0006950D01*
X0183781Y0007605D01*
X0184990Y0008814D01*
X0185645Y0010395D01*
X0185645Y0012105D01*
X0184990Y0013686D01*
X0183781Y0014895D01*
X0182200Y0015550D01*
X0180490Y0015550D01*
X0178909Y0014895D01*
X0177700Y0013686D01*
X0177045Y0012105D01*
X0177045Y0010395D01*
X0177700Y0008814D01*
X0177149Y0010144D02*
X0175541Y0010144D01*
X0175645Y0011743D02*
X0177045Y0011743D01*
X0177557Y0013341D02*
X0175133Y0013341D01*
X0173674Y0014940D02*
X0179016Y0014940D01*
X0183674Y0014940D02*
X0189016Y0014940D01*
X0188909Y0014895D02*
X0187700Y0013686D01*
X0187045Y0012105D01*
X0187045Y0010395D01*
X0187700Y0008814D01*
X0188909Y0007605D01*
X0190490Y0006950D01*
X0192200Y0006950D01*
X0193781Y0007605D01*
X0194990Y0008814D01*
X0195645Y0010395D01*
X0195645Y0012105D01*
X0194990Y0013686D01*
X0193781Y0014895D01*
X0192200Y0015550D01*
X0190490Y0015550D01*
X0188909Y0014895D01*
X0187557Y0013341D02*
X0185133Y0013341D01*
X0185645Y0011743D02*
X0187045Y0011743D01*
X0187149Y0010144D02*
X0185541Y0010144D01*
X0184722Y0008546D02*
X0187968Y0008546D01*
X0194722Y0008546D02*
X0203511Y0008546D01*
X0202795Y0010144D02*
X0195541Y0010144D01*
X0195645Y0011743D02*
X0202795Y0011743D01*
X0202898Y0013341D02*
X0195133Y0013341D01*
X0195039Y0014940D02*
X0193674Y0014940D01*
X0212695Y0021334D02*
X0219812Y0021334D01*
X0229710Y0027728D02*
X0236045Y0027728D01*
X0236045Y0029326D02*
X0229845Y0029326D01*
X0229120Y0030925D02*
X0236045Y0030925D01*
X0236045Y0032523D02*
X0229625Y0032523D01*
X0229845Y0034122D02*
X0236045Y0034122D01*
X0236045Y0035720D02*
X0229317Y0035720D01*
X0229865Y0037319D02*
X0236045Y0037319D01*
X0236045Y0038917D02*
X0230145Y0038917D01*
X0230145Y0038750D02*
X0226345Y0038750D01*
X0226345Y0038750D01*
X0230145Y0038750D01*
X0229727Y0040516D02*
X0236045Y0040516D01*
X0236045Y0042114D02*
X0229456Y0042114D01*
X0229845Y0043713D02*
X0236045Y0043713D01*
X0236045Y0045311D02*
X0229487Y0045311D01*
X0207595Y0035720D02*
X0207595Y0035720D01*
X0207595Y0034122D02*
X0207595Y0034122D01*
X0207595Y0032523D02*
X0207595Y0032523D01*
X0207595Y0031250D02*
X0207595Y0031250D01*
X0139069Y0027728D02*
X0138134Y0027728D01*
X0136707Y0032523D02*
X0135445Y0032523D01*
X0134272Y0034122D02*
X0138419Y0034122D01*
X0131345Y0014940D02*
X0131345Y0014940D01*
X0131345Y0013341D02*
X0131345Y0013341D01*
X0131345Y0011743D02*
X0131345Y0011743D01*
X0131345Y0011250D02*
X0131345Y0011250D01*
X0131345Y0010144D02*
X0131345Y0010144D01*
D25*
X0091345Y0011250D02*
X0091245Y0011450D01*
X0091245Y0020900D01*
X0091345Y0021250D01*
X0091245Y0021250D01*
X0090545Y0020550D01*
X0081445Y0020550D01*
X0081345Y0020250D01*
X0081345Y0026250D02*
X0081095Y0026500D01*
X0080045Y0026500D01*
X0065345Y0041200D01*
X0065345Y0042950D01*
X0062895Y0045400D01*
X0059745Y0045400D01*
X0053095Y0038750D01*
X0053095Y0035600D01*
X0048895Y0031400D01*
X0048845Y0031250D01*
X0061495Y0041200D02*
X0072345Y0030350D01*
X0072345Y0026250D01*
X0081095Y0032450D02*
X0081345Y0032250D01*
X0081095Y0032450D02*
X0080395Y0032450D01*
X0071645Y0041200D01*
X0071345Y0041250D01*
X0061495Y0041200D02*
X0061345Y0041250D01*
X0151345Y0041250D02*
X0151445Y0041200D01*
X0155295Y0037350D01*
X0182245Y0037350D01*
X0192745Y0026850D01*
X0208495Y0026850D01*
X0211295Y0024050D01*
X0226345Y0024050D01*
X0226345Y0023750D01*
X0226345Y0018750D02*
X0226345Y0018450D01*
X0213795Y0018450D01*
X0212045Y0016700D01*
X0195895Y0016700D01*
X0180495Y0032100D01*
M02*
