G75*
%MOIN*%
%OFA0B0*%
%FSLAX25Y25*%
%IPPOS*%
%LPD*%
%AMOC8*
5,1,8,0,0,1.08239X$1,22.5*
%
%ADD10C,0.00000*%
%ADD11C,0.00200*%
%ADD12C,0.00500*%
%ADD13C,0.00800*%
%ADD14C,0.00400*%
%ADD15C,0.00600*%
%ADD16C,0.01000*%
%ADD17R,0.01500X0.02000*%
%ADD18C,0.00060*%
%ADD19C,0.00100*%
%ADD20C,0.00300*%
D10*
X0042595Y0003750D02*
X0042595Y0048750D01*
X0238845Y0048750D01*
X0238845Y0003750D01*
X0042595Y0003750D01*
D11*
X0123543Y0023967D02*
X0123910Y0023600D01*
X0125378Y0023600D01*
X0125745Y0023967D01*
X0125745Y0024701D01*
X0125378Y0025068D01*
X0125745Y0025810D02*
X0124277Y0027278D01*
X0123910Y0027278D01*
X0123543Y0026911D01*
X0123543Y0026177D01*
X0123910Y0025810D01*
X0123910Y0025068D02*
X0123543Y0024701D01*
X0123543Y0023967D01*
X0125745Y0025810D02*
X0125745Y0027278D01*
X0147443Y0031297D02*
X0147810Y0030930D01*
X0149278Y0030930D01*
X0149645Y0031297D01*
X0149645Y0032031D01*
X0149278Y0032398D01*
X0149645Y0033140D02*
X0149645Y0034608D01*
X0149645Y0033874D02*
X0147443Y0033874D01*
X0148177Y0033140D01*
X0147810Y0032398D02*
X0147443Y0032031D01*
X0147443Y0031297D01*
X0153945Y0029802D02*
X0155413Y0029802D01*
X0156155Y0029802D02*
X0156155Y0027600D01*
X0157623Y0027600D01*
X0158365Y0027600D02*
X0159466Y0027600D01*
X0159833Y0027967D01*
X0159833Y0028334D01*
X0159466Y0028701D01*
X0158365Y0028701D01*
X0159466Y0028701D02*
X0159833Y0029068D01*
X0159833Y0029435D01*
X0159466Y0029802D01*
X0158365Y0029802D01*
X0158365Y0027600D01*
X0156889Y0028701D02*
X0156155Y0028701D01*
X0156155Y0029802D02*
X0157623Y0029802D01*
X0160575Y0029435D02*
X0160942Y0029802D01*
X0161676Y0029802D01*
X0162043Y0029435D01*
X0162043Y0029068D01*
X0160575Y0027600D01*
X0162043Y0027600D01*
X0162785Y0027967D02*
X0164253Y0029435D01*
X0164253Y0027967D01*
X0163886Y0027600D01*
X0163152Y0027600D01*
X0162785Y0027967D01*
X0162785Y0029435D01*
X0163152Y0029802D01*
X0163886Y0029802D01*
X0164253Y0029435D01*
X0164995Y0029068D02*
X0165728Y0029802D01*
X0165728Y0027600D01*
X0164995Y0027600D02*
X0166462Y0027600D01*
X0167204Y0027967D02*
X0167204Y0028701D01*
X0168305Y0028701D01*
X0168672Y0028334D01*
X0168672Y0027967D01*
X0168305Y0027600D01*
X0167571Y0027600D01*
X0167204Y0027967D01*
X0167204Y0028701D02*
X0167938Y0029435D01*
X0168672Y0029802D01*
X0169414Y0028701D02*
X0170882Y0028701D01*
X0171624Y0029435D02*
X0171624Y0027967D01*
X0171991Y0027600D01*
X0172725Y0027600D01*
X0173092Y0027967D01*
X0173092Y0029435D01*
X0172725Y0029802D01*
X0171991Y0029802D01*
X0171624Y0029435D01*
X0173834Y0029435D02*
X0173834Y0029068D01*
X0174201Y0028701D01*
X0174935Y0028701D01*
X0175302Y0028334D01*
X0175302Y0027967D01*
X0174935Y0027600D01*
X0174201Y0027600D01*
X0173834Y0027967D01*
X0176044Y0027600D02*
X0176044Y0029802D01*
X0175302Y0029435D02*
X0174935Y0029802D01*
X0174201Y0029802D01*
X0173834Y0029435D01*
X0176044Y0028701D02*
X0177512Y0028701D01*
X0177512Y0029802D02*
X0177512Y0027600D01*
X0178254Y0027600D02*
X0179722Y0027600D01*
X0180464Y0027600D02*
X0181198Y0027600D01*
X0180831Y0027600D02*
X0180831Y0029068D01*
X0180464Y0029068D01*
X0180831Y0029802D02*
X0180831Y0030169D01*
X0181937Y0028701D02*
X0181937Y0027967D01*
X0182304Y0027600D01*
X0183405Y0027600D01*
X0183405Y0029068D02*
X0182304Y0029068D01*
X0181937Y0028701D01*
X0186357Y0029068D02*
X0187091Y0029802D01*
X0187091Y0027600D01*
X0186357Y0027600D02*
X0187825Y0027600D01*
X0188567Y0027600D02*
X0188934Y0027600D01*
X0188934Y0027967D01*
X0188567Y0027967D01*
X0188567Y0027600D01*
X0189672Y0027600D02*
X0191139Y0029068D01*
X0191139Y0029435D01*
X0190772Y0029802D01*
X0190038Y0029802D01*
X0189672Y0029435D01*
X0189672Y0027600D02*
X0191139Y0027600D01*
X0178254Y0027600D02*
X0178254Y0029802D01*
X0178252Y0034800D02*
X0177886Y0035167D01*
X0177886Y0035901D01*
X0178252Y0036268D01*
X0178986Y0036268D01*
X0179353Y0035901D01*
X0179353Y0035534D01*
X0177886Y0035534D01*
X0178252Y0034800D02*
X0178986Y0034800D01*
X0180095Y0034800D02*
X0180095Y0036268D01*
X0180095Y0035534D02*
X0180829Y0036268D01*
X0181196Y0036268D01*
X0181937Y0035901D02*
X0182304Y0036268D01*
X0183405Y0036268D01*
X0183038Y0035534D02*
X0182304Y0035534D01*
X0181937Y0035901D01*
X0181937Y0034800D02*
X0183038Y0034800D01*
X0183405Y0035167D01*
X0183038Y0035534D01*
X0177144Y0036268D02*
X0176043Y0036268D01*
X0175676Y0035901D01*
X0175676Y0035167D01*
X0176043Y0034800D01*
X0177144Y0034800D01*
X0177144Y0037002D01*
X0174934Y0035901D02*
X0174934Y0034800D01*
X0174934Y0035901D02*
X0174567Y0036268D01*
X0173466Y0036268D01*
X0173466Y0034800D01*
X0172724Y0034800D02*
X0171623Y0034800D01*
X0171256Y0035167D01*
X0171623Y0035534D01*
X0172724Y0035534D01*
X0172724Y0035901D02*
X0172724Y0034800D01*
X0172724Y0035901D02*
X0172357Y0036268D01*
X0171623Y0036268D01*
X0170514Y0036635D02*
X0170147Y0037002D01*
X0169413Y0037002D01*
X0169046Y0036635D01*
X0169046Y0036268D01*
X0169413Y0035901D01*
X0170147Y0035901D01*
X0170514Y0035534D01*
X0170514Y0035167D01*
X0170147Y0034800D01*
X0169413Y0034800D01*
X0169046Y0035167D01*
X0168307Y0034800D02*
X0167940Y0035167D01*
X0167940Y0036635D01*
X0167573Y0036268D02*
X0168307Y0036268D01*
X0166832Y0036268D02*
X0166465Y0036268D01*
X0165731Y0035534D01*
X0165731Y0034800D02*
X0165731Y0036268D01*
X0164989Y0035901D02*
X0164989Y0035534D01*
X0163521Y0035534D01*
X0163521Y0035901D02*
X0163888Y0036268D01*
X0164622Y0036268D01*
X0164989Y0035901D01*
X0164622Y0034800D02*
X0163888Y0034800D01*
X0163521Y0035167D01*
X0163521Y0035901D01*
X0162779Y0035901D02*
X0162045Y0035901D01*
X0162779Y0035901D02*
X0162779Y0035167D01*
X0162412Y0034800D01*
X0161678Y0034800D01*
X0161311Y0035167D01*
X0161311Y0036635D01*
X0161678Y0037002D01*
X0162412Y0037002D01*
X0162779Y0036635D01*
X0158362Y0036268D02*
X0157628Y0037002D01*
X0158362Y0036268D02*
X0158362Y0035534D01*
X0157628Y0034800D01*
X0156886Y0034800D02*
X0155785Y0034800D01*
X0155418Y0035167D01*
X0155418Y0035901D01*
X0155785Y0036268D01*
X0156886Y0036268D01*
X0154679Y0037002D02*
X0153945Y0036268D01*
X0153945Y0035534D01*
X0154679Y0034800D01*
X0153945Y0029802D02*
X0153945Y0027600D01*
X0153945Y0028701D02*
X0154679Y0028701D01*
X0199693Y0034297D02*
X0200060Y0033930D01*
X0201528Y0033930D01*
X0201895Y0034297D01*
X0201895Y0035031D01*
X0201528Y0035398D01*
X0201528Y0036140D02*
X0201895Y0036507D01*
X0201895Y0037241D01*
X0201528Y0037608D01*
X0201161Y0037608D01*
X0200794Y0037241D01*
X0200794Y0036874D01*
X0200794Y0037241D02*
X0200427Y0037608D01*
X0200060Y0037608D01*
X0199693Y0037241D01*
X0199693Y0036507D01*
X0200060Y0036140D01*
X0200060Y0035398D02*
X0199693Y0035031D01*
X0199693Y0034297D01*
X0204695Y0017302D02*
X0204695Y0015100D01*
X0206163Y0015100D01*
X0206905Y0015100D02*
X0208373Y0015100D01*
X0209115Y0015100D02*
X0210216Y0015100D01*
X0210583Y0015467D01*
X0210583Y0016935D01*
X0210216Y0017302D01*
X0209115Y0017302D01*
X0209115Y0015100D01*
X0207639Y0016201D02*
X0206905Y0016201D01*
X0206905Y0017302D02*
X0206905Y0015100D01*
X0206905Y0017302D02*
X0208373Y0017302D01*
D12*
X0205315Y0025253D02*
X0201245Y0025253D01*
X0200795Y0008950D02*
X0200795Y0006050D01*
X0199295Y0007450D02*
X0202395Y0007450D01*
X0223845Y0006250D02*
X0223845Y0001250D01*
X0265095Y0001250D01*
X0265095Y0051250D01*
X0223845Y0051250D01*
X0223845Y0046250D01*
D13*
X0196345Y0038250D02*
X0195345Y0038250D01*
X0196345Y0038250D02*
X0196345Y0014250D01*
X0195345Y0014250D01*
X0057345Y0014250D02*
X0056345Y0014250D01*
X0056345Y0021250D01*
X0056485Y0021252D01*
X0056625Y0021258D01*
X0056765Y0021268D01*
X0056905Y0021281D01*
X0057044Y0021299D01*
X0057183Y0021321D01*
X0057320Y0021346D01*
X0057458Y0021375D01*
X0057594Y0021408D01*
X0057729Y0021445D01*
X0057863Y0021486D01*
X0057996Y0021531D01*
X0058128Y0021579D01*
X0058258Y0021631D01*
X0058387Y0021686D01*
X0058514Y0021745D01*
X0058640Y0021808D01*
X0058764Y0021874D01*
X0058885Y0021943D01*
X0059005Y0022016D01*
X0059123Y0022093D01*
X0059238Y0022172D01*
X0059352Y0022255D01*
X0059462Y0022341D01*
X0059571Y0022430D01*
X0059677Y0022522D01*
X0059780Y0022617D01*
X0059881Y0022714D01*
X0059978Y0022815D01*
X0060073Y0022918D01*
X0060165Y0023024D01*
X0060254Y0023133D01*
X0060340Y0023243D01*
X0060423Y0023357D01*
X0060502Y0023472D01*
X0060579Y0023590D01*
X0060652Y0023710D01*
X0060721Y0023831D01*
X0060787Y0023955D01*
X0060850Y0024081D01*
X0060909Y0024208D01*
X0060964Y0024337D01*
X0061016Y0024467D01*
X0061064Y0024599D01*
X0061109Y0024732D01*
X0061150Y0024866D01*
X0061187Y0025001D01*
X0061220Y0025137D01*
X0061249Y0025275D01*
X0061274Y0025412D01*
X0061296Y0025551D01*
X0061314Y0025690D01*
X0061327Y0025830D01*
X0061337Y0025970D01*
X0061343Y0026110D01*
X0061345Y0026250D01*
X0061343Y0026390D01*
X0061337Y0026530D01*
X0061327Y0026670D01*
X0061314Y0026810D01*
X0061296Y0026949D01*
X0061274Y0027088D01*
X0061249Y0027225D01*
X0061220Y0027363D01*
X0061187Y0027499D01*
X0061150Y0027634D01*
X0061109Y0027768D01*
X0061064Y0027901D01*
X0061016Y0028033D01*
X0060964Y0028163D01*
X0060909Y0028292D01*
X0060850Y0028419D01*
X0060787Y0028545D01*
X0060721Y0028669D01*
X0060652Y0028790D01*
X0060579Y0028910D01*
X0060502Y0029028D01*
X0060423Y0029143D01*
X0060340Y0029257D01*
X0060254Y0029367D01*
X0060165Y0029476D01*
X0060073Y0029582D01*
X0059978Y0029685D01*
X0059881Y0029786D01*
X0059780Y0029883D01*
X0059677Y0029978D01*
X0059571Y0030070D01*
X0059462Y0030159D01*
X0059352Y0030245D01*
X0059238Y0030328D01*
X0059123Y0030407D01*
X0059005Y0030484D01*
X0058885Y0030557D01*
X0058764Y0030626D01*
X0058640Y0030692D01*
X0058514Y0030755D01*
X0058387Y0030814D01*
X0058258Y0030869D01*
X0058128Y0030921D01*
X0057996Y0030969D01*
X0057863Y0031014D01*
X0057729Y0031055D01*
X0057594Y0031092D01*
X0057458Y0031125D01*
X0057320Y0031154D01*
X0057183Y0031179D01*
X0057044Y0031201D01*
X0056905Y0031219D01*
X0056765Y0031232D01*
X0056625Y0031242D01*
X0056485Y0031248D01*
X0056345Y0031250D01*
X0056345Y0038250D01*
X0057345Y0038250D01*
D14*
X0065795Y0029885D02*
X0065795Y0027483D01*
X0065795Y0028684D02*
X0062192Y0028684D01*
X0063393Y0027483D01*
X0062192Y0026202D02*
X0065195Y0026202D01*
X0065795Y0025602D01*
X0065795Y0024401D01*
X0065195Y0023800D01*
X0062192Y0023800D01*
X0102795Y0023303D02*
X0102795Y0019800D01*
X0102795Y0020968D02*
X0104547Y0020968D01*
X0105130Y0021551D01*
X0105130Y0022719D01*
X0104547Y0023303D01*
X0102795Y0023303D01*
X0106386Y0022135D02*
X0107554Y0023303D01*
X0107554Y0019800D01*
X0106386Y0019800D02*
X0108722Y0019800D01*
X0105130Y0019800D02*
X0103963Y0020968D01*
X0105080Y0029800D02*
X0103913Y0030968D01*
X0104497Y0030968D02*
X0102745Y0030968D01*
X0102745Y0029800D02*
X0102745Y0033303D01*
X0104497Y0033303D01*
X0105080Y0032719D01*
X0105080Y0031551D01*
X0104497Y0030968D01*
X0106336Y0029800D02*
X0108672Y0032135D01*
X0108672Y0032719D01*
X0108088Y0033303D01*
X0106920Y0033303D01*
X0106336Y0032719D01*
X0106336Y0029800D02*
X0108672Y0029800D01*
X0162795Y0023253D02*
X0162795Y0019750D01*
X0162795Y0020918D02*
X0164547Y0020918D01*
X0165130Y0021501D01*
X0165130Y0022669D01*
X0164547Y0023253D01*
X0162795Y0023253D01*
X0166386Y0022669D02*
X0166970Y0023253D01*
X0168138Y0023253D01*
X0168722Y0022669D01*
X0168722Y0022085D01*
X0168138Y0021501D01*
X0168722Y0020918D01*
X0168722Y0020334D01*
X0168138Y0019750D01*
X0166970Y0019750D01*
X0166386Y0020334D01*
X0165130Y0019750D02*
X0163963Y0020918D01*
X0167554Y0021501D02*
X0168138Y0021501D01*
X0247291Y0010089D02*
X0248826Y0008554D01*
X0247291Y0010089D02*
X0251895Y0010089D01*
X0251895Y0011623D02*
X0251895Y0008554D01*
X0251895Y0007019D02*
X0247291Y0007019D01*
X0248826Y0005485D01*
X0247291Y0003950D01*
X0251895Y0003950D01*
D15*
X0176345Y0018250D02*
X0176345Y0024250D01*
X0176343Y0024310D01*
X0176338Y0024371D01*
X0176329Y0024430D01*
X0176316Y0024489D01*
X0176300Y0024548D01*
X0176280Y0024605D01*
X0176257Y0024660D01*
X0176230Y0024715D01*
X0176201Y0024767D01*
X0176168Y0024818D01*
X0176132Y0024867D01*
X0176094Y0024913D01*
X0176052Y0024957D01*
X0176008Y0024999D01*
X0175962Y0025037D01*
X0175913Y0025073D01*
X0175862Y0025106D01*
X0175810Y0025135D01*
X0175755Y0025162D01*
X0175700Y0025185D01*
X0175643Y0025205D01*
X0175584Y0025221D01*
X0175525Y0025234D01*
X0175466Y0025243D01*
X0175405Y0025248D01*
X0175345Y0025250D01*
X0173845Y0025250D01*
X0173345Y0024750D01*
X0159345Y0024750D01*
X0158845Y0025250D01*
X0157345Y0025250D01*
X0157285Y0025248D01*
X0157224Y0025243D01*
X0157165Y0025234D01*
X0157106Y0025221D01*
X0157047Y0025205D01*
X0156990Y0025185D01*
X0156935Y0025162D01*
X0156880Y0025135D01*
X0156828Y0025106D01*
X0156777Y0025073D01*
X0156728Y0025037D01*
X0156682Y0024999D01*
X0156638Y0024957D01*
X0156596Y0024913D01*
X0156558Y0024867D01*
X0156522Y0024818D01*
X0156489Y0024767D01*
X0156460Y0024715D01*
X0156433Y0024660D01*
X0156410Y0024605D01*
X0156390Y0024548D01*
X0156374Y0024489D01*
X0156361Y0024430D01*
X0156352Y0024371D01*
X0156347Y0024310D01*
X0156345Y0024250D01*
X0156345Y0018250D01*
X0156347Y0018190D01*
X0156352Y0018129D01*
X0156361Y0018070D01*
X0156374Y0018011D01*
X0156390Y0017952D01*
X0156410Y0017895D01*
X0156433Y0017840D01*
X0156460Y0017785D01*
X0156489Y0017733D01*
X0156522Y0017682D01*
X0156558Y0017633D01*
X0156596Y0017587D01*
X0156638Y0017543D01*
X0156682Y0017501D01*
X0156728Y0017463D01*
X0156777Y0017427D01*
X0156828Y0017394D01*
X0156880Y0017365D01*
X0156935Y0017338D01*
X0156990Y0017315D01*
X0157047Y0017295D01*
X0157106Y0017279D01*
X0157165Y0017266D01*
X0157224Y0017257D01*
X0157285Y0017252D01*
X0157345Y0017250D01*
X0158845Y0017250D01*
X0159345Y0017750D01*
X0173345Y0017750D01*
X0173845Y0017250D01*
X0175345Y0017250D01*
X0175405Y0017252D01*
X0175466Y0017257D01*
X0175525Y0017266D01*
X0175584Y0017279D01*
X0175643Y0017295D01*
X0175700Y0017315D01*
X0175755Y0017338D01*
X0175810Y0017365D01*
X0175862Y0017394D01*
X0175913Y0017427D01*
X0175962Y0017463D01*
X0176008Y0017501D01*
X0176052Y0017543D01*
X0176094Y0017587D01*
X0176132Y0017633D01*
X0176168Y0017682D01*
X0176201Y0017733D01*
X0176230Y0017785D01*
X0176257Y0017840D01*
X0176280Y0017895D01*
X0176300Y0017952D01*
X0176316Y0018011D01*
X0176329Y0018070D01*
X0176338Y0018129D01*
X0176343Y0018190D01*
X0176345Y0018250D01*
X0146345Y0017750D02*
X0146345Y0034750D01*
X0146343Y0034810D01*
X0146338Y0034871D01*
X0146329Y0034930D01*
X0146316Y0034989D01*
X0146300Y0035048D01*
X0146280Y0035105D01*
X0146257Y0035160D01*
X0146230Y0035215D01*
X0146201Y0035267D01*
X0146168Y0035318D01*
X0146132Y0035367D01*
X0146094Y0035413D01*
X0146052Y0035457D01*
X0146008Y0035499D01*
X0145962Y0035537D01*
X0145913Y0035573D01*
X0145862Y0035606D01*
X0145810Y0035635D01*
X0145755Y0035662D01*
X0145700Y0035685D01*
X0145643Y0035705D01*
X0145584Y0035721D01*
X0145525Y0035734D01*
X0145466Y0035743D01*
X0145405Y0035748D01*
X0145345Y0035750D01*
X0137345Y0035750D01*
X0137285Y0035748D01*
X0137224Y0035743D01*
X0137165Y0035734D01*
X0137106Y0035721D01*
X0137047Y0035705D01*
X0136990Y0035685D01*
X0136935Y0035662D01*
X0136880Y0035635D01*
X0136828Y0035606D01*
X0136777Y0035573D01*
X0136728Y0035537D01*
X0136682Y0035499D01*
X0136638Y0035457D01*
X0136596Y0035413D01*
X0136558Y0035367D01*
X0136522Y0035318D01*
X0136489Y0035267D01*
X0136460Y0035215D01*
X0136433Y0035160D01*
X0136410Y0035105D01*
X0136390Y0035048D01*
X0136374Y0034989D01*
X0136361Y0034930D01*
X0136352Y0034871D01*
X0136347Y0034810D01*
X0136345Y0034750D01*
X0136345Y0017750D01*
X0136345Y0034750D01*
X0136343Y0034810D01*
X0136338Y0034871D01*
X0136329Y0034930D01*
X0136316Y0034989D01*
X0136300Y0035048D01*
X0136280Y0035105D01*
X0136257Y0035160D01*
X0136230Y0035215D01*
X0136201Y0035267D01*
X0136168Y0035318D01*
X0136132Y0035367D01*
X0136094Y0035413D01*
X0136052Y0035457D01*
X0136008Y0035499D01*
X0135962Y0035537D01*
X0135913Y0035573D01*
X0135862Y0035606D01*
X0135810Y0035635D01*
X0135755Y0035662D01*
X0135700Y0035685D01*
X0135643Y0035705D01*
X0135584Y0035721D01*
X0135525Y0035734D01*
X0135466Y0035743D01*
X0135405Y0035748D01*
X0135345Y0035750D01*
X0127345Y0035750D01*
X0127285Y0035748D01*
X0127224Y0035743D01*
X0127165Y0035734D01*
X0127106Y0035721D01*
X0127047Y0035705D01*
X0126990Y0035685D01*
X0126935Y0035662D01*
X0126880Y0035635D01*
X0126828Y0035606D01*
X0126777Y0035573D01*
X0126728Y0035537D01*
X0126682Y0035499D01*
X0126638Y0035457D01*
X0126596Y0035413D01*
X0126558Y0035367D01*
X0126522Y0035318D01*
X0126489Y0035267D01*
X0126460Y0035215D01*
X0126433Y0035160D01*
X0126410Y0035105D01*
X0126390Y0035048D01*
X0126374Y0034989D01*
X0126361Y0034930D01*
X0126352Y0034871D01*
X0126347Y0034810D01*
X0126345Y0034750D01*
X0126345Y0017750D01*
X0126347Y0017690D01*
X0126352Y0017629D01*
X0126361Y0017570D01*
X0126374Y0017511D01*
X0126390Y0017452D01*
X0126410Y0017395D01*
X0126433Y0017340D01*
X0126460Y0017285D01*
X0126489Y0017233D01*
X0126522Y0017182D01*
X0126558Y0017133D01*
X0126596Y0017087D01*
X0126638Y0017043D01*
X0126682Y0017001D01*
X0126728Y0016963D01*
X0126777Y0016927D01*
X0126828Y0016894D01*
X0126880Y0016865D01*
X0126935Y0016838D01*
X0126990Y0016815D01*
X0127047Y0016795D01*
X0127106Y0016779D01*
X0127165Y0016766D01*
X0127224Y0016757D01*
X0127285Y0016752D01*
X0127345Y0016750D01*
X0135345Y0016750D01*
X0135405Y0016752D01*
X0135466Y0016757D01*
X0135525Y0016766D01*
X0135584Y0016779D01*
X0135643Y0016795D01*
X0135700Y0016815D01*
X0135755Y0016838D01*
X0135810Y0016865D01*
X0135862Y0016894D01*
X0135913Y0016927D01*
X0135962Y0016963D01*
X0136008Y0017001D01*
X0136052Y0017043D01*
X0136094Y0017087D01*
X0136132Y0017133D01*
X0136168Y0017182D01*
X0136201Y0017233D01*
X0136230Y0017285D01*
X0136257Y0017340D01*
X0136280Y0017395D01*
X0136300Y0017452D01*
X0136316Y0017511D01*
X0136329Y0017570D01*
X0136338Y0017629D01*
X0136343Y0017690D01*
X0136345Y0017750D01*
X0136347Y0017690D01*
X0136352Y0017629D01*
X0136361Y0017570D01*
X0136374Y0017511D01*
X0136390Y0017452D01*
X0136410Y0017395D01*
X0136433Y0017340D01*
X0136460Y0017285D01*
X0136489Y0017233D01*
X0136522Y0017182D01*
X0136558Y0017133D01*
X0136596Y0017087D01*
X0136638Y0017043D01*
X0136682Y0017001D01*
X0136728Y0016963D01*
X0136777Y0016927D01*
X0136828Y0016894D01*
X0136880Y0016865D01*
X0136935Y0016838D01*
X0136990Y0016815D01*
X0137047Y0016795D01*
X0137106Y0016779D01*
X0137165Y0016766D01*
X0137224Y0016757D01*
X0137285Y0016752D01*
X0137345Y0016750D01*
X0145345Y0016750D01*
X0145405Y0016752D01*
X0145466Y0016757D01*
X0145525Y0016766D01*
X0145584Y0016779D01*
X0145643Y0016795D01*
X0145700Y0016815D01*
X0145755Y0016838D01*
X0145810Y0016865D01*
X0145862Y0016894D01*
X0145913Y0016927D01*
X0145962Y0016963D01*
X0146008Y0017001D01*
X0146052Y0017043D01*
X0146094Y0017087D01*
X0146132Y0017133D01*
X0146168Y0017182D01*
X0146201Y0017233D01*
X0146230Y0017285D01*
X0146257Y0017340D01*
X0146280Y0017395D01*
X0146300Y0017452D01*
X0146316Y0017511D01*
X0146329Y0017570D01*
X0146338Y0017629D01*
X0146343Y0017690D01*
X0146345Y0017750D01*
X0141345Y0024750D02*
X0141345Y0025250D01*
X0141345Y0027250D02*
X0141345Y0027750D01*
X0131345Y0027750D02*
X0131345Y0027250D01*
X0131345Y0025250D02*
X0131345Y0024750D01*
X0116345Y0024250D02*
X0116345Y0018250D01*
X0116343Y0018190D01*
X0116338Y0018129D01*
X0116329Y0018070D01*
X0116316Y0018011D01*
X0116300Y0017952D01*
X0116280Y0017895D01*
X0116257Y0017840D01*
X0116230Y0017785D01*
X0116201Y0017733D01*
X0116168Y0017682D01*
X0116132Y0017633D01*
X0116094Y0017587D01*
X0116052Y0017543D01*
X0116008Y0017501D01*
X0115962Y0017463D01*
X0115913Y0017427D01*
X0115862Y0017394D01*
X0115810Y0017365D01*
X0115755Y0017338D01*
X0115700Y0017315D01*
X0115643Y0017295D01*
X0115584Y0017279D01*
X0115525Y0017266D01*
X0115466Y0017257D01*
X0115405Y0017252D01*
X0115345Y0017250D01*
X0113845Y0017250D01*
X0113345Y0017750D01*
X0099345Y0017750D01*
X0098845Y0017250D01*
X0097345Y0017250D01*
X0097285Y0017252D01*
X0097224Y0017257D01*
X0097165Y0017266D01*
X0097106Y0017279D01*
X0097047Y0017295D01*
X0096990Y0017315D01*
X0096935Y0017338D01*
X0096880Y0017365D01*
X0096828Y0017394D01*
X0096777Y0017427D01*
X0096728Y0017463D01*
X0096682Y0017501D01*
X0096638Y0017543D01*
X0096596Y0017587D01*
X0096558Y0017633D01*
X0096522Y0017682D01*
X0096489Y0017733D01*
X0096460Y0017785D01*
X0096433Y0017840D01*
X0096410Y0017895D01*
X0096390Y0017952D01*
X0096374Y0018011D01*
X0096361Y0018070D01*
X0096352Y0018129D01*
X0096347Y0018190D01*
X0096345Y0018250D01*
X0096345Y0024250D01*
X0096347Y0024310D01*
X0096352Y0024371D01*
X0096361Y0024430D01*
X0096374Y0024489D01*
X0096390Y0024548D01*
X0096410Y0024605D01*
X0096433Y0024660D01*
X0096460Y0024715D01*
X0096489Y0024767D01*
X0096522Y0024818D01*
X0096558Y0024867D01*
X0096596Y0024913D01*
X0096638Y0024957D01*
X0096682Y0024999D01*
X0096728Y0025037D01*
X0096777Y0025073D01*
X0096828Y0025106D01*
X0096880Y0025135D01*
X0096935Y0025162D01*
X0096990Y0025185D01*
X0097047Y0025205D01*
X0097106Y0025221D01*
X0097165Y0025234D01*
X0097224Y0025243D01*
X0097285Y0025248D01*
X0097345Y0025250D01*
X0098845Y0025250D01*
X0099345Y0024750D01*
X0113345Y0024750D01*
X0113845Y0025250D01*
X0115345Y0025250D01*
X0115405Y0025248D01*
X0115466Y0025243D01*
X0115525Y0025234D01*
X0115584Y0025221D01*
X0115643Y0025205D01*
X0115700Y0025185D01*
X0115755Y0025162D01*
X0115810Y0025135D01*
X0115862Y0025106D01*
X0115913Y0025073D01*
X0115962Y0025037D01*
X0116008Y0024999D01*
X0116052Y0024957D01*
X0116094Y0024913D01*
X0116132Y0024867D01*
X0116168Y0024818D01*
X0116201Y0024767D01*
X0116230Y0024715D01*
X0116257Y0024660D01*
X0116280Y0024605D01*
X0116300Y0024548D01*
X0116316Y0024489D01*
X0116329Y0024430D01*
X0116338Y0024371D01*
X0116343Y0024310D01*
X0116345Y0024250D01*
X0115345Y0027250D02*
X0113845Y0027250D01*
X0113345Y0027750D01*
X0099345Y0027750D01*
X0098845Y0027250D01*
X0097345Y0027250D01*
X0097285Y0027252D01*
X0097224Y0027257D01*
X0097165Y0027266D01*
X0097106Y0027279D01*
X0097047Y0027295D01*
X0096990Y0027315D01*
X0096935Y0027338D01*
X0096880Y0027365D01*
X0096828Y0027394D01*
X0096777Y0027427D01*
X0096728Y0027463D01*
X0096682Y0027501D01*
X0096638Y0027543D01*
X0096596Y0027587D01*
X0096558Y0027633D01*
X0096522Y0027682D01*
X0096489Y0027733D01*
X0096460Y0027785D01*
X0096433Y0027840D01*
X0096410Y0027895D01*
X0096390Y0027952D01*
X0096374Y0028011D01*
X0096361Y0028070D01*
X0096352Y0028129D01*
X0096347Y0028190D01*
X0096345Y0028250D01*
X0096345Y0034250D01*
X0096347Y0034310D01*
X0096352Y0034371D01*
X0096361Y0034430D01*
X0096374Y0034489D01*
X0096390Y0034548D01*
X0096410Y0034605D01*
X0096433Y0034660D01*
X0096460Y0034715D01*
X0096489Y0034767D01*
X0096522Y0034818D01*
X0096558Y0034867D01*
X0096596Y0034913D01*
X0096638Y0034957D01*
X0096682Y0034999D01*
X0096728Y0035037D01*
X0096777Y0035073D01*
X0096828Y0035106D01*
X0096880Y0035135D01*
X0096935Y0035162D01*
X0096990Y0035185D01*
X0097047Y0035205D01*
X0097106Y0035221D01*
X0097165Y0035234D01*
X0097224Y0035243D01*
X0097285Y0035248D01*
X0097345Y0035250D01*
X0098845Y0035250D01*
X0099345Y0034750D01*
X0113345Y0034750D01*
X0113845Y0035250D01*
X0115345Y0035250D01*
X0115405Y0035248D01*
X0115466Y0035243D01*
X0115525Y0035234D01*
X0115584Y0035221D01*
X0115643Y0035205D01*
X0115700Y0035185D01*
X0115755Y0035162D01*
X0115810Y0035135D01*
X0115862Y0035106D01*
X0115913Y0035073D01*
X0115962Y0035037D01*
X0116008Y0034999D01*
X0116052Y0034957D01*
X0116094Y0034913D01*
X0116132Y0034867D01*
X0116168Y0034818D01*
X0116201Y0034767D01*
X0116230Y0034715D01*
X0116257Y0034660D01*
X0116280Y0034605D01*
X0116300Y0034548D01*
X0116316Y0034489D01*
X0116329Y0034430D01*
X0116338Y0034371D01*
X0116343Y0034310D01*
X0116345Y0034250D01*
X0116345Y0028250D01*
X0116343Y0028190D01*
X0116338Y0028129D01*
X0116329Y0028070D01*
X0116316Y0028011D01*
X0116300Y0027952D01*
X0116280Y0027895D01*
X0116257Y0027840D01*
X0116230Y0027785D01*
X0116201Y0027733D01*
X0116168Y0027682D01*
X0116132Y0027633D01*
X0116094Y0027587D01*
X0116052Y0027543D01*
X0116008Y0027501D01*
X0115962Y0027463D01*
X0115913Y0027427D01*
X0115862Y0027394D01*
X0115810Y0027365D01*
X0115755Y0027338D01*
X0115700Y0027315D01*
X0115643Y0027295D01*
X0115584Y0027279D01*
X0115525Y0027266D01*
X0115466Y0027257D01*
X0115405Y0027252D01*
X0115345Y0027250D01*
X0053845Y0028750D02*
X0051345Y0026250D01*
X0046345Y0026250D01*
X0043845Y0028750D01*
X0043845Y0033750D01*
X0046345Y0036250D01*
X0043845Y0038750D01*
X0043845Y0043750D01*
X0046345Y0046250D01*
X0051345Y0046250D01*
X0053845Y0043750D01*
X0053845Y0038750D01*
X0051345Y0036250D01*
X0053845Y0033750D01*
X0053845Y0028750D01*
X0051345Y0026250D02*
X0053845Y0023750D01*
X0053845Y0018750D01*
X0051345Y0016250D01*
X0053845Y0013750D01*
X0053845Y0008750D01*
X0051345Y0006250D01*
X0046345Y0006250D01*
X0043845Y0008750D01*
X0043845Y0013750D01*
X0046345Y0016250D01*
X0043845Y0018750D01*
X0043845Y0023750D01*
X0046345Y0026250D01*
X0046345Y0016250D02*
X0051345Y0016250D01*
X0051345Y0036250D02*
X0046345Y0036250D01*
X0197595Y0036250D02*
X0197598Y0036495D01*
X0197607Y0036741D01*
X0197622Y0036986D01*
X0197643Y0037230D01*
X0197670Y0037474D01*
X0197703Y0037717D01*
X0197742Y0037960D01*
X0197787Y0038201D01*
X0197838Y0038441D01*
X0197895Y0038680D01*
X0197957Y0038917D01*
X0198026Y0039153D01*
X0198100Y0039387D01*
X0198180Y0039619D01*
X0198265Y0039849D01*
X0198356Y0040077D01*
X0198453Y0040302D01*
X0198555Y0040526D01*
X0198663Y0040746D01*
X0198776Y0040964D01*
X0198894Y0041179D01*
X0199018Y0041391D01*
X0199146Y0041600D01*
X0199280Y0041806D01*
X0199419Y0042008D01*
X0199563Y0042207D01*
X0199712Y0042402D01*
X0199865Y0042594D01*
X0200023Y0042782D01*
X0200185Y0042966D01*
X0200353Y0043145D01*
X0200524Y0043321D01*
X0200700Y0043492D01*
X0200879Y0043660D01*
X0201063Y0043822D01*
X0201251Y0043980D01*
X0201443Y0044133D01*
X0201638Y0044282D01*
X0201837Y0044426D01*
X0202039Y0044565D01*
X0202245Y0044699D01*
X0202454Y0044827D01*
X0202666Y0044951D01*
X0202881Y0045069D01*
X0203099Y0045182D01*
X0203319Y0045290D01*
X0203543Y0045392D01*
X0203768Y0045489D01*
X0203996Y0045580D01*
X0204226Y0045665D01*
X0204458Y0045745D01*
X0204692Y0045819D01*
X0204928Y0045888D01*
X0205165Y0045950D01*
X0205404Y0046007D01*
X0205644Y0046058D01*
X0205885Y0046103D01*
X0206128Y0046142D01*
X0206371Y0046175D01*
X0206615Y0046202D01*
X0206859Y0046223D01*
X0207104Y0046238D01*
X0207350Y0046247D01*
X0207595Y0046250D01*
X0207840Y0046247D01*
X0208086Y0046238D01*
X0208331Y0046223D01*
X0208575Y0046202D01*
X0208819Y0046175D01*
X0209062Y0046142D01*
X0209305Y0046103D01*
X0209546Y0046058D01*
X0209786Y0046007D01*
X0210025Y0045950D01*
X0210262Y0045888D01*
X0210498Y0045819D01*
X0210732Y0045745D01*
X0210964Y0045665D01*
X0211194Y0045580D01*
X0211422Y0045489D01*
X0211647Y0045392D01*
X0211871Y0045290D01*
X0212091Y0045182D01*
X0212309Y0045069D01*
X0212524Y0044951D01*
X0212736Y0044827D01*
X0212945Y0044699D01*
X0213151Y0044565D01*
X0213353Y0044426D01*
X0213552Y0044282D01*
X0213747Y0044133D01*
X0213939Y0043980D01*
X0214127Y0043822D01*
X0214311Y0043660D01*
X0214490Y0043492D01*
X0214666Y0043321D01*
X0214837Y0043145D01*
X0215005Y0042966D01*
X0215167Y0042782D01*
X0215325Y0042594D01*
X0215478Y0042402D01*
X0215627Y0042207D01*
X0215771Y0042008D01*
X0215910Y0041806D01*
X0216044Y0041600D01*
X0216172Y0041391D01*
X0216296Y0041179D01*
X0216414Y0040964D01*
X0216527Y0040746D01*
X0216635Y0040526D01*
X0216737Y0040302D01*
X0216834Y0040077D01*
X0216925Y0039849D01*
X0217010Y0039619D01*
X0217090Y0039387D01*
X0217164Y0039153D01*
X0217233Y0038917D01*
X0217295Y0038680D01*
X0217352Y0038441D01*
X0217403Y0038201D01*
X0217448Y0037960D01*
X0217487Y0037717D01*
X0217520Y0037474D01*
X0217547Y0037230D01*
X0217568Y0036986D01*
X0217583Y0036741D01*
X0217592Y0036495D01*
X0217595Y0036250D01*
X0217592Y0036005D01*
X0217583Y0035759D01*
X0217568Y0035514D01*
X0217547Y0035270D01*
X0217520Y0035026D01*
X0217487Y0034783D01*
X0217448Y0034540D01*
X0217403Y0034299D01*
X0217352Y0034059D01*
X0217295Y0033820D01*
X0217233Y0033583D01*
X0217164Y0033347D01*
X0217090Y0033113D01*
X0217010Y0032881D01*
X0216925Y0032651D01*
X0216834Y0032423D01*
X0216737Y0032198D01*
X0216635Y0031974D01*
X0216527Y0031754D01*
X0216414Y0031536D01*
X0216296Y0031321D01*
X0216172Y0031109D01*
X0216044Y0030900D01*
X0215910Y0030694D01*
X0215771Y0030492D01*
X0215627Y0030293D01*
X0215478Y0030098D01*
X0215325Y0029906D01*
X0215167Y0029718D01*
X0215005Y0029534D01*
X0214837Y0029355D01*
X0214666Y0029179D01*
X0214490Y0029008D01*
X0214311Y0028840D01*
X0214127Y0028678D01*
X0213939Y0028520D01*
X0213747Y0028367D01*
X0213552Y0028218D01*
X0213353Y0028074D01*
X0213151Y0027935D01*
X0212945Y0027801D01*
X0212736Y0027673D01*
X0212524Y0027549D01*
X0212309Y0027431D01*
X0212091Y0027318D01*
X0211871Y0027210D01*
X0211647Y0027108D01*
X0211422Y0027011D01*
X0211194Y0026920D01*
X0210964Y0026835D01*
X0210732Y0026755D01*
X0210498Y0026681D01*
X0210262Y0026612D01*
X0210025Y0026550D01*
X0209786Y0026493D01*
X0209546Y0026442D01*
X0209305Y0026397D01*
X0209062Y0026358D01*
X0208819Y0026325D01*
X0208575Y0026298D01*
X0208331Y0026277D01*
X0208086Y0026262D01*
X0207840Y0026253D01*
X0207595Y0026250D01*
X0207350Y0026253D01*
X0207104Y0026262D01*
X0206859Y0026277D01*
X0206615Y0026298D01*
X0206371Y0026325D01*
X0206128Y0026358D01*
X0205885Y0026397D01*
X0205644Y0026442D01*
X0205404Y0026493D01*
X0205165Y0026550D01*
X0204928Y0026612D01*
X0204692Y0026681D01*
X0204458Y0026755D01*
X0204226Y0026835D01*
X0203996Y0026920D01*
X0203768Y0027011D01*
X0203543Y0027108D01*
X0203319Y0027210D01*
X0203099Y0027318D01*
X0202881Y0027431D01*
X0202666Y0027549D01*
X0202454Y0027673D01*
X0202245Y0027801D01*
X0202039Y0027935D01*
X0201837Y0028074D01*
X0201638Y0028218D01*
X0201443Y0028367D01*
X0201251Y0028520D01*
X0201063Y0028678D01*
X0200879Y0028840D01*
X0200700Y0029008D01*
X0200524Y0029179D01*
X0200353Y0029355D01*
X0200185Y0029534D01*
X0200023Y0029718D01*
X0199865Y0029906D01*
X0199712Y0030098D01*
X0199563Y0030293D01*
X0199419Y0030492D01*
X0199280Y0030694D01*
X0199146Y0030900D01*
X0199018Y0031109D01*
X0198894Y0031321D01*
X0198776Y0031536D01*
X0198663Y0031754D01*
X0198555Y0031974D01*
X0198453Y0032198D01*
X0198356Y0032423D01*
X0198265Y0032651D01*
X0198180Y0032881D01*
X0198100Y0033113D01*
X0198026Y0033347D01*
X0197957Y0033583D01*
X0197895Y0033820D01*
X0197838Y0034059D01*
X0197787Y0034299D01*
X0197742Y0034540D01*
X0197703Y0034783D01*
X0197670Y0035026D01*
X0197643Y0035270D01*
X0197622Y0035514D01*
X0197607Y0035759D01*
X0197598Y0036005D01*
X0197595Y0036250D01*
X0212595Y0040750D02*
X0212595Y0041750D01*
X0213595Y0041750D01*
X0212595Y0041750D02*
X0211595Y0041750D01*
X0212595Y0041750D02*
X0212595Y0042750D01*
D16*
X0144345Y0027250D02*
X0141345Y0027250D01*
X0138345Y0027250D01*
X0134345Y0027250D02*
X0131345Y0027250D01*
X0128345Y0027250D01*
X0128345Y0025250D02*
X0131345Y0025250D01*
X0134345Y0025250D01*
X0138345Y0025250D02*
X0141345Y0025250D01*
X0144345Y0025250D01*
D17*
X0155595Y0021250D03*
X0177095Y0021250D03*
X0117095Y0021250D03*
X0095595Y0021250D03*
X0095595Y0031250D03*
X0117095Y0031250D03*
D18*
X0211467Y0011320D02*
X0211136Y0011746D01*
X0211136Y0011745D02*
X0211251Y0011838D01*
X0211363Y0011933D01*
X0211473Y0012031D01*
X0211580Y0012132D01*
X0211684Y0012236D01*
X0211786Y0012343D01*
X0211885Y0012452D01*
X0211981Y0012563D01*
X0212075Y0012677D01*
X0212165Y0012793D01*
X0212252Y0012912D01*
X0212336Y0013033D01*
X0212417Y0013155D01*
X0212495Y0013280D01*
X0212570Y0013407D01*
X0212641Y0013536D01*
X0212710Y0013666D01*
X0212774Y0013799D01*
X0212835Y0013933D01*
X0212893Y0014068D01*
X0212948Y0014205D01*
X0212998Y0014343D01*
X0213046Y0014483D01*
X0213089Y0014623D01*
X0213129Y0014765D01*
X0213166Y0014907D01*
X0213198Y0015051D01*
X0213227Y0015195D01*
X0213252Y0015340D01*
X0213274Y0015486D01*
X0213292Y0015632D01*
X0213306Y0015779D01*
X0213316Y0015926D01*
X0213322Y0016073D01*
X0213325Y0016220D01*
X0213864Y0016220D01*
X0213865Y0016220D01*
X0213862Y0016063D01*
X0213856Y0015907D01*
X0213845Y0015750D01*
X0213831Y0015594D01*
X0213812Y0015438D01*
X0213790Y0015283D01*
X0213764Y0015129D01*
X0213734Y0014975D01*
X0213700Y0014822D01*
X0213662Y0014669D01*
X0213621Y0014518D01*
X0213576Y0014368D01*
X0213527Y0014219D01*
X0213474Y0014071D01*
X0213418Y0013925D01*
X0213358Y0013780D01*
X0213294Y0013637D01*
X0213227Y0013495D01*
X0213157Y0013355D01*
X0213083Y0013217D01*
X0213005Y0013081D01*
X0212924Y0012946D01*
X0212840Y0012814D01*
X0212752Y0012684D01*
X0212662Y0012556D01*
X0212568Y0012431D01*
X0212471Y0012308D01*
X0212370Y0012187D01*
X0212267Y0012069D01*
X0212161Y0011953D01*
X0212053Y0011841D01*
X0211941Y0011730D01*
X0211827Y0011623D01*
X0211710Y0011519D01*
X0211590Y0011417D01*
X0211468Y0011319D01*
X0211433Y0011363D01*
X0211554Y0011461D01*
X0211673Y0011561D01*
X0211789Y0011665D01*
X0211902Y0011771D01*
X0212013Y0011880D01*
X0212121Y0011992D01*
X0212226Y0012106D01*
X0212328Y0012223D01*
X0212427Y0012343D01*
X0212523Y0012465D01*
X0212616Y0012589D01*
X0212706Y0012716D01*
X0212793Y0012845D01*
X0212877Y0012976D01*
X0212957Y0013109D01*
X0213034Y0013244D01*
X0213107Y0013381D01*
X0213177Y0013520D01*
X0213244Y0013660D01*
X0213307Y0013802D01*
X0213366Y0013946D01*
X0213422Y0014091D01*
X0213474Y0014237D01*
X0213522Y0014385D01*
X0213567Y0014533D01*
X0213608Y0014683D01*
X0213646Y0014834D01*
X0213679Y0014986D01*
X0213709Y0015138D01*
X0213735Y0015292D01*
X0213757Y0015445D01*
X0213775Y0015600D01*
X0213789Y0015754D01*
X0213800Y0015909D01*
X0213806Y0016065D01*
X0213809Y0016220D01*
X0213753Y0016220D01*
X0213750Y0016066D01*
X0213744Y0015912D01*
X0213733Y0015759D01*
X0213719Y0015605D01*
X0213701Y0015452D01*
X0213679Y0015300D01*
X0213654Y0015148D01*
X0213624Y0014997D01*
X0213591Y0014847D01*
X0213554Y0014697D01*
X0213513Y0014549D01*
X0213469Y0014401D01*
X0213421Y0014255D01*
X0213369Y0014110D01*
X0213314Y0013966D01*
X0213255Y0013824D01*
X0213193Y0013683D01*
X0213127Y0013544D01*
X0213057Y0013407D01*
X0212985Y0013271D01*
X0212908Y0013137D01*
X0212829Y0013006D01*
X0212746Y0012876D01*
X0212660Y0012748D01*
X0212571Y0012623D01*
X0212479Y0012499D01*
X0212384Y0012378D01*
X0212285Y0012260D01*
X0212184Y0012144D01*
X0212080Y0012030D01*
X0211973Y0011920D01*
X0211864Y0011811D01*
X0211751Y0011706D01*
X0211636Y0011604D01*
X0211519Y0011504D01*
X0211399Y0011408D01*
X0211365Y0011452D01*
X0211483Y0011547D01*
X0211600Y0011646D01*
X0211714Y0011748D01*
X0211825Y0011852D01*
X0211934Y0011959D01*
X0212039Y0012069D01*
X0212143Y0012181D01*
X0212243Y0012296D01*
X0212340Y0012414D01*
X0212435Y0012533D01*
X0212526Y0012656D01*
X0212614Y0012780D01*
X0212699Y0012907D01*
X0212781Y0013035D01*
X0212860Y0013166D01*
X0212936Y0013298D01*
X0213008Y0013433D01*
X0213076Y0013569D01*
X0213142Y0013707D01*
X0213204Y0013846D01*
X0213262Y0013987D01*
X0213317Y0014130D01*
X0213368Y0014273D01*
X0213416Y0014418D01*
X0213460Y0014564D01*
X0213500Y0014711D01*
X0213536Y0014859D01*
X0213569Y0015008D01*
X0213599Y0015158D01*
X0213624Y0015308D01*
X0213646Y0015459D01*
X0213663Y0015611D01*
X0213678Y0015763D01*
X0213688Y0015915D01*
X0213694Y0016067D01*
X0213697Y0016220D01*
X0213641Y0016220D01*
X0213638Y0016069D01*
X0213632Y0015918D01*
X0213622Y0015767D01*
X0213608Y0015617D01*
X0213590Y0015467D01*
X0213569Y0015317D01*
X0213543Y0015168D01*
X0213514Y0015020D01*
X0213482Y0014872D01*
X0213446Y0014725D01*
X0213406Y0014580D01*
X0213362Y0014435D01*
X0213315Y0014291D01*
X0213264Y0014149D01*
X0213210Y0014008D01*
X0213152Y0013868D01*
X0213091Y0013730D01*
X0213026Y0013594D01*
X0212958Y0013459D01*
X0212887Y0013325D01*
X0212812Y0013194D01*
X0212734Y0013065D01*
X0212653Y0012937D01*
X0212568Y0012812D01*
X0212481Y0012689D01*
X0212390Y0012568D01*
X0212297Y0012449D01*
X0212200Y0012333D01*
X0212101Y0012219D01*
X0211999Y0012107D01*
X0211894Y0011999D01*
X0211786Y0011893D01*
X0211676Y0011789D01*
X0211563Y0011689D01*
X0211448Y0011591D01*
X0211330Y0011496D01*
X0211296Y0011540D01*
X0211416Y0011637D01*
X0211533Y0011737D01*
X0211648Y0011839D01*
X0211760Y0011945D01*
X0211869Y0012053D01*
X0211976Y0012165D01*
X0212079Y0012279D01*
X0212180Y0012395D01*
X0212277Y0012514D01*
X0212372Y0012636D01*
X0212463Y0012760D01*
X0212551Y0012886D01*
X0212636Y0013015D01*
X0212718Y0013145D01*
X0212796Y0013278D01*
X0212870Y0013413D01*
X0212942Y0013549D01*
X0213009Y0013688D01*
X0213073Y0013828D01*
X0213134Y0013969D01*
X0213191Y0014112D01*
X0213244Y0014257D01*
X0213293Y0014403D01*
X0213339Y0014550D01*
X0213380Y0014698D01*
X0213418Y0014847D01*
X0213453Y0014997D01*
X0213483Y0015148D01*
X0213509Y0015300D01*
X0213532Y0015452D01*
X0213550Y0015605D01*
X0213565Y0015759D01*
X0213575Y0015912D01*
X0213582Y0016066D01*
X0213585Y0016220D01*
X0213529Y0016220D01*
X0213526Y0016067D01*
X0213520Y0015915D01*
X0213509Y0015763D01*
X0213495Y0015611D01*
X0213476Y0015460D01*
X0213454Y0015309D01*
X0213428Y0015158D01*
X0213398Y0015009D01*
X0213364Y0014860D01*
X0213326Y0014712D01*
X0213285Y0014566D01*
X0213240Y0014420D01*
X0213191Y0014275D01*
X0213138Y0014132D01*
X0213082Y0013990D01*
X0213022Y0013850D01*
X0212959Y0013711D01*
X0212892Y0013574D01*
X0212821Y0013439D01*
X0212747Y0013306D01*
X0212670Y0013174D01*
X0212589Y0013045D01*
X0212505Y0012918D01*
X0212418Y0012793D01*
X0212327Y0012670D01*
X0212234Y0012549D01*
X0212137Y0012431D01*
X0212037Y0012316D01*
X0211935Y0012203D01*
X0211829Y0012093D01*
X0211721Y0011985D01*
X0211610Y0011881D01*
X0211496Y0011779D01*
X0211380Y0011680D01*
X0211262Y0011584D01*
X0211227Y0011629D01*
X0211345Y0011723D01*
X0211460Y0011821D01*
X0211572Y0011922D01*
X0211682Y0012026D01*
X0211790Y0012132D01*
X0211894Y0012241D01*
X0211996Y0012353D01*
X0212094Y0012467D01*
X0212190Y0012584D01*
X0212283Y0012704D01*
X0212372Y0012825D01*
X0212459Y0012949D01*
X0212542Y0013075D01*
X0212622Y0013203D01*
X0212699Y0013334D01*
X0212772Y0013466D01*
X0212842Y0013600D01*
X0212908Y0013735D01*
X0212971Y0013873D01*
X0213030Y0014012D01*
X0213086Y0014152D01*
X0213138Y0014294D01*
X0213186Y0014437D01*
X0213231Y0014581D01*
X0213272Y0014727D01*
X0213309Y0014873D01*
X0213343Y0015020D01*
X0213373Y0015169D01*
X0213399Y0015317D01*
X0213421Y0015467D01*
X0213439Y0015617D01*
X0213453Y0015767D01*
X0213464Y0015918D01*
X0213470Y0016069D01*
X0213473Y0016220D01*
X0213417Y0016220D01*
X0213414Y0016070D01*
X0213408Y0015921D01*
X0213397Y0015772D01*
X0213383Y0015623D01*
X0213365Y0015474D01*
X0213343Y0015326D01*
X0213318Y0015179D01*
X0213288Y0015032D01*
X0213255Y0014886D01*
X0213218Y0014741D01*
X0213177Y0014597D01*
X0213133Y0014454D01*
X0213085Y0014313D01*
X0213034Y0014172D01*
X0212978Y0014033D01*
X0212920Y0013895D01*
X0212857Y0013759D01*
X0212792Y0013625D01*
X0212722Y0013492D01*
X0212650Y0013361D01*
X0212574Y0013233D01*
X0212495Y0013106D01*
X0212412Y0012981D01*
X0212327Y0012858D01*
X0212238Y0012738D01*
X0212146Y0012619D01*
X0212051Y0012504D01*
X0211954Y0012390D01*
X0211853Y0012280D01*
X0211750Y0012172D01*
X0211644Y0012066D01*
X0211535Y0011963D01*
X0211423Y0011864D01*
X0211309Y0011767D01*
X0211193Y0011673D01*
X0211158Y0011717D01*
X0211274Y0011810D01*
X0211387Y0011906D01*
X0211497Y0012005D01*
X0211605Y0012106D01*
X0211710Y0012211D01*
X0211812Y0012318D01*
X0211912Y0012428D01*
X0212009Y0012540D01*
X0212103Y0012654D01*
X0212194Y0012771D01*
X0212281Y0012891D01*
X0212366Y0013012D01*
X0212448Y0013136D01*
X0212526Y0013262D01*
X0212601Y0013389D01*
X0212673Y0013519D01*
X0212742Y0013650D01*
X0212807Y0013783D01*
X0212868Y0013918D01*
X0212927Y0014054D01*
X0212981Y0014192D01*
X0213032Y0014331D01*
X0213080Y0014471D01*
X0213124Y0014613D01*
X0213164Y0014756D01*
X0213201Y0014899D01*
X0213233Y0015044D01*
X0213263Y0015189D01*
X0213288Y0015335D01*
X0213310Y0015481D01*
X0213327Y0015629D01*
X0213341Y0015776D01*
X0213352Y0015924D01*
X0213358Y0016072D01*
X0213361Y0016220D01*
X0201326Y0016221D02*
X0201866Y0016221D01*
X0201865Y0016220D02*
X0201868Y0016070D01*
X0201875Y0015920D01*
X0201885Y0015770D01*
X0201900Y0015621D01*
X0201918Y0015472D01*
X0201940Y0015324D01*
X0201967Y0015176D01*
X0201997Y0015029D01*
X0202031Y0014882D01*
X0202068Y0014737D01*
X0202110Y0014593D01*
X0202155Y0014450D01*
X0202204Y0014308D01*
X0202257Y0014167D01*
X0202313Y0014028D01*
X0202373Y0013891D01*
X0202437Y0013755D01*
X0202504Y0013621D01*
X0202575Y0013488D01*
X0202649Y0013358D01*
X0202726Y0013229D01*
X0202807Y0013103D01*
X0202891Y0012978D01*
X0202978Y0012856D01*
X0203069Y0012736D01*
X0203162Y0012619D01*
X0203259Y0012504D01*
X0203359Y0012392D01*
X0203461Y0012282D01*
X0203566Y0012175D01*
X0203674Y0012071D01*
X0203785Y0011970D01*
X0203899Y0011872D01*
X0204015Y0011776D01*
X0204133Y0011684D01*
X0203810Y0011253D01*
X0203809Y0011252D01*
X0203686Y0011347D01*
X0203566Y0011446D01*
X0203448Y0011547D01*
X0203333Y0011652D01*
X0203220Y0011759D01*
X0203110Y0011869D01*
X0203003Y0011981D01*
X0202898Y0012096D01*
X0202797Y0012214D01*
X0202698Y0012334D01*
X0202602Y0012457D01*
X0202510Y0012582D01*
X0202420Y0012709D01*
X0202334Y0012839D01*
X0202251Y0012970D01*
X0202171Y0013104D01*
X0202095Y0013239D01*
X0202022Y0013377D01*
X0201953Y0013516D01*
X0201887Y0013657D01*
X0201824Y0013799D01*
X0201765Y0013943D01*
X0201710Y0014088D01*
X0201658Y0014235D01*
X0201610Y0014383D01*
X0201565Y0014532D01*
X0201524Y0014682D01*
X0201487Y0014833D01*
X0201454Y0014985D01*
X0201425Y0015137D01*
X0201399Y0015291D01*
X0201377Y0015445D01*
X0201359Y0015599D01*
X0201345Y0015754D01*
X0201334Y0015909D01*
X0201328Y0016065D01*
X0201325Y0016220D01*
X0201381Y0016220D01*
X0201384Y0016066D01*
X0201390Y0015912D01*
X0201400Y0015758D01*
X0201415Y0015605D01*
X0201432Y0015452D01*
X0201454Y0015299D01*
X0201480Y0015147D01*
X0201509Y0014996D01*
X0201542Y0014845D01*
X0201579Y0014696D01*
X0201619Y0014547D01*
X0201663Y0014399D01*
X0201711Y0014253D01*
X0201762Y0014107D01*
X0201817Y0013963D01*
X0201876Y0013821D01*
X0201938Y0013680D01*
X0202003Y0013540D01*
X0202072Y0013402D01*
X0202144Y0013266D01*
X0202220Y0013132D01*
X0202299Y0013000D01*
X0202381Y0012869D01*
X0202467Y0012741D01*
X0202555Y0012615D01*
X0202647Y0012491D01*
X0202742Y0012370D01*
X0202839Y0012250D01*
X0202940Y0012134D01*
X0203043Y0012019D01*
X0203150Y0011908D01*
X0203259Y0011799D01*
X0203371Y0011693D01*
X0203485Y0011589D01*
X0203602Y0011489D01*
X0203721Y0011391D01*
X0203843Y0011297D01*
X0203876Y0011342D01*
X0203756Y0011435D01*
X0203637Y0011532D01*
X0203522Y0011632D01*
X0203408Y0011734D01*
X0203298Y0011839D01*
X0203190Y0011947D01*
X0203084Y0012058D01*
X0202982Y0012171D01*
X0202882Y0012287D01*
X0202785Y0012405D01*
X0202691Y0012525D01*
X0202601Y0012648D01*
X0202513Y0012773D01*
X0202428Y0012900D01*
X0202347Y0013029D01*
X0202268Y0013160D01*
X0202193Y0013293D01*
X0202122Y0013428D01*
X0202053Y0013565D01*
X0201989Y0013703D01*
X0201927Y0013843D01*
X0201869Y0013984D01*
X0201815Y0014127D01*
X0201764Y0014271D01*
X0201717Y0014416D01*
X0201673Y0014562D01*
X0201633Y0014709D01*
X0201596Y0014858D01*
X0201564Y0015007D01*
X0201535Y0015157D01*
X0201510Y0015307D01*
X0201488Y0015459D01*
X0201470Y0015610D01*
X0201456Y0015762D01*
X0201446Y0015915D01*
X0201440Y0016067D01*
X0201437Y0016220D01*
X0201493Y0016220D01*
X0201496Y0016065D01*
X0201503Y0015909D01*
X0201513Y0015754D01*
X0201528Y0015599D01*
X0201546Y0015445D01*
X0201569Y0015291D01*
X0201595Y0015138D01*
X0201626Y0014985D01*
X0201660Y0014833D01*
X0201698Y0014683D01*
X0201740Y0014533D01*
X0201785Y0014384D01*
X0201835Y0014237D01*
X0201888Y0014091D01*
X0201945Y0013946D01*
X0202005Y0013803D01*
X0202069Y0013661D01*
X0202137Y0013521D01*
X0202209Y0013383D01*
X0202283Y0013247D01*
X0202362Y0013112D01*
X0202443Y0012980D01*
X0202528Y0012850D01*
X0202617Y0012722D01*
X0202708Y0012596D01*
X0202803Y0012473D01*
X0202901Y0012352D01*
X0203001Y0012233D01*
X0203105Y0012118D01*
X0203212Y0012005D01*
X0203322Y0011894D01*
X0203434Y0011787D01*
X0203549Y0011682D01*
X0203667Y0011581D01*
X0203787Y0011482D01*
X0203910Y0011386D01*
X0203943Y0011431D01*
X0203822Y0011526D01*
X0203703Y0011624D01*
X0203586Y0011724D01*
X0203472Y0011828D01*
X0203361Y0011934D01*
X0203252Y0012044D01*
X0203146Y0012156D01*
X0203044Y0012270D01*
X0202944Y0012388D01*
X0202847Y0012507D01*
X0202753Y0012630D01*
X0202662Y0012754D01*
X0202575Y0012881D01*
X0202490Y0013010D01*
X0202410Y0013141D01*
X0202332Y0013274D01*
X0202258Y0013409D01*
X0202187Y0013546D01*
X0202120Y0013685D01*
X0202057Y0013825D01*
X0201997Y0013967D01*
X0201940Y0014110D01*
X0201888Y0014255D01*
X0201839Y0014401D01*
X0201793Y0014549D01*
X0201752Y0014697D01*
X0201714Y0014846D01*
X0201680Y0014997D01*
X0201650Y0015148D01*
X0201624Y0015300D01*
X0201602Y0015452D01*
X0201584Y0015605D01*
X0201569Y0015758D01*
X0201558Y0015912D01*
X0201552Y0016066D01*
X0201549Y0016220D01*
X0201605Y0016220D01*
X0201608Y0016067D01*
X0201614Y0015915D01*
X0201625Y0015763D01*
X0201639Y0015611D01*
X0201657Y0015459D01*
X0201680Y0015308D01*
X0201705Y0015158D01*
X0201735Y0015008D01*
X0201769Y0014859D01*
X0201806Y0014711D01*
X0201847Y0014564D01*
X0201892Y0014418D01*
X0201940Y0014274D01*
X0201993Y0014130D01*
X0202048Y0013988D01*
X0202108Y0013848D01*
X0202171Y0013709D01*
X0202237Y0013571D01*
X0202307Y0013436D01*
X0202381Y0013302D01*
X0202458Y0013170D01*
X0202538Y0013040D01*
X0202621Y0012912D01*
X0202708Y0012787D01*
X0202798Y0012663D01*
X0202891Y0012542D01*
X0202987Y0012423D01*
X0203086Y0012307D01*
X0203187Y0012194D01*
X0203292Y0012083D01*
X0203400Y0011974D01*
X0203510Y0011869D01*
X0203623Y0011766D01*
X0203739Y0011667D01*
X0203857Y0011570D01*
X0203977Y0011476D01*
X0204011Y0011521D01*
X0203891Y0011614D01*
X0203774Y0011710D01*
X0203660Y0011808D01*
X0203548Y0011910D01*
X0203439Y0012015D01*
X0203332Y0012122D01*
X0203229Y0012232D01*
X0203128Y0012344D01*
X0203030Y0012459D01*
X0202934Y0012577D01*
X0202842Y0012697D01*
X0202753Y0012819D01*
X0202668Y0012943D01*
X0202585Y0013070D01*
X0202506Y0013199D01*
X0202430Y0013329D01*
X0202357Y0013462D01*
X0202287Y0013596D01*
X0202222Y0013732D01*
X0202159Y0013870D01*
X0202100Y0014009D01*
X0202045Y0014150D01*
X0201993Y0014292D01*
X0201945Y0014435D01*
X0201901Y0014580D01*
X0201860Y0014725D01*
X0201823Y0014872D01*
X0201790Y0015020D01*
X0201761Y0015168D01*
X0201735Y0015317D01*
X0201713Y0015466D01*
X0201695Y0015616D01*
X0201681Y0015767D01*
X0201670Y0015918D01*
X0201664Y0016069D01*
X0201661Y0016220D01*
X0201717Y0016220D01*
X0201720Y0016070D01*
X0201726Y0015921D01*
X0201737Y0015771D01*
X0201751Y0015622D01*
X0201769Y0015474D01*
X0201790Y0015325D01*
X0201816Y0015178D01*
X0201845Y0015031D01*
X0201878Y0014885D01*
X0201914Y0014740D01*
X0201955Y0014596D01*
X0201999Y0014452D01*
X0202046Y0014310D01*
X0202097Y0014170D01*
X0202152Y0014030D01*
X0202211Y0013892D01*
X0202272Y0013756D01*
X0202338Y0013621D01*
X0202406Y0013488D01*
X0202478Y0013357D01*
X0202554Y0013228D01*
X0202632Y0013100D01*
X0202714Y0012975D01*
X0202799Y0012851D01*
X0202887Y0012730D01*
X0202978Y0012612D01*
X0203073Y0012495D01*
X0203170Y0012381D01*
X0203270Y0012270D01*
X0203372Y0012161D01*
X0203478Y0012055D01*
X0203586Y0011951D01*
X0203697Y0011850D01*
X0203810Y0011753D01*
X0203926Y0011658D01*
X0204044Y0011566D01*
X0204078Y0011610D01*
X0203961Y0011702D01*
X0203846Y0011796D01*
X0203734Y0011893D01*
X0203624Y0011992D01*
X0203517Y0012095D01*
X0203413Y0012200D01*
X0203311Y0012308D01*
X0203212Y0012418D01*
X0203116Y0012531D01*
X0203022Y0012646D01*
X0202932Y0012764D01*
X0202845Y0012884D01*
X0202761Y0013006D01*
X0202679Y0013130D01*
X0202602Y0013256D01*
X0202527Y0013385D01*
X0202456Y0013515D01*
X0202388Y0013646D01*
X0202323Y0013780D01*
X0202262Y0013915D01*
X0202204Y0014051D01*
X0202150Y0014189D01*
X0202099Y0014329D01*
X0202052Y0014469D01*
X0202008Y0014611D01*
X0201968Y0014754D01*
X0201932Y0014898D01*
X0201900Y0015042D01*
X0201871Y0015188D01*
X0201846Y0015334D01*
X0201824Y0015481D01*
X0201806Y0015628D01*
X0201792Y0015776D01*
X0201782Y0015924D01*
X0201776Y0016072D01*
X0201773Y0016220D01*
X0201829Y0016220D01*
X0201832Y0016069D01*
X0201839Y0015918D01*
X0201849Y0015767D01*
X0201864Y0015617D01*
X0201882Y0015467D01*
X0201905Y0015318D01*
X0201931Y0015169D01*
X0201961Y0015021D01*
X0201996Y0014874D01*
X0202034Y0014728D01*
X0202075Y0014583D01*
X0202121Y0014439D01*
X0202170Y0014296D01*
X0202223Y0014154D01*
X0202280Y0014014D01*
X0202340Y0013876D01*
X0202404Y0013739D01*
X0202472Y0013604D01*
X0202543Y0013471D01*
X0202618Y0013339D01*
X0202695Y0013210D01*
X0202777Y0013083D01*
X0202861Y0012958D01*
X0202949Y0012835D01*
X0203040Y0012714D01*
X0203135Y0012596D01*
X0203232Y0012481D01*
X0203332Y0012368D01*
X0203435Y0012257D01*
X0203541Y0012150D01*
X0203650Y0012045D01*
X0203761Y0011943D01*
X0203876Y0011844D01*
X0203992Y0011748D01*
X0204111Y0011655D01*
X0203927Y0021334D02*
X0204241Y0020895D01*
X0204240Y0020895D02*
X0204120Y0020806D01*
X0204002Y0020714D01*
X0203887Y0020618D01*
X0203774Y0020520D01*
X0203664Y0020419D01*
X0203556Y0020315D01*
X0203452Y0020208D01*
X0203350Y0020098D01*
X0203251Y0019986D01*
X0203155Y0019872D01*
X0203062Y0019754D01*
X0202972Y0019635D01*
X0202885Y0019513D01*
X0202801Y0019389D01*
X0202721Y0019263D01*
X0202644Y0019134D01*
X0202570Y0019004D01*
X0202500Y0018872D01*
X0202433Y0018738D01*
X0202370Y0018602D01*
X0202311Y0018465D01*
X0202254Y0018327D01*
X0202202Y0018186D01*
X0202153Y0018045D01*
X0202108Y0017902D01*
X0202067Y0017758D01*
X0202030Y0017614D01*
X0201996Y0017468D01*
X0201966Y0017321D01*
X0201940Y0017174D01*
X0201918Y0017026D01*
X0201899Y0016877D01*
X0201885Y0016728D01*
X0201874Y0016579D01*
X0201868Y0016430D01*
X0201865Y0016280D01*
X0201326Y0016280D01*
X0201325Y0016280D01*
X0201328Y0016435D01*
X0201334Y0016590D01*
X0201345Y0016745D01*
X0201359Y0016900D01*
X0201377Y0017054D01*
X0201399Y0017208D01*
X0201424Y0017361D01*
X0201454Y0017513D01*
X0201487Y0017665D01*
X0201524Y0017816D01*
X0201564Y0017966D01*
X0201609Y0018115D01*
X0201657Y0018262D01*
X0201708Y0018409D01*
X0201764Y0018554D01*
X0201822Y0018697D01*
X0201885Y0018840D01*
X0201951Y0018980D01*
X0202020Y0019119D01*
X0202093Y0019256D01*
X0202169Y0019392D01*
X0202248Y0019525D01*
X0202331Y0019656D01*
X0202417Y0019786D01*
X0202506Y0019913D01*
X0202598Y0020038D01*
X0202694Y0020160D01*
X0202792Y0020280D01*
X0202893Y0020398D01*
X0202997Y0020513D01*
X0203104Y0020626D01*
X0203214Y0020736D01*
X0203326Y0020843D01*
X0203441Y0020947D01*
X0203559Y0021048D01*
X0203679Y0021147D01*
X0203802Y0021242D01*
X0203926Y0021335D01*
X0203959Y0021289D01*
X0203835Y0021197D01*
X0203714Y0021103D01*
X0203595Y0021005D01*
X0203478Y0020905D01*
X0203364Y0020801D01*
X0203253Y0020695D01*
X0203144Y0020587D01*
X0203038Y0020475D01*
X0202935Y0020361D01*
X0202835Y0020244D01*
X0202737Y0020125D01*
X0202643Y0020004D01*
X0202551Y0019880D01*
X0202463Y0019754D01*
X0202378Y0019626D01*
X0202296Y0019496D01*
X0202217Y0019364D01*
X0202142Y0019229D01*
X0202070Y0019093D01*
X0202001Y0018956D01*
X0201936Y0018817D01*
X0201874Y0018676D01*
X0201816Y0018533D01*
X0201761Y0018389D01*
X0201710Y0018244D01*
X0201662Y0018098D01*
X0201618Y0017951D01*
X0201578Y0017802D01*
X0201541Y0017653D01*
X0201509Y0017502D01*
X0201479Y0017351D01*
X0201454Y0017200D01*
X0201432Y0017047D01*
X0201415Y0016894D01*
X0201400Y0016741D01*
X0201390Y0016588D01*
X0201384Y0016434D01*
X0201381Y0016280D01*
X0201437Y0016280D01*
X0201440Y0016437D01*
X0201447Y0016593D01*
X0201457Y0016749D01*
X0201472Y0016905D01*
X0201491Y0017061D01*
X0201513Y0017216D01*
X0201540Y0017370D01*
X0201570Y0017524D01*
X0201604Y0017676D01*
X0201643Y0017828D01*
X0201685Y0017979D01*
X0201731Y0018129D01*
X0201780Y0018277D01*
X0201834Y0018424D01*
X0201891Y0018570D01*
X0201952Y0018714D01*
X0202016Y0018857D01*
X0202084Y0018998D01*
X0202156Y0019137D01*
X0202231Y0019275D01*
X0202310Y0019410D01*
X0202392Y0019543D01*
X0202477Y0019675D01*
X0202566Y0019804D01*
X0202658Y0019930D01*
X0202753Y0020055D01*
X0202851Y0020177D01*
X0202953Y0020296D01*
X0203057Y0020413D01*
X0203164Y0020527D01*
X0203274Y0020638D01*
X0203387Y0020746D01*
X0203503Y0020852D01*
X0203621Y0020954D01*
X0203742Y0021054D01*
X0203866Y0021150D01*
X0203991Y0021243D01*
X0204024Y0021198D01*
X0203899Y0021106D01*
X0203777Y0021010D01*
X0203657Y0020911D01*
X0203540Y0020810D01*
X0203425Y0020705D01*
X0203314Y0020598D01*
X0203204Y0020488D01*
X0203098Y0020375D01*
X0202995Y0020259D01*
X0202894Y0020141D01*
X0202797Y0020020D01*
X0202703Y0019897D01*
X0202611Y0019771D01*
X0202524Y0019643D01*
X0202439Y0019513D01*
X0202358Y0019381D01*
X0202280Y0019247D01*
X0202205Y0019111D01*
X0202134Y0018973D01*
X0202067Y0018833D01*
X0202003Y0018692D01*
X0201943Y0018549D01*
X0201886Y0018405D01*
X0201833Y0018259D01*
X0201784Y0018112D01*
X0201738Y0017963D01*
X0201697Y0017814D01*
X0201659Y0017663D01*
X0201625Y0017512D01*
X0201595Y0017360D01*
X0201569Y0017207D01*
X0201546Y0017053D01*
X0201528Y0016899D01*
X0201513Y0016745D01*
X0201502Y0016590D01*
X0201496Y0016435D01*
X0201493Y0016280D01*
X0201549Y0016280D01*
X0201552Y0016434D01*
X0201558Y0016587D01*
X0201569Y0016741D01*
X0201583Y0016894D01*
X0201602Y0017046D01*
X0201624Y0017198D01*
X0201650Y0017350D01*
X0201680Y0017501D01*
X0201713Y0017651D01*
X0201751Y0017800D01*
X0201792Y0017948D01*
X0201837Y0018095D01*
X0201886Y0018240D01*
X0201938Y0018385D01*
X0201995Y0018528D01*
X0202054Y0018670D01*
X0202118Y0018810D01*
X0202184Y0018948D01*
X0202255Y0019085D01*
X0202329Y0019220D01*
X0202406Y0019352D01*
X0202486Y0019483D01*
X0202570Y0019612D01*
X0202657Y0019739D01*
X0202747Y0019863D01*
X0202841Y0019985D01*
X0202937Y0020105D01*
X0203037Y0020222D01*
X0203139Y0020337D01*
X0203245Y0020449D01*
X0203353Y0020558D01*
X0203464Y0020664D01*
X0203577Y0020768D01*
X0203693Y0020869D01*
X0203812Y0020966D01*
X0203933Y0021061D01*
X0204056Y0021152D01*
X0204089Y0021107D01*
X0203967Y0021016D01*
X0203847Y0020922D01*
X0203729Y0020826D01*
X0203614Y0020726D01*
X0203502Y0020623D01*
X0203392Y0020518D01*
X0203285Y0020410D01*
X0203180Y0020299D01*
X0203079Y0020185D01*
X0202980Y0020069D01*
X0202885Y0019951D01*
X0202792Y0019830D01*
X0202703Y0019706D01*
X0202617Y0019581D01*
X0202534Y0019453D01*
X0202454Y0019324D01*
X0202377Y0019192D01*
X0202304Y0019058D01*
X0202235Y0018923D01*
X0202168Y0018786D01*
X0202106Y0018647D01*
X0202046Y0018507D01*
X0201991Y0018365D01*
X0201939Y0018222D01*
X0201891Y0018078D01*
X0201846Y0017932D01*
X0201805Y0017785D01*
X0201768Y0017638D01*
X0201735Y0017489D01*
X0201705Y0017340D01*
X0201679Y0017190D01*
X0201657Y0017039D01*
X0201639Y0016888D01*
X0201625Y0016736D01*
X0201614Y0016584D01*
X0201608Y0016432D01*
X0201605Y0016280D01*
X0201661Y0016280D01*
X0201664Y0016431D01*
X0201670Y0016582D01*
X0201681Y0016732D01*
X0201695Y0016882D01*
X0201713Y0017032D01*
X0201735Y0017181D01*
X0201760Y0017330D01*
X0201789Y0017478D01*
X0201822Y0017625D01*
X0201859Y0017771D01*
X0201900Y0017916D01*
X0201944Y0018061D01*
X0201992Y0018204D01*
X0202043Y0018345D01*
X0202098Y0018486D01*
X0202157Y0018625D01*
X0202219Y0018762D01*
X0202285Y0018898D01*
X0202354Y0019032D01*
X0202426Y0019165D01*
X0202502Y0019295D01*
X0202581Y0019423D01*
X0202663Y0019550D01*
X0202749Y0019674D01*
X0202837Y0019796D01*
X0202929Y0019916D01*
X0203023Y0020033D01*
X0203121Y0020148D01*
X0203222Y0020261D01*
X0203325Y0020371D01*
X0203431Y0020478D01*
X0203540Y0020582D01*
X0203651Y0020684D01*
X0203765Y0020783D01*
X0203882Y0020879D01*
X0204000Y0020971D01*
X0204122Y0021061D01*
X0204154Y0021016D01*
X0204034Y0020927D01*
X0203916Y0020835D01*
X0203801Y0020740D01*
X0203688Y0020642D01*
X0203578Y0020541D01*
X0203470Y0020438D01*
X0203365Y0020332D01*
X0203263Y0020223D01*
X0203163Y0020111D01*
X0203067Y0019997D01*
X0202973Y0019881D01*
X0202882Y0019763D01*
X0202794Y0019642D01*
X0202710Y0019519D01*
X0202628Y0019393D01*
X0202550Y0019266D01*
X0202475Y0019137D01*
X0202403Y0019006D01*
X0202335Y0018873D01*
X0202270Y0018739D01*
X0202208Y0018602D01*
X0202150Y0018465D01*
X0202096Y0018326D01*
X0202045Y0018185D01*
X0201997Y0018044D01*
X0201954Y0017901D01*
X0201913Y0017757D01*
X0201877Y0017612D01*
X0201844Y0017466D01*
X0201815Y0017320D01*
X0201790Y0017173D01*
X0201768Y0017025D01*
X0201750Y0016876D01*
X0201736Y0016728D01*
X0201726Y0016579D01*
X0201720Y0016429D01*
X0201717Y0016280D01*
X0201773Y0016280D01*
X0201776Y0016432D01*
X0201783Y0016584D01*
X0201793Y0016736D01*
X0201808Y0016887D01*
X0201827Y0017038D01*
X0201849Y0017188D01*
X0201876Y0017338D01*
X0201906Y0017487D01*
X0201940Y0017635D01*
X0201978Y0017782D01*
X0202020Y0017929D01*
X0202066Y0018074D01*
X0202115Y0018217D01*
X0202169Y0018360D01*
X0202226Y0018501D01*
X0202286Y0018640D01*
X0202350Y0018778D01*
X0202418Y0018914D01*
X0202490Y0019048D01*
X0202564Y0019181D01*
X0202643Y0019311D01*
X0202724Y0019439D01*
X0202809Y0019566D01*
X0202898Y0019689D01*
X0202989Y0019811D01*
X0203083Y0019930D01*
X0203181Y0020046D01*
X0203282Y0020160D01*
X0203385Y0020272D01*
X0203492Y0020380D01*
X0203601Y0020486D01*
X0203713Y0020589D01*
X0203828Y0020689D01*
X0203945Y0020786D01*
X0204065Y0020879D01*
X0204187Y0020970D01*
X0204219Y0020925D01*
X0204098Y0020835D01*
X0203980Y0020742D01*
X0203864Y0020646D01*
X0203750Y0020547D01*
X0203639Y0020445D01*
X0203531Y0020340D01*
X0203426Y0020233D01*
X0203323Y0020123D01*
X0203223Y0020010D01*
X0203127Y0019894D01*
X0203033Y0019777D01*
X0202943Y0019656D01*
X0202855Y0019534D01*
X0202771Y0019409D01*
X0202690Y0019282D01*
X0202613Y0019153D01*
X0202539Y0019021D01*
X0202468Y0018888D01*
X0202401Y0018754D01*
X0202337Y0018617D01*
X0202277Y0018479D01*
X0202221Y0018340D01*
X0202168Y0018198D01*
X0202119Y0018056D01*
X0202074Y0017913D01*
X0202032Y0017768D01*
X0201995Y0017622D01*
X0201961Y0017475D01*
X0201931Y0017328D01*
X0201904Y0017180D01*
X0201882Y0017031D01*
X0201864Y0016881D01*
X0201849Y0016731D01*
X0201839Y0016581D01*
X0201832Y0016431D01*
X0201829Y0016280D01*
X0213864Y0016280D02*
X0213324Y0016280D01*
X0213325Y0016280D02*
X0213322Y0016427D01*
X0213316Y0016574D01*
X0213306Y0016721D01*
X0213292Y0016868D01*
X0213274Y0017014D01*
X0213252Y0017160D01*
X0213227Y0017305D01*
X0213198Y0017449D01*
X0213166Y0017593D01*
X0213129Y0017735D01*
X0213089Y0017877D01*
X0213046Y0018017D01*
X0212998Y0018157D01*
X0212948Y0018295D01*
X0212893Y0018432D01*
X0212835Y0018567D01*
X0212774Y0018701D01*
X0212710Y0018834D01*
X0212641Y0018964D01*
X0212570Y0019093D01*
X0212495Y0019220D01*
X0212417Y0019345D01*
X0212336Y0019467D01*
X0212252Y0019588D01*
X0212165Y0019707D01*
X0212075Y0019823D01*
X0211981Y0019937D01*
X0211885Y0020048D01*
X0211786Y0020157D01*
X0211684Y0020264D01*
X0211580Y0020368D01*
X0211473Y0020469D01*
X0211363Y0020567D01*
X0211251Y0020662D01*
X0211136Y0020755D01*
X0211467Y0021180D01*
X0211468Y0021181D01*
X0211590Y0021083D01*
X0211710Y0020981D01*
X0211827Y0020877D01*
X0211941Y0020770D01*
X0212053Y0020659D01*
X0212161Y0020547D01*
X0212267Y0020431D01*
X0212370Y0020313D01*
X0212471Y0020192D01*
X0212568Y0020069D01*
X0212662Y0019944D01*
X0212752Y0019816D01*
X0212840Y0019686D01*
X0212924Y0019554D01*
X0213005Y0019419D01*
X0213083Y0019283D01*
X0213157Y0019145D01*
X0213227Y0019005D01*
X0213294Y0018863D01*
X0213358Y0018720D01*
X0213418Y0018575D01*
X0213474Y0018429D01*
X0213527Y0018281D01*
X0213576Y0018132D01*
X0213621Y0017982D01*
X0213662Y0017831D01*
X0213700Y0017678D01*
X0213734Y0017525D01*
X0213764Y0017371D01*
X0213790Y0017217D01*
X0213812Y0017062D01*
X0213831Y0016906D01*
X0213845Y0016750D01*
X0213856Y0016593D01*
X0213862Y0016437D01*
X0213865Y0016280D01*
X0213809Y0016280D01*
X0213806Y0016435D01*
X0213800Y0016591D01*
X0213789Y0016746D01*
X0213775Y0016900D01*
X0213757Y0017055D01*
X0213735Y0017208D01*
X0213709Y0017362D01*
X0213679Y0017514D01*
X0213646Y0017666D01*
X0213608Y0017817D01*
X0213567Y0017967D01*
X0213522Y0018115D01*
X0213474Y0018263D01*
X0213422Y0018409D01*
X0213366Y0018554D01*
X0213307Y0018698D01*
X0213244Y0018840D01*
X0213177Y0018980D01*
X0213107Y0019119D01*
X0213034Y0019256D01*
X0212957Y0019391D01*
X0212877Y0019524D01*
X0212793Y0019655D01*
X0212706Y0019784D01*
X0212616Y0019911D01*
X0212523Y0020035D01*
X0212427Y0020157D01*
X0212328Y0020277D01*
X0212226Y0020394D01*
X0212121Y0020508D01*
X0212013Y0020620D01*
X0211902Y0020729D01*
X0211789Y0020835D01*
X0211673Y0020939D01*
X0211554Y0021039D01*
X0211433Y0021137D01*
X0211399Y0021092D01*
X0211519Y0020996D01*
X0211636Y0020896D01*
X0211751Y0020794D01*
X0211864Y0020689D01*
X0211973Y0020580D01*
X0212080Y0020470D01*
X0212184Y0020356D01*
X0212285Y0020240D01*
X0212384Y0020122D01*
X0212479Y0020001D01*
X0212571Y0019877D01*
X0212660Y0019752D01*
X0212746Y0019624D01*
X0212829Y0019494D01*
X0212908Y0019363D01*
X0212985Y0019229D01*
X0213057Y0019093D01*
X0213127Y0018956D01*
X0213193Y0018817D01*
X0213255Y0018676D01*
X0213314Y0018534D01*
X0213369Y0018390D01*
X0213421Y0018245D01*
X0213469Y0018099D01*
X0213513Y0017951D01*
X0213554Y0017803D01*
X0213591Y0017653D01*
X0213624Y0017503D01*
X0213654Y0017352D01*
X0213679Y0017200D01*
X0213701Y0017048D01*
X0213719Y0016895D01*
X0213733Y0016741D01*
X0213744Y0016588D01*
X0213750Y0016434D01*
X0213753Y0016280D01*
X0213697Y0016280D01*
X0213694Y0016433D01*
X0213688Y0016585D01*
X0213678Y0016737D01*
X0213663Y0016889D01*
X0213646Y0017041D01*
X0213624Y0017192D01*
X0213599Y0017342D01*
X0213569Y0017492D01*
X0213536Y0017641D01*
X0213500Y0017789D01*
X0213460Y0017936D01*
X0213416Y0018082D01*
X0213368Y0018227D01*
X0213317Y0018370D01*
X0213262Y0018513D01*
X0213204Y0018654D01*
X0213142Y0018793D01*
X0213076Y0018931D01*
X0213008Y0019067D01*
X0212936Y0019202D01*
X0212860Y0019334D01*
X0212781Y0019465D01*
X0212699Y0019593D01*
X0212614Y0019720D01*
X0212526Y0019844D01*
X0212435Y0019967D01*
X0212340Y0020086D01*
X0212243Y0020204D01*
X0212143Y0020319D01*
X0212039Y0020431D01*
X0211934Y0020541D01*
X0211825Y0020648D01*
X0211714Y0020752D01*
X0211600Y0020854D01*
X0211483Y0020953D01*
X0211365Y0021048D01*
X0211330Y0021004D01*
X0211448Y0020909D01*
X0211563Y0020811D01*
X0211676Y0020711D01*
X0211786Y0020607D01*
X0211894Y0020501D01*
X0211999Y0020393D01*
X0212101Y0020281D01*
X0212200Y0020167D01*
X0212297Y0020051D01*
X0212390Y0019932D01*
X0212481Y0019811D01*
X0212568Y0019688D01*
X0212653Y0019563D01*
X0212734Y0019435D01*
X0212812Y0019306D01*
X0212887Y0019175D01*
X0212958Y0019041D01*
X0213026Y0018906D01*
X0213091Y0018770D01*
X0213152Y0018632D01*
X0213210Y0018492D01*
X0213264Y0018351D01*
X0213315Y0018209D01*
X0213362Y0018065D01*
X0213406Y0017920D01*
X0213446Y0017775D01*
X0213482Y0017628D01*
X0213514Y0017480D01*
X0213543Y0017332D01*
X0213569Y0017183D01*
X0213590Y0017033D01*
X0213608Y0016883D01*
X0213622Y0016733D01*
X0213632Y0016582D01*
X0213638Y0016431D01*
X0213641Y0016280D01*
X0213585Y0016280D01*
X0213582Y0016434D01*
X0213575Y0016588D01*
X0213565Y0016741D01*
X0213550Y0016895D01*
X0213532Y0017048D01*
X0213509Y0017200D01*
X0213483Y0017352D01*
X0213453Y0017503D01*
X0213418Y0017653D01*
X0213380Y0017802D01*
X0213339Y0017950D01*
X0213293Y0018097D01*
X0213244Y0018243D01*
X0213191Y0018388D01*
X0213134Y0018531D01*
X0213073Y0018672D01*
X0213009Y0018812D01*
X0212942Y0018951D01*
X0212870Y0019087D01*
X0212796Y0019222D01*
X0212718Y0019355D01*
X0212636Y0019485D01*
X0212551Y0019614D01*
X0212463Y0019740D01*
X0212372Y0019864D01*
X0212277Y0019986D01*
X0212180Y0020105D01*
X0212079Y0020221D01*
X0211976Y0020335D01*
X0211869Y0020447D01*
X0211760Y0020555D01*
X0211648Y0020661D01*
X0211533Y0020763D01*
X0211416Y0020863D01*
X0211296Y0020960D01*
X0211262Y0020916D01*
X0211380Y0020820D01*
X0211496Y0020721D01*
X0211610Y0020619D01*
X0211721Y0020515D01*
X0211829Y0020407D01*
X0211935Y0020297D01*
X0212037Y0020184D01*
X0212137Y0020069D01*
X0212234Y0019951D01*
X0212327Y0019830D01*
X0212418Y0019707D01*
X0212505Y0019582D01*
X0212589Y0019455D01*
X0212670Y0019326D01*
X0212747Y0019194D01*
X0212821Y0019061D01*
X0212892Y0018926D01*
X0212959Y0018789D01*
X0213022Y0018650D01*
X0213082Y0018510D01*
X0213138Y0018368D01*
X0213191Y0018225D01*
X0213240Y0018080D01*
X0213285Y0017934D01*
X0213326Y0017788D01*
X0213364Y0017640D01*
X0213398Y0017491D01*
X0213428Y0017342D01*
X0213454Y0017191D01*
X0213476Y0017040D01*
X0213495Y0016889D01*
X0213509Y0016737D01*
X0213520Y0016585D01*
X0213526Y0016433D01*
X0213529Y0016280D01*
X0213473Y0016280D01*
X0213470Y0016431D01*
X0213464Y0016582D01*
X0213453Y0016733D01*
X0213439Y0016883D01*
X0213421Y0017033D01*
X0213399Y0017183D01*
X0213373Y0017331D01*
X0213343Y0017480D01*
X0213309Y0017627D01*
X0213272Y0017773D01*
X0213231Y0017919D01*
X0213186Y0018063D01*
X0213138Y0018206D01*
X0213086Y0018348D01*
X0213030Y0018488D01*
X0212971Y0018627D01*
X0212908Y0018765D01*
X0212842Y0018900D01*
X0212772Y0019034D01*
X0212699Y0019166D01*
X0212622Y0019297D01*
X0212542Y0019425D01*
X0212459Y0019551D01*
X0212372Y0019675D01*
X0212283Y0019796D01*
X0212190Y0019916D01*
X0212094Y0020033D01*
X0211996Y0020147D01*
X0211894Y0020259D01*
X0211790Y0020368D01*
X0211682Y0020474D01*
X0211572Y0020578D01*
X0211460Y0020679D01*
X0211345Y0020777D01*
X0211227Y0020871D01*
X0211193Y0020827D01*
X0211309Y0020733D01*
X0211423Y0020636D01*
X0211535Y0020537D01*
X0211644Y0020434D01*
X0211750Y0020328D01*
X0211853Y0020220D01*
X0211954Y0020110D01*
X0212051Y0019996D01*
X0212146Y0019881D01*
X0212238Y0019762D01*
X0212327Y0019642D01*
X0212412Y0019519D01*
X0212495Y0019394D01*
X0212574Y0019267D01*
X0212650Y0019139D01*
X0212722Y0019008D01*
X0212792Y0018875D01*
X0212857Y0018741D01*
X0212920Y0018605D01*
X0212978Y0018467D01*
X0213034Y0018328D01*
X0213085Y0018187D01*
X0213133Y0018046D01*
X0213177Y0017903D01*
X0213218Y0017759D01*
X0213255Y0017614D01*
X0213288Y0017468D01*
X0213318Y0017321D01*
X0213343Y0017174D01*
X0213365Y0017026D01*
X0213383Y0016877D01*
X0213397Y0016728D01*
X0213408Y0016579D01*
X0213414Y0016430D01*
X0213417Y0016280D01*
X0213361Y0016280D01*
X0213358Y0016428D01*
X0213352Y0016576D01*
X0213341Y0016724D01*
X0213327Y0016871D01*
X0213310Y0017019D01*
X0213288Y0017165D01*
X0213263Y0017311D01*
X0213233Y0017456D01*
X0213201Y0017601D01*
X0213164Y0017744D01*
X0213124Y0017887D01*
X0213080Y0018029D01*
X0213032Y0018169D01*
X0212981Y0018308D01*
X0212927Y0018446D01*
X0212868Y0018582D01*
X0212807Y0018717D01*
X0212742Y0018850D01*
X0212673Y0018981D01*
X0212601Y0019111D01*
X0212526Y0019238D01*
X0212448Y0019364D01*
X0212366Y0019488D01*
X0212281Y0019609D01*
X0212194Y0019729D01*
X0212103Y0019846D01*
X0212009Y0019960D01*
X0211912Y0020072D01*
X0211812Y0020182D01*
X0211710Y0020289D01*
X0211605Y0020394D01*
X0211497Y0020495D01*
X0211387Y0020594D01*
X0211274Y0020690D01*
X0211158Y0020783D01*
D19*
X0199146Y0016200D02*
X0200046Y0016200D01*
X0200045Y0016200D02*
X0200049Y0016017D01*
X0200056Y0015834D01*
X0200069Y0015651D01*
X0200086Y0015468D01*
X0200107Y0015286D01*
X0200132Y0015105D01*
X0200162Y0014924D01*
X0200197Y0014744D01*
X0200235Y0014565D01*
X0200278Y0014387D01*
X0200326Y0014210D01*
X0200377Y0014035D01*
X0200433Y0013860D01*
X0200493Y0013687D01*
X0200558Y0013516D01*
X0200626Y0013346D01*
X0200698Y0013177D01*
X0200775Y0013011D01*
X0200856Y0012847D01*
X0200940Y0012684D01*
X0201029Y0012524D01*
X0201121Y0012365D01*
X0201217Y0012209D01*
X0201317Y0012056D01*
X0201421Y0011905D01*
X0201528Y0011756D01*
X0201639Y0011610D01*
X0201753Y0011467D01*
X0201871Y0011327D01*
X0201992Y0011190D01*
X0202116Y0011055D01*
X0202244Y0010924D01*
X0202375Y0010795D01*
X0202509Y0010670D01*
X0202645Y0010549D01*
X0202785Y0010430D01*
X0202928Y0010315D01*
X0203073Y0010204D01*
X0203221Y0010096D01*
X0203372Y0009992D01*
X0203525Y0009891D01*
X0203680Y0009794D01*
X0203838Y0009701D01*
X0203998Y0009612D01*
X0203575Y0008818D01*
X0203395Y0008918D01*
X0203218Y0009022D01*
X0203044Y0009130D01*
X0202872Y0009243D01*
X0202704Y0009360D01*
X0202538Y0009481D01*
X0202375Y0009605D01*
X0202215Y0009734D01*
X0202058Y0009867D01*
X0201905Y0010003D01*
X0201755Y0010143D01*
X0201608Y0010287D01*
X0201465Y0010434D01*
X0201325Y0010585D01*
X0201190Y0010739D01*
X0201058Y0010896D01*
X0200930Y0011056D01*
X0200805Y0011220D01*
X0200685Y0011386D01*
X0200569Y0011556D01*
X0200457Y0011728D01*
X0200349Y0011902D01*
X0200246Y0012080D01*
X0200147Y0012259D01*
X0200052Y0012442D01*
X0199962Y0012626D01*
X0199876Y0012812D01*
X0199795Y0013001D01*
X0199718Y0013191D01*
X0199646Y0013384D01*
X0199579Y0013578D01*
X0199516Y0013773D01*
X0199458Y0013970D01*
X0199405Y0014168D01*
X0199357Y0014368D01*
X0199314Y0014569D01*
X0199276Y0014770D01*
X0199242Y0014973D01*
X0199214Y0015176D01*
X0199190Y0015380D01*
X0199171Y0015585D01*
X0199158Y0015789D01*
X0199149Y0015994D01*
X0199145Y0016200D01*
X0199239Y0016200D01*
X0199243Y0015997D01*
X0199251Y0015794D01*
X0199265Y0015591D01*
X0199283Y0015389D01*
X0199307Y0015188D01*
X0199335Y0014987D01*
X0199368Y0014786D01*
X0199406Y0014587D01*
X0199449Y0014389D01*
X0199497Y0014191D01*
X0199549Y0013995D01*
X0199606Y0013800D01*
X0199668Y0013607D01*
X0199735Y0013415D01*
X0199806Y0013225D01*
X0199881Y0013037D01*
X0199962Y0012851D01*
X0200047Y0012666D01*
X0200136Y0012484D01*
X0200230Y0012304D01*
X0200328Y0012126D01*
X0200430Y0011951D01*
X0200536Y0011778D01*
X0200647Y0011608D01*
X0200762Y0011440D01*
X0200881Y0011276D01*
X0201004Y0011114D01*
X0201130Y0010956D01*
X0201261Y0010800D01*
X0201395Y0010648D01*
X0201533Y0010499D01*
X0201674Y0010353D01*
X0201819Y0010211D01*
X0201968Y0010073D01*
X0202119Y0009938D01*
X0202274Y0009807D01*
X0202432Y0009680D01*
X0202594Y0009556D01*
X0202758Y0009437D01*
X0202925Y0009321D01*
X0203094Y0009210D01*
X0203267Y0009102D01*
X0203442Y0008999D01*
X0203619Y0008901D01*
X0203663Y0008984D01*
X0203488Y0009081D01*
X0203315Y0009183D01*
X0203145Y0009289D01*
X0202977Y0009399D01*
X0202812Y0009513D01*
X0202650Y0009632D01*
X0202490Y0009754D01*
X0202334Y0009880D01*
X0202181Y0010009D01*
X0202031Y0010143D01*
X0201884Y0010279D01*
X0201741Y0010420D01*
X0201601Y0010564D01*
X0201465Y0010711D01*
X0201332Y0010862D01*
X0201203Y0011015D01*
X0201078Y0011172D01*
X0200956Y0011332D01*
X0200839Y0011495D01*
X0200725Y0011660D01*
X0200616Y0011828D01*
X0200510Y0011999D01*
X0200409Y0012172D01*
X0200312Y0012348D01*
X0200220Y0012526D01*
X0200132Y0012706D01*
X0200048Y0012889D01*
X0199968Y0013073D01*
X0199893Y0013259D01*
X0199823Y0013447D01*
X0199757Y0013637D01*
X0199696Y0013828D01*
X0199640Y0014020D01*
X0199588Y0014214D01*
X0199541Y0014409D01*
X0199498Y0014605D01*
X0199461Y0014803D01*
X0199428Y0015001D01*
X0199400Y0015199D01*
X0199377Y0015399D01*
X0199359Y0015598D01*
X0199345Y0015799D01*
X0199337Y0015999D01*
X0199333Y0016200D01*
X0199427Y0016200D01*
X0199431Y0016001D01*
X0199439Y0015803D01*
X0199452Y0015605D01*
X0199471Y0015408D01*
X0199493Y0015211D01*
X0199521Y0015014D01*
X0199553Y0014819D01*
X0199591Y0014624D01*
X0199632Y0014430D01*
X0199679Y0014237D01*
X0199730Y0014045D01*
X0199786Y0013855D01*
X0199846Y0013666D01*
X0199911Y0013479D01*
X0199981Y0013293D01*
X0200055Y0013109D01*
X0200134Y0012927D01*
X0200217Y0012747D01*
X0200304Y0012568D01*
X0200395Y0012392D01*
X0200491Y0012219D01*
X0200591Y0012047D01*
X0200695Y0011879D01*
X0200803Y0011712D01*
X0200916Y0011549D01*
X0201032Y0011388D01*
X0201152Y0011230D01*
X0201276Y0011075D01*
X0201403Y0010923D01*
X0201534Y0010774D01*
X0201669Y0010629D01*
X0201807Y0010486D01*
X0201949Y0010348D01*
X0202094Y0010212D01*
X0202242Y0010080D01*
X0202394Y0009952D01*
X0202548Y0009828D01*
X0202705Y0009707D01*
X0202866Y0009590D01*
X0203029Y0009477D01*
X0203195Y0009369D01*
X0203363Y0009264D01*
X0203534Y0009163D01*
X0203707Y0009067D01*
X0203752Y0009149D01*
X0203580Y0009245D01*
X0203411Y0009344D01*
X0203245Y0009448D01*
X0203081Y0009556D01*
X0202920Y0009667D01*
X0202761Y0009783D01*
X0202606Y0009902D01*
X0202453Y0010025D01*
X0202304Y0010152D01*
X0202157Y0010282D01*
X0202014Y0010416D01*
X0201874Y0010553D01*
X0201737Y0010694D01*
X0201604Y0010837D01*
X0201474Y0010984D01*
X0201348Y0011135D01*
X0201226Y0011288D01*
X0201107Y0011444D01*
X0200992Y0011603D01*
X0200882Y0011765D01*
X0200775Y0011929D01*
X0200672Y0012096D01*
X0200573Y0012265D01*
X0200478Y0012437D01*
X0200388Y0012611D01*
X0200301Y0012787D01*
X0200220Y0012965D01*
X0200142Y0013145D01*
X0200069Y0013327D01*
X0200000Y0013510D01*
X0199936Y0013696D01*
X0199876Y0013882D01*
X0199821Y0014070D01*
X0199770Y0014260D01*
X0199724Y0014450D01*
X0199683Y0014642D01*
X0199646Y0014835D01*
X0199614Y0015028D01*
X0199587Y0015222D01*
X0199564Y0015417D01*
X0199546Y0015612D01*
X0199533Y0015808D01*
X0199525Y0016004D01*
X0199521Y0016200D01*
X0199615Y0016200D01*
X0199619Y0016006D01*
X0199627Y0015812D01*
X0199640Y0015619D01*
X0199658Y0015426D01*
X0199680Y0015234D01*
X0199707Y0015042D01*
X0199739Y0014851D01*
X0199775Y0014660D01*
X0199816Y0014471D01*
X0199861Y0014283D01*
X0199911Y0014096D01*
X0199966Y0013910D01*
X0200025Y0013725D01*
X0200088Y0013542D01*
X0200156Y0013361D01*
X0200229Y0013181D01*
X0200305Y0013003D01*
X0200386Y0012827D01*
X0200472Y0012653D01*
X0200561Y0012481D01*
X0200655Y0012311D01*
X0200752Y0012144D01*
X0200854Y0011979D01*
X0200960Y0011817D01*
X0201069Y0011657D01*
X0201183Y0011500D01*
X0201300Y0011346D01*
X0201421Y0011194D01*
X0201545Y0011046D01*
X0201673Y0010901D01*
X0201805Y0010758D01*
X0201940Y0010619D01*
X0202078Y0010484D01*
X0202220Y0010352D01*
X0202365Y0010223D01*
X0202513Y0010098D01*
X0202664Y0009976D01*
X0202817Y0009858D01*
X0202974Y0009744D01*
X0203133Y0009634D01*
X0203295Y0009528D01*
X0203460Y0009425D01*
X0203627Y0009327D01*
X0203796Y0009232D01*
X0203840Y0009315D01*
X0203673Y0009409D01*
X0203508Y0009506D01*
X0203345Y0009607D01*
X0203185Y0009712D01*
X0203028Y0009821D01*
X0202873Y0009934D01*
X0202721Y0010050D01*
X0202572Y0010170D01*
X0202426Y0010294D01*
X0202283Y0010421D01*
X0202143Y0010552D01*
X0202007Y0010686D01*
X0201873Y0010823D01*
X0201743Y0010964D01*
X0201616Y0011107D01*
X0201493Y0011254D01*
X0201374Y0011404D01*
X0201258Y0011556D01*
X0201146Y0011711D01*
X0201038Y0011869D01*
X0200933Y0012030D01*
X0200833Y0012193D01*
X0200736Y0012358D01*
X0200644Y0012525D01*
X0200556Y0012695D01*
X0200471Y0012867D01*
X0200391Y0013041D01*
X0200316Y0013217D01*
X0200244Y0013395D01*
X0200177Y0013574D01*
X0200114Y0013755D01*
X0200056Y0013937D01*
X0200002Y0014121D01*
X0199952Y0014306D01*
X0199908Y0014492D01*
X0199867Y0014679D01*
X0199831Y0014867D01*
X0199800Y0015056D01*
X0199773Y0015245D01*
X0199751Y0015435D01*
X0199734Y0015626D01*
X0199721Y0015817D01*
X0199713Y0016008D01*
X0199709Y0016200D01*
X0199803Y0016200D01*
X0199807Y0016011D01*
X0199815Y0015822D01*
X0199827Y0015633D01*
X0199845Y0015445D01*
X0199867Y0015257D01*
X0199893Y0015070D01*
X0199924Y0014883D01*
X0199959Y0014697D01*
X0199999Y0014512D01*
X0200044Y0014328D01*
X0200093Y0014146D01*
X0200146Y0013964D01*
X0200203Y0013784D01*
X0200265Y0013606D01*
X0200332Y0013428D01*
X0200402Y0013253D01*
X0200477Y0013079D01*
X0200556Y0012907D01*
X0200640Y0012738D01*
X0200727Y0012570D01*
X0200818Y0012404D01*
X0200914Y0012241D01*
X0201013Y0012080D01*
X0201116Y0011921D01*
X0201223Y0011765D01*
X0201334Y0011612D01*
X0201448Y0011461D01*
X0201566Y0011314D01*
X0201688Y0011169D01*
X0201813Y0011027D01*
X0201941Y0010888D01*
X0202073Y0010753D01*
X0202208Y0010620D01*
X0202346Y0010491D01*
X0202488Y0010365D01*
X0202632Y0010243D01*
X0202779Y0010124D01*
X0202929Y0010009D01*
X0203082Y0009898D01*
X0203238Y0009790D01*
X0203396Y0009686D01*
X0203556Y0009586D01*
X0203719Y0009490D01*
X0203884Y0009398D01*
X0203929Y0009481D01*
X0203765Y0009572D01*
X0203604Y0009667D01*
X0203446Y0009766D01*
X0203290Y0009868D01*
X0203136Y0009975D01*
X0202985Y0010085D01*
X0202837Y0010199D01*
X0202691Y0010316D01*
X0202549Y0010437D01*
X0202409Y0010561D01*
X0202273Y0010688D01*
X0202139Y0010819D01*
X0202009Y0010953D01*
X0201882Y0011090D01*
X0201759Y0011230D01*
X0201639Y0011373D01*
X0201522Y0011519D01*
X0201409Y0011668D01*
X0201300Y0011820D01*
X0201194Y0011974D01*
X0201092Y0012130D01*
X0200994Y0012289D01*
X0200900Y0012451D01*
X0200810Y0012614D01*
X0200723Y0012780D01*
X0200641Y0012948D01*
X0200563Y0013117D01*
X0200489Y0013289D01*
X0200420Y0013462D01*
X0200354Y0013637D01*
X0200293Y0013814D01*
X0200236Y0013992D01*
X0200183Y0014171D01*
X0200135Y0014351D01*
X0200091Y0014533D01*
X0200051Y0014716D01*
X0200016Y0014899D01*
X0199986Y0015083D01*
X0199960Y0015268D01*
X0199938Y0015454D01*
X0199921Y0015640D01*
X0199909Y0015826D01*
X0199901Y0016013D01*
X0199897Y0016200D01*
X0199991Y0016200D01*
X0199995Y0016015D01*
X0200003Y0015831D01*
X0200015Y0015647D01*
X0200032Y0015463D01*
X0200053Y0015280D01*
X0200079Y0015097D01*
X0200109Y0014915D01*
X0200144Y0014734D01*
X0200183Y0014554D01*
X0200226Y0014374D01*
X0200274Y0014196D01*
X0200326Y0014019D01*
X0200382Y0013843D01*
X0200442Y0013669D01*
X0200507Y0013496D01*
X0200576Y0013325D01*
X0200649Y0013156D01*
X0200726Y0012988D01*
X0200807Y0012822D01*
X0200893Y0012659D01*
X0200982Y0012497D01*
X0201075Y0012338D01*
X0201172Y0012181D01*
X0201272Y0012026D01*
X0201377Y0011874D01*
X0201485Y0011724D01*
X0201596Y0011577D01*
X0201711Y0011433D01*
X0201830Y0011292D01*
X0201952Y0011153D01*
X0202077Y0011018D01*
X0202206Y0010886D01*
X0202338Y0010756D01*
X0202472Y0010630D01*
X0202610Y0010508D01*
X0202751Y0010389D01*
X0202895Y0010273D01*
X0203041Y0010160D01*
X0203190Y0010052D01*
X0203342Y0009947D01*
X0203496Y0009845D01*
X0203653Y0009748D01*
X0203812Y0009654D01*
X0203973Y0009564D01*
X0211830Y0008939D02*
X0211384Y0009720D01*
X0211541Y0009813D01*
X0211695Y0009910D01*
X0211847Y0010011D01*
X0211996Y0010116D01*
X0212143Y0010224D01*
X0212288Y0010335D01*
X0212429Y0010450D01*
X0212568Y0010569D01*
X0212703Y0010691D01*
X0212836Y0010816D01*
X0212966Y0010944D01*
X0213092Y0011075D01*
X0213216Y0011209D01*
X0213336Y0011346D01*
X0213453Y0011486D01*
X0213566Y0011629D01*
X0213676Y0011775D01*
X0213782Y0011923D01*
X0213885Y0012074D01*
X0213984Y0012227D01*
X0214079Y0012382D01*
X0214170Y0012540D01*
X0214258Y0012700D01*
X0214342Y0012862D01*
X0214422Y0013025D01*
X0214498Y0013191D01*
X0214569Y0013359D01*
X0214637Y0013528D01*
X0214701Y0013699D01*
X0214760Y0013871D01*
X0214816Y0014045D01*
X0214867Y0014220D01*
X0214914Y0014396D01*
X0214956Y0014573D01*
X0214995Y0014752D01*
X0215029Y0014931D01*
X0215059Y0015111D01*
X0215084Y0015291D01*
X0215105Y0015472D01*
X0215121Y0015654D01*
X0215134Y0015836D01*
X0215141Y0016018D01*
X0215145Y0016200D01*
X0216044Y0016201D01*
X0216045Y0016200D01*
X0216041Y0015996D01*
X0216033Y0015792D01*
X0216019Y0015588D01*
X0216001Y0015384D01*
X0215977Y0015181D01*
X0215949Y0014979D01*
X0215916Y0014777D01*
X0215878Y0014577D01*
X0215835Y0014377D01*
X0215787Y0014178D01*
X0215735Y0013981D01*
X0215677Y0013785D01*
X0215615Y0013590D01*
X0215549Y0013397D01*
X0215477Y0013205D01*
X0215401Y0013016D01*
X0215321Y0012828D01*
X0215236Y0012642D01*
X0215146Y0012458D01*
X0215053Y0012277D01*
X0214954Y0012098D01*
X0214852Y0011921D01*
X0214745Y0011747D01*
X0214634Y0011575D01*
X0214519Y0011406D01*
X0214400Y0011240D01*
X0214277Y0011077D01*
X0214150Y0010917D01*
X0214019Y0010760D01*
X0213884Y0010606D01*
X0213746Y0010456D01*
X0213604Y0010309D01*
X0213459Y0010165D01*
X0213310Y0010025D01*
X0213158Y0009889D01*
X0213002Y0009756D01*
X0212844Y0009628D01*
X0212682Y0009503D01*
X0212517Y0009382D01*
X0212350Y0009265D01*
X0212179Y0009152D01*
X0212006Y0009043D01*
X0211831Y0008938D01*
X0211784Y0009020D01*
X0211958Y0009123D01*
X0212129Y0009231D01*
X0212297Y0009343D01*
X0212463Y0009458D01*
X0212626Y0009578D01*
X0212785Y0009702D01*
X0212942Y0009829D01*
X0213096Y0009960D01*
X0213246Y0010095D01*
X0213394Y0010233D01*
X0213537Y0010375D01*
X0213678Y0010521D01*
X0213814Y0010669D01*
X0213947Y0010821D01*
X0214077Y0010977D01*
X0214202Y0011135D01*
X0214324Y0011296D01*
X0214442Y0011460D01*
X0214556Y0011627D01*
X0214665Y0011797D01*
X0214771Y0011969D01*
X0214872Y0012144D01*
X0214970Y0012321D01*
X0215062Y0012500D01*
X0215151Y0012682D01*
X0215235Y0012866D01*
X0215315Y0013051D01*
X0215390Y0013239D01*
X0215460Y0013428D01*
X0215526Y0013619D01*
X0215587Y0013812D01*
X0215644Y0014006D01*
X0215696Y0014201D01*
X0215743Y0014397D01*
X0215785Y0014595D01*
X0215823Y0014793D01*
X0215856Y0014993D01*
X0215884Y0015193D01*
X0215907Y0015394D01*
X0215925Y0015595D01*
X0215939Y0015796D01*
X0215947Y0015998D01*
X0215951Y0016200D01*
X0215857Y0016200D01*
X0215853Y0016001D01*
X0215845Y0015801D01*
X0215832Y0015602D01*
X0215813Y0015403D01*
X0215791Y0015204D01*
X0215763Y0015007D01*
X0215730Y0014809D01*
X0215693Y0014613D01*
X0215651Y0014418D01*
X0215605Y0014224D01*
X0215553Y0014031D01*
X0215497Y0013839D01*
X0215437Y0013649D01*
X0215372Y0013460D01*
X0215302Y0013273D01*
X0215228Y0013087D01*
X0215149Y0012904D01*
X0215066Y0012722D01*
X0214978Y0012542D01*
X0214887Y0012365D01*
X0214791Y0012190D01*
X0214690Y0012017D01*
X0214586Y0011847D01*
X0214477Y0011679D01*
X0214365Y0011514D01*
X0214249Y0011352D01*
X0214128Y0011193D01*
X0214004Y0011036D01*
X0213876Y0010883D01*
X0213745Y0010732D01*
X0213609Y0010585D01*
X0213471Y0010442D01*
X0213329Y0010301D01*
X0213183Y0010164D01*
X0213034Y0010031D01*
X0212882Y0009901D01*
X0212727Y0009775D01*
X0212569Y0009653D01*
X0212408Y0009535D01*
X0212245Y0009421D01*
X0212078Y0009310D01*
X0211909Y0009204D01*
X0211738Y0009102D01*
X0211691Y0009183D01*
X0211861Y0009284D01*
X0212028Y0009389D01*
X0212192Y0009499D01*
X0212354Y0009612D01*
X0212513Y0009729D01*
X0212669Y0009849D01*
X0212823Y0009974D01*
X0212973Y0010102D01*
X0213120Y0010234D01*
X0213264Y0010369D01*
X0213404Y0010508D01*
X0213541Y0010650D01*
X0213675Y0010795D01*
X0213805Y0010944D01*
X0213931Y0011096D01*
X0214054Y0011250D01*
X0214173Y0011408D01*
X0214288Y0011568D01*
X0214399Y0011731D01*
X0214506Y0011897D01*
X0214610Y0012065D01*
X0214709Y0012236D01*
X0214804Y0012409D01*
X0214894Y0012585D01*
X0214981Y0012762D01*
X0215063Y0012942D01*
X0215141Y0013123D01*
X0215214Y0013306D01*
X0215283Y0013491D01*
X0215347Y0013678D01*
X0215407Y0013866D01*
X0215463Y0014056D01*
X0215513Y0014246D01*
X0215560Y0014438D01*
X0215601Y0014631D01*
X0215638Y0014825D01*
X0215670Y0015020D01*
X0215697Y0015216D01*
X0215720Y0015412D01*
X0215738Y0015609D01*
X0215751Y0015806D01*
X0215759Y0016003D01*
X0215763Y0016200D01*
X0215669Y0016200D01*
X0215665Y0016005D01*
X0215657Y0015810D01*
X0215644Y0015615D01*
X0215626Y0015421D01*
X0215604Y0015227D01*
X0215577Y0015034D01*
X0215545Y0014841D01*
X0215509Y0014650D01*
X0215468Y0014459D01*
X0215422Y0014269D01*
X0215372Y0014081D01*
X0215317Y0013893D01*
X0215258Y0013707D01*
X0215195Y0013523D01*
X0215126Y0013340D01*
X0215054Y0013159D01*
X0214977Y0012980D01*
X0214896Y0012802D01*
X0214810Y0012627D01*
X0214721Y0012453D01*
X0214627Y0012282D01*
X0214529Y0012114D01*
X0214427Y0011947D01*
X0214321Y0011783D01*
X0214211Y0011622D01*
X0214097Y0011464D01*
X0213980Y0011308D01*
X0213858Y0011155D01*
X0213733Y0011005D01*
X0213605Y0010858D01*
X0213473Y0010715D01*
X0213337Y0010574D01*
X0213198Y0010437D01*
X0213056Y0010303D01*
X0212911Y0010173D01*
X0212763Y0010046D01*
X0212611Y0009923D01*
X0212457Y0009804D01*
X0212300Y0009688D01*
X0212140Y0009577D01*
X0211977Y0009469D01*
X0211812Y0009365D01*
X0211644Y0009265D01*
X0211598Y0009346D01*
X0211763Y0009445D01*
X0211927Y0009548D01*
X0212087Y0009655D01*
X0212245Y0009765D01*
X0212401Y0009879D01*
X0212553Y0009997D01*
X0212703Y0010119D01*
X0212849Y0010244D01*
X0212993Y0010373D01*
X0213133Y0010505D01*
X0213271Y0010640D01*
X0213405Y0010779D01*
X0213535Y0010921D01*
X0213662Y0011066D01*
X0213786Y0011214D01*
X0213905Y0011365D01*
X0214022Y0011519D01*
X0214134Y0011676D01*
X0214243Y0011835D01*
X0214347Y0011997D01*
X0214448Y0012162D01*
X0214545Y0012328D01*
X0214638Y0012498D01*
X0214726Y0012669D01*
X0214811Y0012842D01*
X0214891Y0013018D01*
X0214967Y0013195D01*
X0215039Y0013374D01*
X0215106Y0013555D01*
X0215169Y0013737D01*
X0215227Y0013921D01*
X0215281Y0014106D01*
X0215331Y0014292D01*
X0215376Y0014480D01*
X0215417Y0014668D01*
X0215453Y0014857D01*
X0215484Y0015048D01*
X0215511Y0015239D01*
X0215533Y0015430D01*
X0215550Y0015622D01*
X0215563Y0015815D01*
X0215571Y0016007D01*
X0215575Y0016200D01*
X0215481Y0016200D01*
X0215477Y0016010D01*
X0215469Y0015819D01*
X0215457Y0015629D01*
X0215439Y0015439D01*
X0215417Y0015250D01*
X0215391Y0015062D01*
X0215360Y0014874D01*
X0215324Y0014686D01*
X0215284Y0014500D01*
X0215240Y0014315D01*
X0215191Y0014131D01*
X0215137Y0013948D01*
X0215080Y0013766D01*
X0215017Y0013586D01*
X0214951Y0013408D01*
X0214880Y0013231D01*
X0214805Y0013056D01*
X0214726Y0012882D01*
X0214642Y0012711D01*
X0214555Y0012542D01*
X0214463Y0012375D01*
X0214367Y0012210D01*
X0214268Y0012047D01*
X0214164Y0011887D01*
X0214057Y0011730D01*
X0213946Y0011575D01*
X0213831Y0011423D01*
X0213713Y0011274D01*
X0213591Y0011128D01*
X0213465Y0010984D01*
X0213336Y0010844D01*
X0213204Y0010707D01*
X0213068Y0010573D01*
X0212930Y0010442D01*
X0212788Y0010315D01*
X0212643Y0010191D01*
X0212495Y0010071D01*
X0212344Y0009955D01*
X0212191Y0009842D01*
X0212035Y0009733D01*
X0211876Y0009627D01*
X0211715Y0009526D01*
X0211551Y0009428D01*
X0211504Y0009510D01*
X0211666Y0009606D01*
X0211825Y0009706D01*
X0211982Y0009810D01*
X0212137Y0009918D01*
X0212288Y0010030D01*
X0212437Y0010145D01*
X0212583Y0010264D01*
X0212726Y0010386D01*
X0212866Y0010512D01*
X0213003Y0010641D01*
X0213137Y0010773D01*
X0213268Y0010909D01*
X0213395Y0011047D01*
X0213519Y0011189D01*
X0213640Y0011333D01*
X0213757Y0011481D01*
X0213870Y0011631D01*
X0213980Y0011784D01*
X0214086Y0011940D01*
X0214188Y0012098D01*
X0214287Y0012258D01*
X0214381Y0012421D01*
X0214472Y0012586D01*
X0214558Y0012753D01*
X0214641Y0012922D01*
X0214719Y0013093D01*
X0214793Y0013266D01*
X0214863Y0013441D01*
X0214929Y0013618D01*
X0214990Y0013796D01*
X0215047Y0013975D01*
X0215100Y0014156D01*
X0215149Y0014338D01*
X0215193Y0014521D01*
X0215232Y0014705D01*
X0215267Y0014890D01*
X0215298Y0015075D01*
X0215324Y0015262D01*
X0215346Y0015449D01*
X0215363Y0015636D01*
X0215375Y0015824D01*
X0215383Y0016012D01*
X0215387Y0016200D01*
X0215293Y0016200D01*
X0215289Y0016014D01*
X0215281Y0015829D01*
X0215269Y0015643D01*
X0215252Y0015458D01*
X0215231Y0015273D01*
X0215205Y0015089D01*
X0215175Y0014906D01*
X0215140Y0014723D01*
X0215101Y0014541D01*
X0215057Y0014360D01*
X0215010Y0014181D01*
X0214957Y0014002D01*
X0214901Y0013825D01*
X0214840Y0013649D01*
X0214775Y0013475D01*
X0214706Y0013302D01*
X0214633Y0013131D01*
X0214556Y0012962D01*
X0214474Y0012795D01*
X0214389Y0012630D01*
X0214299Y0012467D01*
X0214206Y0012306D01*
X0214109Y0012148D01*
X0214008Y0011992D01*
X0213903Y0011838D01*
X0213795Y0011687D01*
X0213683Y0011538D01*
X0213567Y0011393D01*
X0213448Y0011250D01*
X0213326Y0011110D01*
X0213200Y0010973D01*
X0213071Y0010839D01*
X0212938Y0010709D01*
X0212803Y0010581D01*
X0212665Y0010457D01*
X0212523Y0010336D01*
X0212379Y0010219D01*
X0212232Y0010105D01*
X0212082Y0009995D01*
X0211930Y0009888D01*
X0211775Y0009786D01*
X0211617Y0009687D01*
X0211458Y0009591D01*
X0211411Y0009673D01*
X0211569Y0009767D01*
X0211724Y0009865D01*
X0211877Y0009966D01*
X0212028Y0010072D01*
X0212176Y0010181D01*
X0212321Y0010293D01*
X0212463Y0010409D01*
X0212603Y0010528D01*
X0212740Y0010651D01*
X0212873Y0010777D01*
X0213004Y0010906D01*
X0213132Y0011038D01*
X0213256Y0011173D01*
X0213377Y0011311D01*
X0213494Y0011452D01*
X0213608Y0011596D01*
X0213719Y0011743D01*
X0213826Y0011892D01*
X0213930Y0012044D01*
X0214029Y0012198D01*
X0214125Y0012354D01*
X0214217Y0012513D01*
X0214306Y0012674D01*
X0214390Y0012837D01*
X0214471Y0013002D01*
X0214547Y0013169D01*
X0214619Y0013338D01*
X0214688Y0013509D01*
X0214752Y0013681D01*
X0214812Y0013854D01*
X0214868Y0014029D01*
X0214919Y0014206D01*
X0214966Y0014383D01*
X0215009Y0014562D01*
X0215048Y0014741D01*
X0215082Y0014922D01*
X0215112Y0015103D01*
X0215137Y0015285D01*
X0215159Y0015467D01*
X0215175Y0015650D01*
X0215188Y0015833D01*
X0215195Y0016017D01*
X0215199Y0016200D01*
X0216044Y0016299D02*
X0215144Y0016299D01*
X0215145Y0016300D02*
X0215141Y0016484D01*
X0215133Y0016669D01*
X0215121Y0016853D01*
X0215104Y0017036D01*
X0215082Y0017220D01*
X0215057Y0017402D01*
X0215026Y0017584D01*
X0214991Y0017765D01*
X0214952Y0017946D01*
X0214908Y0018125D01*
X0214860Y0018303D01*
X0214808Y0018480D01*
X0214751Y0018656D01*
X0214691Y0018830D01*
X0214625Y0019002D01*
X0214556Y0019173D01*
X0214483Y0019343D01*
X0214405Y0019510D01*
X0214323Y0019675D01*
X0214238Y0019839D01*
X0214148Y0020000D01*
X0214054Y0020159D01*
X0213957Y0020316D01*
X0213856Y0020470D01*
X0213751Y0020622D01*
X0213642Y0020771D01*
X0213530Y0020917D01*
X0213414Y0021061D01*
X0213295Y0021201D01*
X0213172Y0021339D01*
X0213046Y0021474D01*
X0212917Y0021606D01*
X0212784Y0021734D01*
X0212649Y0021859D01*
X0212510Y0021981D01*
X0213091Y0022668D01*
X0213247Y0022532D01*
X0213399Y0022391D01*
X0213548Y0022247D01*
X0213693Y0022100D01*
X0213834Y0021949D01*
X0213971Y0021795D01*
X0214105Y0021637D01*
X0214235Y0021476D01*
X0214361Y0021312D01*
X0214483Y0021145D01*
X0214601Y0020975D01*
X0214714Y0020802D01*
X0214823Y0020626D01*
X0214928Y0020448D01*
X0215029Y0020267D01*
X0215125Y0020084D01*
X0215217Y0019899D01*
X0215304Y0019711D01*
X0215386Y0019521D01*
X0215464Y0019330D01*
X0215537Y0019136D01*
X0215605Y0018941D01*
X0215669Y0018744D01*
X0215727Y0018546D01*
X0215781Y0018346D01*
X0215830Y0018145D01*
X0215874Y0017943D01*
X0215913Y0017740D01*
X0215947Y0017536D01*
X0215976Y0017331D01*
X0216000Y0017126D01*
X0216018Y0016920D01*
X0216032Y0016713D01*
X0216041Y0016507D01*
X0216045Y0016300D01*
X0215951Y0016300D01*
X0215947Y0016504D01*
X0215938Y0016709D01*
X0215925Y0016913D01*
X0215906Y0017116D01*
X0215882Y0017319D01*
X0215854Y0017522D01*
X0215820Y0017724D01*
X0215782Y0017924D01*
X0215738Y0018124D01*
X0215690Y0018323D01*
X0215637Y0018520D01*
X0215579Y0018717D01*
X0215516Y0018911D01*
X0215448Y0019104D01*
X0215376Y0019296D01*
X0215299Y0019485D01*
X0215218Y0019673D01*
X0215132Y0019858D01*
X0215041Y0020041D01*
X0214946Y0020223D01*
X0214847Y0020401D01*
X0214743Y0020577D01*
X0214635Y0020751D01*
X0214523Y0020922D01*
X0214406Y0021090D01*
X0214286Y0021255D01*
X0214161Y0021418D01*
X0214033Y0021577D01*
X0213901Y0021733D01*
X0213765Y0021885D01*
X0213625Y0022035D01*
X0213482Y0022180D01*
X0213335Y0022323D01*
X0213184Y0022461D01*
X0213031Y0022596D01*
X0212970Y0022525D01*
X0213122Y0022391D01*
X0213271Y0022254D01*
X0213416Y0022113D01*
X0213557Y0021969D01*
X0213696Y0021822D01*
X0213830Y0021671D01*
X0213961Y0021517D01*
X0214088Y0021359D01*
X0214211Y0021199D01*
X0214330Y0021035D01*
X0214445Y0020869D01*
X0214556Y0020700D01*
X0214663Y0020529D01*
X0214765Y0020354D01*
X0214864Y0020178D01*
X0214958Y0019999D01*
X0215047Y0019817D01*
X0215132Y0019634D01*
X0215213Y0019449D01*
X0215289Y0019261D01*
X0215360Y0019072D01*
X0215427Y0018881D01*
X0215489Y0018689D01*
X0215546Y0018495D01*
X0215599Y0018300D01*
X0215646Y0018103D01*
X0215689Y0017906D01*
X0215727Y0017707D01*
X0215761Y0017508D01*
X0215789Y0017308D01*
X0215812Y0017107D01*
X0215831Y0016906D01*
X0215845Y0016704D01*
X0215853Y0016502D01*
X0215857Y0016300D01*
X0215763Y0016300D01*
X0215759Y0016500D01*
X0215751Y0016699D01*
X0215737Y0016899D01*
X0215719Y0017098D01*
X0215696Y0017296D01*
X0215668Y0017494D01*
X0215635Y0017691D01*
X0215597Y0017887D01*
X0215555Y0018083D01*
X0215508Y0018277D01*
X0215456Y0018470D01*
X0215399Y0018661D01*
X0215338Y0018852D01*
X0215272Y0019040D01*
X0215201Y0019227D01*
X0215126Y0019412D01*
X0215046Y0019596D01*
X0214962Y0019777D01*
X0214874Y0019956D01*
X0214781Y0020133D01*
X0214684Y0020308D01*
X0214582Y0020480D01*
X0214477Y0020649D01*
X0214367Y0020817D01*
X0214253Y0020981D01*
X0214136Y0021142D01*
X0214014Y0021301D01*
X0213889Y0021456D01*
X0213759Y0021609D01*
X0213626Y0021758D01*
X0213490Y0021904D01*
X0213350Y0022046D01*
X0213206Y0022185D01*
X0213059Y0022321D01*
X0212909Y0022453D01*
X0212849Y0022381D01*
X0212997Y0022251D01*
X0213142Y0022117D01*
X0213284Y0021979D01*
X0213422Y0021838D01*
X0213557Y0021694D01*
X0213689Y0021547D01*
X0213816Y0021396D01*
X0213940Y0021242D01*
X0214061Y0021086D01*
X0214177Y0020926D01*
X0214289Y0020764D01*
X0214398Y0020599D01*
X0214502Y0020431D01*
X0214602Y0020261D01*
X0214698Y0020088D01*
X0214790Y0019913D01*
X0214878Y0019736D01*
X0214961Y0019557D01*
X0215039Y0019376D01*
X0215114Y0019193D01*
X0215183Y0019008D01*
X0215248Y0018822D01*
X0215309Y0018634D01*
X0215365Y0018444D01*
X0215416Y0018254D01*
X0215463Y0018062D01*
X0215505Y0017869D01*
X0215542Y0017675D01*
X0215575Y0017480D01*
X0215602Y0017284D01*
X0215625Y0017088D01*
X0215643Y0016892D01*
X0215657Y0016695D01*
X0215665Y0016497D01*
X0215669Y0016300D01*
X0215575Y0016300D01*
X0215571Y0016495D01*
X0215563Y0016690D01*
X0215550Y0016885D01*
X0215532Y0017079D01*
X0215509Y0017273D01*
X0215482Y0017466D01*
X0215450Y0017659D01*
X0215413Y0017850D01*
X0215371Y0018041D01*
X0215325Y0018231D01*
X0215275Y0018419D01*
X0215219Y0018606D01*
X0215159Y0018792D01*
X0215095Y0018976D01*
X0215026Y0019159D01*
X0214953Y0019340D01*
X0214875Y0019519D01*
X0214793Y0019696D01*
X0214706Y0019871D01*
X0214616Y0020043D01*
X0214521Y0020214D01*
X0214422Y0020382D01*
X0214319Y0020548D01*
X0214212Y0020711D01*
X0214101Y0020872D01*
X0213986Y0021029D01*
X0213867Y0021184D01*
X0213744Y0021336D01*
X0213618Y0021485D01*
X0213488Y0021631D01*
X0213355Y0021773D01*
X0213218Y0021912D01*
X0213078Y0022048D01*
X0212934Y0022180D01*
X0212788Y0022309D01*
X0212727Y0022237D01*
X0212872Y0022110D01*
X0213014Y0021979D01*
X0213152Y0021845D01*
X0213287Y0021708D01*
X0213419Y0021567D01*
X0213547Y0021423D01*
X0213672Y0021276D01*
X0213793Y0021126D01*
X0213910Y0020973D01*
X0214024Y0020817D01*
X0214134Y0020658D01*
X0214240Y0020497D01*
X0214341Y0020333D01*
X0214439Y0020167D01*
X0214533Y0019999D01*
X0214623Y0019828D01*
X0214708Y0019655D01*
X0214789Y0019480D01*
X0214866Y0019303D01*
X0214938Y0019125D01*
X0215007Y0018944D01*
X0215070Y0018762D01*
X0215129Y0018579D01*
X0215184Y0018394D01*
X0215234Y0018208D01*
X0215280Y0018020D01*
X0215321Y0017832D01*
X0215357Y0017642D01*
X0215389Y0017452D01*
X0215416Y0017261D01*
X0215438Y0017070D01*
X0215456Y0016878D01*
X0215469Y0016685D01*
X0215477Y0016493D01*
X0215481Y0016300D01*
X0215387Y0016300D01*
X0215383Y0016490D01*
X0215375Y0016681D01*
X0215362Y0016871D01*
X0215345Y0017060D01*
X0215323Y0017250D01*
X0215296Y0017438D01*
X0215265Y0017626D01*
X0215229Y0017813D01*
X0215188Y0017999D01*
X0215143Y0018184D01*
X0215094Y0018368D01*
X0215039Y0018551D01*
X0214981Y0018732D01*
X0214918Y0018912D01*
X0214851Y0019090D01*
X0214779Y0019267D01*
X0214703Y0019442D01*
X0214623Y0019614D01*
X0214539Y0019785D01*
X0214450Y0019954D01*
X0214358Y0020120D01*
X0214261Y0020285D01*
X0214161Y0020446D01*
X0214056Y0020606D01*
X0213948Y0020762D01*
X0213835Y0020916D01*
X0213719Y0021067D01*
X0213600Y0021216D01*
X0213477Y0021361D01*
X0213350Y0021503D01*
X0213220Y0021642D01*
X0213086Y0021778D01*
X0212950Y0021911D01*
X0212810Y0022040D01*
X0212666Y0022166D01*
X0212606Y0022094D01*
X0212747Y0021970D01*
X0212885Y0021842D01*
X0213020Y0021711D01*
X0213152Y0021577D01*
X0213281Y0021440D01*
X0213406Y0021299D01*
X0213528Y0021155D01*
X0213646Y0021009D01*
X0213760Y0020860D01*
X0213871Y0020708D01*
X0213978Y0020553D01*
X0214081Y0020396D01*
X0214181Y0020236D01*
X0214276Y0020074D01*
X0214368Y0019909D01*
X0214455Y0019743D01*
X0214538Y0019574D01*
X0214618Y0019403D01*
X0214693Y0019231D01*
X0214763Y0019056D01*
X0214830Y0018880D01*
X0214892Y0018703D01*
X0214950Y0018523D01*
X0215003Y0018343D01*
X0215052Y0018161D01*
X0215096Y0017979D01*
X0215136Y0017795D01*
X0215172Y0017610D01*
X0215203Y0017424D01*
X0215229Y0017238D01*
X0215251Y0017051D01*
X0215268Y0016864D01*
X0215281Y0016676D01*
X0215289Y0016488D01*
X0215293Y0016300D01*
X0215199Y0016300D01*
X0215195Y0016486D01*
X0215187Y0016671D01*
X0215175Y0016857D01*
X0215158Y0017042D01*
X0215136Y0017226D01*
X0215110Y0017410D01*
X0215079Y0017594D01*
X0215044Y0017776D01*
X0215005Y0017958D01*
X0214961Y0018138D01*
X0214912Y0018318D01*
X0214860Y0018496D01*
X0214803Y0018673D01*
X0214741Y0018848D01*
X0214676Y0019022D01*
X0214606Y0019194D01*
X0214532Y0019365D01*
X0214454Y0019533D01*
X0214371Y0019700D01*
X0214285Y0019864D01*
X0214195Y0020027D01*
X0214100Y0020187D01*
X0214002Y0020345D01*
X0213900Y0020500D01*
X0213795Y0020653D01*
X0213685Y0020803D01*
X0213572Y0020951D01*
X0213455Y0021095D01*
X0213335Y0021237D01*
X0213212Y0021376D01*
X0213085Y0021512D01*
X0212955Y0021644D01*
X0212821Y0021773D01*
X0212685Y0021900D01*
X0212545Y0022022D01*
X0202147Y0022709D02*
X0202724Y0022017D01*
X0202723Y0022018D02*
X0202586Y0021899D01*
X0202452Y0021778D01*
X0202321Y0021653D01*
X0202193Y0021525D01*
X0202069Y0021394D01*
X0201947Y0021260D01*
X0201828Y0021123D01*
X0201713Y0020984D01*
X0201602Y0020841D01*
X0201493Y0020696D01*
X0201388Y0020549D01*
X0201287Y0020399D01*
X0201190Y0020247D01*
X0201096Y0020092D01*
X0201005Y0019935D01*
X0200919Y0019776D01*
X0200836Y0019615D01*
X0200758Y0019452D01*
X0200683Y0019287D01*
X0200612Y0019121D01*
X0200545Y0018953D01*
X0200483Y0018783D01*
X0200424Y0018612D01*
X0200369Y0018439D01*
X0200319Y0018266D01*
X0200273Y0018091D01*
X0200231Y0017915D01*
X0200193Y0017738D01*
X0200160Y0017560D01*
X0200130Y0017381D01*
X0200105Y0017202D01*
X0200085Y0017022D01*
X0200068Y0016842D01*
X0200056Y0016662D01*
X0200049Y0016481D01*
X0200045Y0016300D01*
X0199146Y0016299D01*
X0199145Y0016300D01*
X0199149Y0016503D01*
X0199157Y0016705D01*
X0199171Y0016908D01*
X0199189Y0017110D01*
X0199212Y0017311D01*
X0199240Y0017512D01*
X0199273Y0017712D01*
X0199310Y0017912D01*
X0199352Y0018110D01*
X0199399Y0018308D01*
X0199451Y0018504D01*
X0199508Y0018698D01*
X0199569Y0018892D01*
X0199634Y0019084D01*
X0199705Y0019274D01*
X0199780Y0019463D01*
X0199859Y0019649D01*
X0199943Y0019834D01*
X0200031Y0020017D01*
X0200124Y0020197D01*
X0200220Y0020375D01*
X0200322Y0020551D01*
X0200427Y0020724D01*
X0200536Y0020895D01*
X0200650Y0021063D01*
X0200767Y0021229D01*
X0200889Y0021391D01*
X0201014Y0021551D01*
X0201143Y0021707D01*
X0201276Y0021860D01*
X0201413Y0022010D01*
X0201553Y0022157D01*
X0201696Y0022300D01*
X0201843Y0022440D01*
X0201993Y0022577D01*
X0202147Y0022709D01*
X0202207Y0022637D01*
X0202055Y0022506D01*
X0201907Y0022371D01*
X0201762Y0022233D01*
X0201620Y0022091D01*
X0201481Y0021946D01*
X0201346Y0021798D01*
X0201215Y0021646D01*
X0201087Y0021491D01*
X0200963Y0021334D01*
X0200843Y0021173D01*
X0200727Y0021010D01*
X0200615Y0020843D01*
X0200507Y0020675D01*
X0200402Y0020503D01*
X0200302Y0020329D01*
X0200207Y0020153D01*
X0200115Y0019975D01*
X0200028Y0019794D01*
X0199945Y0019611D01*
X0199866Y0019427D01*
X0199792Y0019241D01*
X0199723Y0019052D01*
X0199658Y0018863D01*
X0199598Y0018671D01*
X0199542Y0018479D01*
X0199491Y0018285D01*
X0199444Y0018090D01*
X0199402Y0017894D01*
X0199365Y0017697D01*
X0199333Y0017499D01*
X0199305Y0017300D01*
X0199282Y0017101D01*
X0199264Y0016901D01*
X0199251Y0016701D01*
X0199243Y0016500D01*
X0199239Y0016300D01*
X0199333Y0016300D01*
X0199337Y0016498D01*
X0199345Y0016696D01*
X0199358Y0016894D01*
X0199376Y0017092D01*
X0199399Y0017289D01*
X0199426Y0017485D01*
X0199458Y0017681D01*
X0199494Y0017875D01*
X0199536Y0018069D01*
X0199582Y0018262D01*
X0199632Y0018454D01*
X0199688Y0018644D01*
X0199747Y0018833D01*
X0199812Y0019021D01*
X0199880Y0019207D01*
X0199953Y0019391D01*
X0200031Y0019574D01*
X0200113Y0019754D01*
X0200199Y0019933D01*
X0200290Y0020109D01*
X0200384Y0020283D01*
X0200483Y0020455D01*
X0200586Y0020625D01*
X0200693Y0020792D01*
X0200804Y0020956D01*
X0200919Y0021117D01*
X0201038Y0021276D01*
X0201160Y0021432D01*
X0201286Y0021585D01*
X0201416Y0021735D01*
X0201550Y0021882D01*
X0201687Y0022025D01*
X0201827Y0022165D01*
X0201970Y0022302D01*
X0202117Y0022435D01*
X0202267Y0022565D01*
X0202327Y0022493D01*
X0202179Y0022364D01*
X0202034Y0022233D01*
X0201892Y0022098D01*
X0201754Y0021959D01*
X0201618Y0021817D01*
X0201486Y0021672D01*
X0201358Y0021524D01*
X0201233Y0021373D01*
X0201112Y0021219D01*
X0200995Y0021062D01*
X0200881Y0020902D01*
X0200772Y0020740D01*
X0200666Y0020575D01*
X0200564Y0020407D01*
X0200466Y0020237D01*
X0200373Y0020065D01*
X0200283Y0019891D01*
X0200198Y0019714D01*
X0200117Y0019536D01*
X0200040Y0019356D01*
X0199968Y0019173D01*
X0199900Y0018990D01*
X0199837Y0018804D01*
X0199778Y0018617D01*
X0199723Y0018429D01*
X0199673Y0018240D01*
X0199628Y0018049D01*
X0199587Y0017857D01*
X0199550Y0017665D01*
X0199519Y0017471D01*
X0199492Y0017277D01*
X0199470Y0017082D01*
X0199452Y0016887D01*
X0199439Y0016692D01*
X0199431Y0016496D01*
X0199427Y0016300D01*
X0199521Y0016300D01*
X0199525Y0016494D01*
X0199533Y0016687D01*
X0199546Y0016880D01*
X0199563Y0017073D01*
X0199585Y0017266D01*
X0199612Y0017458D01*
X0199643Y0017649D01*
X0199679Y0017839D01*
X0199719Y0018029D01*
X0199764Y0018217D01*
X0199814Y0018404D01*
X0199868Y0018590D01*
X0199926Y0018775D01*
X0199989Y0018958D01*
X0200056Y0019140D01*
X0200127Y0019320D01*
X0200203Y0019498D01*
X0200283Y0019675D01*
X0200367Y0019849D01*
X0200456Y0020021D01*
X0200548Y0020191D01*
X0200645Y0020359D01*
X0200746Y0020525D01*
X0200850Y0020688D01*
X0200958Y0020848D01*
X0201071Y0021006D01*
X0201187Y0021161D01*
X0201306Y0021314D01*
X0201430Y0021463D01*
X0201556Y0021610D01*
X0201687Y0021753D01*
X0201820Y0021893D01*
X0201957Y0022030D01*
X0202098Y0022163D01*
X0202241Y0022294D01*
X0202388Y0022420D01*
X0202448Y0022348D01*
X0202303Y0022223D01*
X0202161Y0022094D01*
X0202023Y0021962D01*
X0201887Y0021827D01*
X0201755Y0021688D01*
X0201626Y0021547D01*
X0201501Y0021402D01*
X0201379Y0021255D01*
X0201261Y0021104D01*
X0201146Y0020951D01*
X0201036Y0020795D01*
X0200928Y0020636D01*
X0200825Y0020475D01*
X0200726Y0020311D01*
X0200630Y0020145D01*
X0200539Y0019977D01*
X0200452Y0019807D01*
X0200368Y0019635D01*
X0200289Y0019460D01*
X0200214Y0019284D01*
X0200144Y0019106D01*
X0200077Y0018927D01*
X0200015Y0018746D01*
X0199958Y0018563D01*
X0199904Y0018379D01*
X0199855Y0018194D01*
X0199811Y0018008D01*
X0199771Y0017821D01*
X0199736Y0017633D01*
X0199705Y0017444D01*
X0199678Y0017254D01*
X0199657Y0017064D01*
X0199639Y0016874D01*
X0199627Y0016683D01*
X0199619Y0016491D01*
X0199615Y0016300D01*
X0199709Y0016300D01*
X0199713Y0016489D01*
X0199721Y0016678D01*
X0199733Y0016867D01*
X0199750Y0017055D01*
X0199772Y0017243D01*
X0199798Y0017430D01*
X0199828Y0017617D01*
X0199863Y0017803D01*
X0199903Y0017988D01*
X0199947Y0018172D01*
X0199995Y0018354D01*
X0200048Y0018536D01*
X0200105Y0018716D01*
X0200166Y0018895D01*
X0200232Y0019073D01*
X0200301Y0019249D01*
X0200375Y0019423D01*
X0200453Y0019595D01*
X0200536Y0019765D01*
X0200622Y0019933D01*
X0200712Y0020099D01*
X0200807Y0020263D01*
X0200905Y0020425D01*
X0201007Y0020584D01*
X0201113Y0020741D01*
X0201222Y0020895D01*
X0201336Y0021047D01*
X0201452Y0021195D01*
X0201573Y0021341D01*
X0201696Y0021484D01*
X0201824Y0021624D01*
X0201954Y0021761D01*
X0202088Y0021895D01*
X0202225Y0022025D01*
X0202365Y0022152D01*
X0202508Y0022276D01*
X0202568Y0022204D01*
X0202427Y0022081D01*
X0202289Y0021956D01*
X0202153Y0021827D01*
X0202021Y0021695D01*
X0201892Y0021560D01*
X0201767Y0021421D01*
X0201644Y0021280D01*
X0201525Y0021136D01*
X0201410Y0020989D01*
X0201298Y0020840D01*
X0201190Y0020687D01*
X0201085Y0020532D01*
X0200985Y0020375D01*
X0200888Y0020215D01*
X0200794Y0020054D01*
X0200705Y0019889D01*
X0200620Y0019723D01*
X0200539Y0019555D01*
X0200461Y0019385D01*
X0200388Y0019213D01*
X0200319Y0019039D01*
X0200255Y0018864D01*
X0200194Y0018687D01*
X0200138Y0018509D01*
X0200086Y0018330D01*
X0200038Y0018149D01*
X0199995Y0017967D01*
X0199956Y0017785D01*
X0199921Y0017601D01*
X0199891Y0017417D01*
X0199865Y0017232D01*
X0199844Y0017046D01*
X0199827Y0016860D01*
X0199815Y0016673D01*
X0199807Y0016487D01*
X0199803Y0016300D01*
X0199897Y0016300D01*
X0199901Y0016484D01*
X0199908Y0016669D01*
X0199921Y0016853D01*
X0199937Y0017037D01*
X0199958Y0017220D01*
X0199984Y0017403D01*
X0200014Y0017585D01*
X0200048Y0017766D01*
X0200086Y0017947D01*
X0200129Y0018126D01*
X0200176Y0018305D01*
X0200228Y0018482D01*
X0200283Y0018658D01*
X0200343Y0018833D01*
X0200407Y0019006D01*
X0200475Y0019177D01*
X0200547Y0019347D01*
X0200624Y0019515D01*
X0200704Y0019681D01*
X0200788Y0019845D01*
X0200876Y0020008D01*
X0200968Y0020168D01*
X0201064Y0020325D01*
X0201164Y0020481D01*
X0201267Y0020634D01*
X0201374Y0020784D01*
X0201484Y0020932D01*
X0201598Y0021077D01*
X0201716Y0021219D01*
X0201837Y0021359D01*
X0201961Y0021495D01*
X0202088Y0021629D01*
X0202219Y0021759D01*
X0202352Y0021887D01*
X0202489Y0022011D01*
X0202628Y0022131D01*
X0202689Y0022059D01*
X0202551Y0021940D01*
X0202416Y0021817D01*
X0202284Y0021692D01*
X0202155Y0021563D01*
X0202029Y0021431D01*
X0201907Y0021296D01*
X0201787Y0021158D01*
X0201671Y0021018D01*
X0201559Y0020874D01*
X0201450Y0020728D01*
X0201344Y0020580D01*
X0201242Y0020429D01*
X0201144Y0020275D01*
X0201049Y0020120D01*
X0200958Y0019962D01*
X0200871Y0019801D01*
X0200788Y0019639D01*
X0200709Y0019475D01*
X0200634Y0019309D01*
X0200562Y0019141D01*
X0200495Y0018972D01*
X0200432Y0018801D01*
X0200373Y0018629D01*
X0200318Y0018455D01*
X0200267Y0018280D01*
X0200220Y0018104D01*
X0200178Y0017926D01*
X0200140Y0017748D01*
X0200106Y0017569D01*
X0200077Y0017389D01*
X0200052Y0017209D01*
X0200031Y0017028D01*
X0200014Y0016846D01*
X0200002Y0016664D01*
X0199995Y0016482D01*
X0199991Y0016300D01*
D20*
X0230495Y0015302D02*
X0230495Y0012400D01*
X0232430Y0012400D02*
X0232430Y0015302D01*
X0231463Y0014335D01*
X0230495Y0015302D01*
X0233442Y0015302D02*
X0234409Y0015302D01*
X0233925Y0015302D02*
X0233925Y0012400D01*
X0233442Y0012400D02*
X0234409Y0012400D01*
X0235406Y0012884D02*
X0235890Y0012400D01*
X0236857Y0012400D01*
X0237341Y0012884D01*
X0237341Y0013367D01*
X0236857Y0013851D01*
X0235890Y0013851D01*
X0235406Y0014335D01*
X0235406Y0014819D01*
X0235890Y0015302D01*
X0236857Y0015302D01*
X0237341Y0014819D01*
X0238353Y0014819D02*
X0238836Y0015302D01*
X0239804Y0015302D01*
X0240287Y0014819D01*
X0240287Y0012884D01*
X0239804Y0012400D01*
X0238836Y0012400D01*
X0238353Y0012884D01*
X0238353Y0014819D01*
X0237839Y0017400D02*
X0236872Y0017400D01*
X0236388Y0017884D01*
X0235377Y0017884D02*
X0235377Y0019819D01*
X0234893Y0020302D01*
X0233925Y0020302D01*
X0233442Y0019819D01*
X0233442Y0017884D01*
X0233925Y0017400D01*
X0234893Y0017400D01*
X0235377Y0017884D01*
X0236388Y0019335D02*
X0236872Y0018851D01*
X0237839Y0018851D01*
X0238323Y0018367D01*
X0238323Y0017884D01*
X0237839Y0017400D01*
X0239335Y0017400D02*
X0240302Y0017400D01*
X0239818Y0017400D02*
X0239818Y0020302D01*
X0239335Y0020302D02*
X0240302Y0020302D01*
X0238323Y0019819D02*
X0237839Y0020302D01*
X0236872Y0020302D01*
X0236388Y0019819D01*
X0236388Y0019335D01*
X0232430Y0020302D02*
X0232430Y0017400D01*
X0230495Y0017400D02*
X0230495Y0020302D01*
X0231463Y0019335D01*
X0232430Y0020302D01*
X0231946Y0022400D02*
X0230979Y0022400D01*
X0230495Y0022884D01*
X0230979Y0023851D02*
X0231946Y0023851D01*
X0232430Y0023367D01*
X0232430Y0022884D01*
X0231946Y0022400D01*
X0233442Y0022884D02*
X0233925Y0022400D01*
X0234893Y0022400D01*
X0235377Y0022884D01*
X0236388Y0023367D02*
X0238323Y0025302D01*
X0236388Y0025302D02*
X0236388Y0022400D01*
X0236872Y0023851D02*
X0238323Y0022400D01*
X0235377Y0024819D02*
X0234893Y0025302D01*
X0233925Y0025302D01*
X0233442Y0024819D01*
X0233442Y0022884D01*
X0230979Y0023851D02*
X0230495Y0024335D01*
X0230495Y0024819D01*
X0230979Y0025302D01*
X0231946Y0025302D01*
X0232430Y0024819D01*
X0231946Y0027400D02*
X0232430Y0027884D01*
X0231946Y0027400D02*
X0230979Y0027400D01*
X0230495Y0027884D01*
X0230495Y0029819D01*
X0230979Y0030302D01*
X0231946Y0030302D01*
X0232430Y0029819D01*
X0233442Y0029819D02*
X0233442Y0029335D01*
X0233925Y0028851D01*
X0234893Y0028851D01*
X0235377Y0028367D01*
X0235377Y0027884D01*
X0234893Y0027400D01*
X0233925Y0027400D01*
X0233442Y0027884D01*
X0236388Y0027400D02*
X0236388Y0030302D01*
X0238323Y0027400D01*
X0238323Y0030302D01*
X0235377Y0029819D02*
X0234893Y0030302D01*
X0233925Y0030302D01*
X0233442Y0029819D01*
X0233442Y0032400D02*
X0235377Y0032400D01*
X0233442Y0032400D02*
X0233442Y0035302D01*
X0235377Y0035302D01*
X0234409Y0033851D02*
X0233442Y0033851D01*
X0232430Y0032884D02*
X0231946Y0032400D01*
X0230979Y0032400D01*
X0230495Y0032884D01*
X0230495Y0034819D01*
X0230979Y0035302D01*
X0231946Y0035302D01*
X0232430Y0034819D01*
X0231946Y0037400D02*
X0232430Y0037884D01*
X0232430Y0038851D01*
X0231463Y0038851D01*
X0232430Y0039819D02*
X0231946Y0040302D01*
X0230979Y0040302D01*
X0230495Y0039819D01*
X0230495Y0037884D01*
X0230979Y0037400D01*
X0231946Y0037400D01*
X0233442Y0037400D02*
X0233442Y0040302D01*
X0235377Y0037400D01*
X0235377Y0040302D01*
X0236388Y0040302D02*
X0237839Y0040302D01*
X0238323Y0039819D01*
X0238323Y0037884D01*
X0237839Y0037400D01*
X0236388Y0037400D01*
X0236388Y0040302D01*
X0236872Y0042400D02*
X0236388Y0042884D01*
X0236872Y0042400D02*
X0237839Y0042400D01*
X0238323Y0042884D01*
X0238323Y0043367D01*
X0237839Y0043851D01*
X0237356Y0043851D01*
X0237839Y0043851D02*
X0238323Y0044335D01*
X0238323Y0044819D01*
X0237839Y0045302D01*
X0236872Y0045302D01*
X0236388Y0044819D01*
X0235377Y0045302D02*
X0235377Y0043367D01*
X0234409Y0042400D01*
X0233442Y0043367D01*
X0233442Y0045302D01*
X0232430Y0044819D02*
X0232430Y0044335D01*
X0231946Y0043851D01*
X0232430Y0043367D01*
X0232430Y0042884D01*
X0231946Y0042400D01*
X0230979Y0042400D01*
X0230495Y0042884D01*
X0231463Y0043851D02*
X0231946Y0043851D01*
X0232430Y0044819D02*
X0231946Y0045302D01*
X0230979Y0045302D01*
X0230495Y0044819D01*
X0230495Y0010302D02*
X0231463Y0010302D01*
X0230979Y0010302D02*
X0230979Y0007400D01*
X0230495Y0007400D02*
X0231463Y0007400D01*
X0232459Y0007400D02*
X0232459Y0010302D01*
X0233911Y0010302D01*
X0234394Y0009819D01*
X0234394Y0008851D01*
X0233911Y0008367D01*
X0232459Y0008367D01*
X0233427Y0008367D02*
X0234394Y0007400D01*
X0235406Y0007884D02*
X0235890Y0007400D01*
X0236857Y0007400D01*
X0237341Y0007884D01*
X0237341Y0009819D01*
X0236857Y0010302D01*
X0235890Y0010302D01*
X0235406Y0009819D01*
X0235406Y0007884D01*
X0236373Y0008367D02*
X0237341Y0007400D01*
X0057895Y0024057D02*
X0054993Y0024057D01*
X0056444Y0024057D02*
X0056444Y0025992D01*
X0054993Y0025992D02*
X0057895Y0025992D01*
X0057895Y0027003D02*
X0054993Y0027003D01*
X0054993Y0028455D01*
X0055476Y0028938D01*
X0057411Y0028938D01*
X0057895Y0028455D01*
X0057895Y0027003D01*
M02*
