G75*
%MOIN*%
%OFA0B0*%
%FSLAX25Y25*%
%IPPOS*%
%LPD*%
%AMOC8*
5,1,8,0,0,1.08239X$1,22.5*
%
%ADD10C,0.00000*%
%ADD11R,0.05600X0.05600*%
%ADD12C,0.05600*%
%ADD13OC8,0.05200*%
%ADD14OC8,0.06300*%
%ADD15C,0.06300*%
%ADD16OC8,0.06600*%
%ADD17R,0.06000X0.06000*%
%ADD18C,0.06000*%
%ADD19C,0.04000*%
%ADD20C,0.01400*%
%ADD21C,0.02700*%
%ADD22C,0.01600*%
%ADD23C,0.00700*%
D10*
X0042595Y0003750D02*
X0042595Y0048750D01*
X0238845Y0048750D01*
X0238845Y0003750D01*
X0042595Y0003750D01*
D11*
X0061345Y0011250D03*
D12*
X0071345Y0011250D03*
X0081345Y0011250D03*
X0091345Y0011250D03*
X0101345Y0011250D03*
X0111345Y0011250D03*
X0121345Y0011250D03*
X0131345Y0011250D03*
X0141345Y0011250D03*
X0151345Y0011250D03*
X0161345Y0011250D03*
X0171345Y0011250D03*
X0181345Y0011250D03*
X0191345Y0011250D03*
X0191345Y0041250D03*
X0181345Y0041250D03*
X0171345Y0041250D03*
X0161345Y0041250D03*
X0151345Y0041250D03*
X0141345Y0041250D03*
X0131345Y0041250D03*
X0121345Y0041250D03*
X0111345Y0041250D03*
X0101345Y0041250D03*
X0091345Y0041250D03*
X0081345Y0041250D03*
X0071345Y0041250D03*
X0061345Y0041250D03*
D13*
X0091345Y0031250D03*
X0091345Y0021250D03*
X0121345Y0021250D03*
X0131345Y0021250D03*
X0141345Y0021250D03*
X0151345Y0021250D03*
X0141345Y0031250D03*
X0131345Y0031250D03*
X0121345Y0031250D03*
X0181345Y0021250D03*
D14*
X0207595Y0031250D03*
D15*
X0207595Y0041250D03*
D16*
X0207595Y0021250D03*
X0207595Y0011250D03*
D17*
X0048845Y0041250D03*
D18*
X0048845Y0031250D03*
X0048845Y0021250D03*
X0048845Y0011250D03*
D19*
X0222345Y0008750D02*
X0226345Y0008750D01*
X0226345Y0013750D02*
X0222345Y0013750D01*
X0222345Y0018750D02*
X0226345Y0018750D01*
X0226345Y0023750D02*
X0222345Y0023750D01*
X0222345Y0028750D02*
X0226345Y0028750D01*
X0226345Y0033750D02*
X0222345Y0033750D01*
X0222345Y0038750D02*
X0226345Y0038750D01*
X0226345Y0043750D02*
X0222345Y0043750D01*
D20*
X0226345Y0043750D02*
X0226345Y0043650D01*
X0209895Y0043650D01*
X0207795Y0041550D01*
X0207595Y0041250D01*
X0207095Y0041550D01*
X0197295Y0041550D01*
X0193095Y0045750D01*
X0146195Y0045750D01*
X0141995Y0041550D01*
X0141345Y0041250D01*
X0141295Y0041200D01*
X0141295Y0031400D01*
X0141345Y0031250D01*
X0130795Y0021600D02*
X0126395Y0026000D01*
X0126395Y0031950D01*
X0121695Y0036650D01*
X0121345Y0036300D01*
X0054495Y0036300D01*
X0054145Y0035950D01*
X0048845Y0041250D01*
X0054145Y0035950D02*
X0054145Y0032450D01*
X0070895Y0031050D02*
X0091245Y0031050D01*
X0091345Y0031250D01*
X0070895Y0031050D02*
X0051295Y0011450D01*
X0048895Y0011450D01*
X0048845Y0011250D01*
X0121345Y0037000D02*
X0121695Y0036650D01*
X0121345Y0037000D02*
X0121345Y0041250D01*
X0130795Y0021600D02*
X0131345Y0021250D01*
X0131495Y0020900D01*
X0131495Y0011450D01*
X0131345Y0011250D01*
X0131345Y0021250D02*
X0141345Y0021250D01*
X0207595Y0021250D02*
X0207795Y0021250D01*
X0207795Y0021950D01*
X0212345Y0026500D01*
D21*
X0212345Y0026500D03*
X0180495Y0032100D03*
X0175395Y0032450D03*
X0054145Y0032450D03*
D22*
X0053345Y0032145D02*
X0052660Y0033799D01*
X0051394Y0035065D01*
X0049740Y0035750D01*
X0047950Y0035750D01*
X0046296Y0035065D01*
X0045395Y0034164D01*
X0045395Y0036507D01*
X0045608Y0036450D01*
X0048645Y0036450D01*
X0048645Y0041050D01*
X0049045Y0041050D01*
X0049045Y0036450D01*
X0052082Y0036450D01*
X0052540Y0036573D01*
X0052950Y0036810D01*
X0053285Y0037145D01*
X0053522Y0037555D01*
X0053645Y0038013D01*
X0053645Y0041050D01*
X0049045Y0041050D01*
X0049045Y0041450D01*
X0053645Y0041450D01*
X0053645Y0044487D01*
X0053522Y0044945D01*
X0053285Y0045355D01*
X0052950Y0045690D01*
X0052540Y0045927D01*
X0052455Y0045950D01*
X0143284Y0045950D01*
X0142684Y0045350D01*
X0142200Y0045550D01*
X0140490Y0045550D01*
X0138909Y0044895D01*
X0137700Y0043686D01*
X0137045Y0042105D01*
X0137045Y0040395D01*
X0137700Y0038814D01*
X0138909Y0037605D01*
X0139095Y0037528D01*
X0139095Y0034798D01*
X0137245Y0032948D01*
X0137245Y0029552D01*
X0139647Y0027150D01*
X0143043Y0027150D01*
X0145445Y0029552D01*
X0145445Y0032948D01*
X0143495Y0034898D01*
X0143495Y0037486D01*
X0143781Y0037605D01*
X0144990Y0038814D01*
X0145645Y0040395D01*
X0145645Y0042089D01*
X0147106Y0043550D01*
X0147644Y0043550D01*
X0147045Y0042105D01*
X0147045Y0040395D01*
X0147700Y0038814D01*
X0148909Y0037605D01*
X0150490Y0036950D01*
X0152200Y0036950D01*
X0153781Y0037605D01*
X0154990Y0038814D01*
X0155645Y0040395D01*
X0155645Y0042105D01*
X0155047Y0043550D01*
X0157644Y0043550D01*
X0157045Y0042105D01*
X0157045Y0040395D01*
X0157700Y0038814D01*
X0158909Y0037605D01*
X0160490Y0036950D01*
X0162200Y0036950D01*
X0162928Y0037251D01*
X0176579Y0023600D01*
X0177897Y0023600D01*
X0177245Y0022948D01*
X0177245Y0019552D01*
X0179647Y0017150D01*
X0183043Y0017150D01*
X0185293Y0019400D01*
X0196879Y0019400D01*
X0202918Y0013361D01*
X0202795Y0013238D01*
X0202795Y0009262D01*
X0205507Y0006550D01*
X0045395Y0006550D01*
X0045395Y0008336D01*
X0046296Y0007435D01*
X0047950Y0006750D01*
X0049740Y0006750D01*
X0051394Y0007435D01*
X0052660Y0008701D01*
X0053345Y0010355D01*
X0053345Y0010389D01*
X0057045Y0014089D01*
X0057045Y0007829D01*
X0057924Y0006950D01*
X0064766Y0006950D01*
X0065645Y0007829D01*
X0065645Y0012984D01*
X0066111Y0013450D01*
X0067602Y0013450D01*
X0067045Y0012105D01*
X0067045Y0010395D01*
X0067700Y0008814D01*
X0068909Y0007605D01*
X0070490Y0006950D01*
X0072200Y0006950D01*
X0073781Y0007605D01*
X0074990Y0008814D01*
X0075645Y0010395D01*
X0075645Y0012105D01*
X0075088Y0013450D01*
X0077602Y0013450D01*
X0077045Y0012105D01*
X0077045Y0010395D01*
X0077700Y0008814D01*
X0078909Y0007605D01*
X0080490Y0006950D01*
X0082200Y0006950D01*
X0083781Y0007605D01*
X0084990Y0008814D01*
X0085645Y0010395D01*
X0085645Y0012105D01*
X0085088Y0013450D01*
X0087602Y0013450D01*
X0087045Y0012105D01*
X0087045Y0010395D01*
X0087700Y0008814D01*
X0088909Y0007605D01*
X0090490Y0006950D01*
X0092200Y0006950D01*
X0093781Y0007605D01*
X0094990Y0008814D01*
X0095645Y0010395D01*
X0095645Y0012105D01*
X0094990Y0013686D01*
X0094694Y0013982D01*
X0095245Y0014534D01*
X0109911Y0029200D01*
X0117597Y0029200D01*
X0119647Y0027150D01*
X0123043Y0027150D01*
X0125445Y0029552D01*
X0125445Y0032948D01*
X0123043Y0035350D01*
X0119647Y0035350D01*
X0117245Y0032948D01*
X0117245Y0032900D01*
X0108379Y0032900D01*
X0095445Y0019966D01*
X0095445Y0022948D01*
X0093043Y0025350D01*
X0089647Y0025350D01*
X0087245Y0022948D01*
X0087245Y0019552D01*
X0089647Y0017150D01*
X0092629Y0017150D01*
X0092629Y0017150D01*
X0064579Y0017150D01*
X0062979Y0015550D01*
X0058506Y0015550D01*
X0071806Y0028850D01*
X0087947Y0028850D01*
X0089647Y0027150D01*
X0093043Y0027150D01*
X0095445Y0029552D01*
X0095445Y0032948D01*
X0093043Y0035350D01*
X0089647Y0035350D01*
X0087547Y0033250D01*
X0069984Y0033250D01*
X0068695Y0031961D01*
X0051596Y0014863D01*
X0051394Y0015065D01*
X0049740Y0015750D01*
X0047950Y0015750D01*
X0046296Y0015065D01*
X0045395Y0014164D01*
X0045395Y0018336D01*
X0046296Y0017435D01*
X0047950Y0016750D01*
X0049740Y0016750D01*
X0051394Y0017435D01*
X0052660Y0018701D01*
X0053345Y0020355D01*
X0053345Y0022145D01*
X0052660Y0023799D01*
X0051394Y0025065D01*
X0049740Y0025750D01*
X0047950Y0025750D01*
X0046296Y0025065D01*
X0045395Y0024164D01*
X0045395Y0028336D01*
X0046296Y0027435D01*
X0047950Y0026750D01*
X0049740Y0026750D01*
X0051394Y0027435D01*
X0052660Y0028701D01*
X0053345Y0030355D01*
X0053345Y0032145D01*
X0053189Y0032523D02*
X0069257Y0032523D01*
X0067659Y0030925D02*
X0053345Y0030925D01*
X0052919Y0029326D02*
X0066060Y0029326D01*
X0064462Y0027728D02*
X0051687Y0027728D01*
X0046003Y0027728D02*
X0045395Y0027728D01*
X0045395Y0026129D02*
X0062863Y0026129D01*
X0061265Y0024531D02*
X0051928Y0024531D01*
X0053019Y0022932D02*
X0059666Y0022932D01*
X0058068Y0021334D02*
X0053345Y0021334D01*
X0053088Y0019735D02*
X0056469Y0019735D01*
X0054870Y0018137D02*
X0052096Y0018137D01*
X0053272Y0016538D02*
X0045395Y0016538D01*
X0045395Y0018137D02*
X0045595Y0018137D01*
X0045395Y0014940D02*
X0046171Y0014940D01*
X0051520Y0014940D02*
X0051673Y0014940D01*
X0056297Y0013341D02*
X0057045Y0013341D01*
X0057045Y0011743D02*
X0054699Y0011743D01*
X0053258Y0010144D02*
X0057045Y0010144D01*
X0057045Y0008546D02*
X0052505Y0008546D01*
X0050216Y0006947D02*
X0129702Y0006947D01*
X0129579Y0006987D02*
X0130268Y0006763D01*
X0130983Y0006650D01*
X0131345Y0006650D01*
X0131345Y0011250D01*
X0131345Y0011250D01*
X0126745Y0011250D01*
X0126745Y0011612D01*
X0126858Y0012327D01*
X0127082Y0013016D01*
X0127411Y0013661D01*
X0127836Y0014247D01*
X0128348Y0014759D01*
X0128934Y0015184D01*
X0129579Y0015513D01*
X0130268Y0015737D01*
X0130983Y0015850D01*
X0131345Y0015850D01*
X0131345Y0011250D01*
X0126745Y0011250D01*
X0126745Y0010888D01*
X0126858Y0010173D01*
X0127082Y0009484D01*
X0127411Y0008839D01*
X0127836Y0008253D01*
X0128348Y0007741D01*
X0128934Y0007316D01*
X0129579Y0006987D01*
X0131345Y0006947D02*
X0131345Y0006947D01*
X0131345Y0006650D02*
X0131707Y0006650D01*
X0132422Y0006763D01*
X0133111Y0006987D01*
X0133756Y0007316D01*
X0134342Y0007741D01*
X0134854Y0008253D01*
X0135279Y0008839D01*
X0135608Y0009484D01*
X0135832Y0010173D01*
X0135945Y0010888D01*
X0135945Y0011250D01*
X0135945Y0011612D01*
X0135832Y0012327D01*
X0135608Y0013016D01*
X0135279Y0013661D01*
X0134854Y0014247D01*
X0134342Y0014759D01*
X0133756Y0015184D01*
X0133111Y0015513D01*
X0132422Y0015737D01*
X0131707Y0015850D01*
X0131345Y0015850D01*
X0131345Y0011250D01*
X0131345Y0011250D01*
X0131345Y0011250D01*
X0131345Y0006650D01*
X0132988Y0006947D02*
X0205110Y0006947D01*
X0203511Y0008546D02*
X0194722Y0008546D01*
X0194990Y0008814D02*
X0195645Y0010395D01*
X0195645Y0012105D01*
X0194990Y0013686D01*
X0193781Y0014895D01*
X0192200Y0015550D01*
X0190490Y0015550D01*
X0188909Y0014895D01*
X0187700Y0013686D01*
X0187045Y0012105D01*
X0187045Y0010395D01*
X0187700Y0008814D01*
X0188909Y0007605D01*
X0190490Y0006950D01*
X0192200Y0006950D01*
X0193781Y0007605D01*
X0194990Y0008814D01*
X0195541Y0010144D02*
X0202795Y0010144D01*
X0202795Y0011743D02*
X0195645Y0011743D01*
X0195133Y0013341D02*
X0202898Y0013341D01*
X0201339Y0014940D02*
X0193674Y0014940D01*
X0189016Y0014940D02*
X0183674Y0014940D01*
X0183781Y0014895D02*
X0182200Y0015550D01*
X0180490Y0015550D01*
X0178909Y0014895D01*
X0177700Y0013686D01*
X0177045Y0012105D01*
X0177045Y0010395D01*
X0177700Y0008814D01*
X0178909Y0007605D01*
X0180490Y0006950D01*
X0182200Y0006950D01*
X0183781Y0007605D01*
X0184990Y0008814D01*
X0185645Y0010395D01*
X0185645Y0012105D01*
X0184990Y0013686D01*
X0183781Y0014895D01*
X0185133Y0013341D02*
X0187557Y0013341D01*
X0187045Y0011743D02*
X0185645Y0011743D01*
X0185541Y0010144D02*
X0187149Y0010144D01*
X0187968Y0008546D02*
X0184722Y0008546D01*
X0177968Y0008546D02*
X0174722Y0008546D01*
X0174990Y0008814D02*
X0175645Y0010395D01*
X0175645Y0012105D01*
X0174990Y0013686D01*
X0173781Y0014895D01*
X0172200Y0015550D01*
X0170490Y0015550D01*
X0169833Y0015278D01*
X0162011Y0023100D01*
X0155293Y0023100D01*
X0153043Y0025350D01*
X0149647Y0025350D01*
X0147245Y0022948D01*
X0147245Y0019552D01*
X0149647Y0017150D01*
X0153043Y0017150D01*
X0155293Y0019400D01*
X0160479Y0019400D01*
X0167258Y0012620D01*
X0167045Y0012105D01*
X0167045Y0010395D01*
X0167700Y0008814D01*
X0168909Y0007605D01*
X0170490Y0006950D01*
X0172200Y0006950D01*
X0173781Y0007605D01*
X0174990Y0008814D01*
X0175541Y0010144D02*
X0177149Y0010144D01*
X0177045Y0011743D02*
X0175645Y0011743D01*
X0175133Y0013341D02*
X0177557Y0013341D01*
X0179016Y0014940D02*
X0173674Y0014940D01*
X0168573Y0016538D02*
X0199741Y0016538D01*
X0198142Y0018137D02*
X0184030Y0018137D01*
X0178660Y0018137D02*
X0166975Y0018137D01*
X0165376Y0019735D02*
X0177245Y0019735D01*
X0177245Y0021334D02*
X0163778Y0021334D01*
X0162179Y0022932D02*
X0177245Y0022932D01*
X0175648Y0024531D02*
X0153863Y0024531D01*
X0148828Y0024531D02*
X0144287Y0024531D01*
X0143168Y0025650D02*
X0141345Y0025650D01*
X0139523Y0025650D01*
X0136945Y0023073D01*
X0136945Y0021250D01*
X0141345Y0021250D01*
X0141345Y0021250D01*
X0136945Y0021250D01*
X0136945Y0019427D01*
X0139523Y0016850D01*
X0141345Y0016850D01*
X0141345Y0021250D01*
X0141345Y0025650D01*
X0141345Y0021250D01*
X0141345Y0021250D01*
X0141345Y0021250D01*
X0141345Y0016850D01*
X0143168Y0016850D01*
X0145745Y0019427D01*
X0145745Y0021250D01*
X0145745Y0023073D01*
X0143168Y0025650D01*
X0141345Y0024531D02*
X0141345Y0024531D01*
X0138403Y0024531D02*
X0134287Y0024531D01*
X0133168Y0025650D02*
X0131345Y0025650D01*
X0129523Y0025650D01*
X0126945Y0023073D01*
X0126945Y0021250D01*
X0131345Y0021250D01*
X0131345Y0021250D01*
X0126945Y0021250D01*
X0126945Y0019427D01*
X0129523Y0016850D01*
X0131345Y0016850D01*
X0131345Y0021250D01*
X0131345Y0025650D01*
X0131345Y0021250D01*
X0131345Y0021250D01*
X0131345Y0021250D01*
X0131345Y0016850D01*
X0133168Y0016850D01*
X0135745Y0019427D01*
X0135745Y0021250D01*
X0135745Y0023073D01*
X0133168Y0025650D01*
X0133043Y0027150D02*
X0129647Y0027150D01*
X0127245Y0029552D01*
X0127245Y0032948D01*
X0129645Y0035348D01*
X0129645Y0037300D01*
X0128909Y0037605D01*
X0127700Y0038814D01*
X0127045Y0040395D01*
X0127045Y0042105D01*
X0127700Y0043686D01*
X0128909Y0044895D01*
X0130490Y0045550D01*
X0132200Y0045550D01*
X0133781Y0044895D01*
X0134990Y0043686D01*
X0135645Y0042105D01*
X0135645Y0040395D01*
X0134990Y0038814D01*
X0133781Y0037605D01*
X0133345Y0037424D01*
X0133345Y0035048D01*
X0135445Y0032948D01*
X0135445Y0029552D01*
X0133043Y0027150D01*
X0133621Y0027728D02*
X0139069Y0027728D01*
X0137471Y0029326D02*
X0135220Y0029326D01*
X0135445Y0030925D02*
X0137245Y0030925D01*
X0137245Y0032523D02*
X0135445Y0032523D01*
X0134272Y0034122D02*
X0138419Y0034122D01*
X0139095Y0035720D02*
X0133345Y0035720D01*
X0133345Y0037319D02*
X0139095Y0037319D01*
X0137657Y0038917D02*
X0135033Y0038917D01*
X0135645Y0040516D02*
X0137045Y0040516D01*
X0137049Y0042114D02*
X0135641Y0042114D01*
X0134963Y0043713D02*
X0137727Y0043713D01*
X0139914Y0045311D02*
X0132777Y0045311D01*
X0129914Y0045311D02*
X0123507Y0045311D01*
X0123756Y0045184D02*
X0123111Y0045513D01*
X0122422Y0045737D01*
X0121707Y0045850D01*
X0121345Y0045850D01*
X0120983Y0045850D01*
X0120268Y0045737D01*
X0119579Y0045513D01*
X0118934Y0045184D01*
X0118348Y0044759D01*
X0117836Y0044247D01*
X0117411Y0043661D01*
X0117082Y0043016D01*
X0116858Y0042327D01*
X0116745Y0041612D01*
X0116745Y0041250D01*
X0121345Y0041250D01*
X0121345Y0041250D01*
X0116745Y0041250D01*
X0116745Y0040888D01*
X0116858Y0040173D01*
X0117082Y0039484D01*
X0117411Y0038839D01*
X0117836Y0038253D01*
X0118348Y0037741D01*
X0118934Y0037316D01*
X0119579Y0036987D01*
X0120268Y0036763D01*
X0120983Y0036650D01*
X0121345Y0036650D01*
X0121345Y0041250D01*
X0121345Y0045850D01*
X0121345Y0041250D01*
X0121345Y0041250D01*
X0121345Y0041250D01*
X0121345Y0036650D01*
X0121707Y0036650D01*
X0122422Y0036763D01*
X0123111Y0036987D01*
X0123756Y0037316D01*
X0124342Y0037741D01*
X0124854Y0038253D01*
X0125279Y0038839D01*
X0125608Y0039484D01*
X0125832Y0040173D01*
X0125945Y0040888D01*
X0125945Y0041250D01*
X0125945Y0041612D01*
X0125832Y0042327D01*
X0125608Y0043016D01*
X0125279Y0043661D01*
X0124854Y0044247D01*
X0124342Y0044759D01*
X0123756Y0045184D01*
X0125242Y0043713D02*
X0127727Y0043713D01*
X0127049Y0042114D02*
X0125866Y0042114D01*
X0125945Y0041250D02*
X0121345Y0041250D01*
X0121345Y0041250D01*
X0125945Y0041250D01*
X0125886Y0040516D02*
X0127045Y0040516D01*
X0127657Y0038917D02*
X0125319Y0038917D01*
X0123760Y0037319D02*
X0129600Y0037319D01*
X0129645Y0035720D02*
X0049812Y0035720D01*
X0049045Y0037319D02*
X0048645Y0037319D01*
X0047878Y0035720D02*
X0045395Y0035720D01*
X0052337Y0034122D02*
X0088419Y0034122D01*
X0094272Y0034122D02*
X0118419Y0034122D01*
X0124272Y0034122D02*
X0128419Y0034122D01*
X0127245Y0032523D02*
X0125445Y0032523D01*
X0125445Y0030925D02*
X0127245Y0030925D01*
X0127471Y0029326D02*
X0125220Y0029326D01*
X0123621Y0027728D02*
X0129069Y0027728D01*
X0125445Y0022948D02*
X0123043Y0025350D01*
X0119647Y0025350D01*
X0117245Y0022948D01*
X0117245Y0019552D01*
X0119647Y0017150D01*
X0123043Y0017150D01*
X0125445Y0019552D01*
X0125445Y0022948D01*
X0125445Y0022932D02*
X0126945Y0022932D01*
X0126945Y0021334D02*
X0125445Y0021334D01*
X0125445Y0019735D02*
X0126945Y0019735D01*
X0128236Y0018137D02*
X0124030Y0018137D01*
X0122200Y0015550D02*
X0120490Y0015550D01*
X0118909Y0014895D01*
X0117700Y0013686D01*
X0117045Y0012105D01*
X0117045Y0010395D01*
X0117700Y0008814D01*
X0118909Y0007605D01*
X0120490Y0006950D01*
X0122200Y0006950D01*
X0123781Y0007605D01*
X0124990Y0008814D01*
X0125645Y0010395D01*
X0125645Y0012105D01*
X0124990Y0013686D01*
X0123781Y0014895D01*
X0122200Y0015550D01*
X0123674Y0014940D02*
X0128597Y0014940D01*
X0127248Y0013341D02*
X0125133Y0013341D01*
X0125645Y0011743D02*
X0126766Y0011743D01*
X0126868Y0010144D02*
X0125541Y0010144D01*
X0124722Y0008546D02*
X0127624Y0008546D01*
X0131345Y0008546D02*
X0131345Y0008546D01*
X0135066Y0008546D02*
X0137968Y0008546D01*
X0137700Y0008814D02*
X0138909Y0007605D01*
X0140490Y0006950D01*
X0142200Y0006950D01*
X0143781Y0007605D01*
X0144990Y0008814D01*
X0145645Y0010395D01*
X0145645Y0012105D01*
X0144990Y0013686D01*
X0143781Y0014895D01*
X0142200Y0015550D01*
X0140490Y0015550D01*
X0138909Y0014895D01*
X0137700Y0013686D01*
X0137045Y0012105D01*
X0137045Y0010395D01*
X0137700Y0008814D01*
X0137149Y0010144D02*
X0135823Y0010144D01*
X0135945Y0011250D02*
X0131345Y0011250D01*
X0135945Y0011250D01*
X0135924Y0011743D02*
X0137045Y0011743D01*
X0137557Y0013341D02*
X0135442Y0013341D01*
X0134093Y0014940D02*
X0139016Y0014940D01*
X0143674Y0014940D02*
X0149016Y0014940D01*
X0148909Y0014895D02*
X0147700Y0013686D01*
X0147045Y0012105D01*
X0147045Y0010395D01*
X0147700Y0008814D01*
X0148909Y0007605D01*
X0150490Y0006950D01*
X0152200Y0006950D01*
X0153781Y0007605D01*
X0154990Y0008814D01*
X0155645Y0010395D01*
X0155645Y0012105D01*
X0154990Y0013686D01*
X0153781Y0014895D01*
X0152200Y0015550D01*
X0150490Y0015550D01*
X0148909Y0014895D01*
X0147557Y0013341D02*
X0145133Y0013341D01*
X0145645Y0011743D02*
X0147045Y0011743D01*
X0147149Y0010144D02*
X0145541Y0010144D01*
X0144722Y0008546D02*
X0147968Y0008546D01*
X0154722Y0008546D02*
X0157968Y0008546D01*
X0157700Y0008814D02*
X0158909Y0007605D01*
X0160490Y0006950D01*
X0162200Y0006950D01*
X0163781Y0007605D01*
X0164990Y0008814D01*
X0165645Y0010395D01*
X0165645Y0012105D01*
X0164990Y0013686D01*
X0163781Y0014895D01*
X0162200Y0015550D01*
X0160490Y0015550D01*
X0158909Y0014895D01*
X0157700Y0013686D01*
X0157045Y0012105D01*
X0157045Y0010395D01*
X0157700Y0008814D01*
X0157149Y0010144D02*
X0155541Y0010144D01*
X0155645Y0011743D02*
X0157045Y0011743D01*
X0157557Y0013341D02*
X0155133Y0013341D01*
X0153674Y0014940D02*
X0159016Y0014940D01*
X0163674Y0014940D02*
X0164939Y0014940D01*
X0165133Y0013341D02*
X0166538Y0013341D01*
X0167045Y0011743D02*
X0165645Y0011743D01*
X0165541Y0010144D02*
X0167149Y0010144D01*
X0167968Y0008546D02*
X0164722Y0008546D01*
X0163341Y0016538D02*
X0097250Y0016538D01*
X0098848Y0018137D02*
X0118660Y0018137D01*
X0117245Y0019735D02*
X0100447Y0019735D01*
X0102045Y0021334D02*
X0117245Y0021334D01*
X0117245Y0022932D02*
X0103644Y0022932D01*
X0098411Y0022932D02*
X0095445Y0022932D01*
X0095445Y0021334D02*
X0096812Y0021334D01*
X0093863Y0024531D02*
X0100010Y0024531D01*
X0101608Y0026129D02*
X0069086Y0026129D01*
X0067487Y0024531D02*
X0088828Y0024531D01*
X0087245Y0022932D02*
X0065889Y0022932D01*
X0064290Y0021334D02*
X0087245Y0021334D01*
X0087245Y0019735D02*
X0062692Y0019735D01*
X0061093Y0018137D02*
X0088660Y0018137D01*
X0095651Y0014940D02*
X0099016Y0014940D01*
X0098909Y0014895D02*
X0097700Y0013686D01*
X0097045Y0012105D01*
X0097045Y0010395D01*
X0097700Y0008814D01*
X0098909Y0007605D01*
X0100490Y0006950D01*
X0102200Y0006950D01*
X0103781Y0007605D01*
X0104990Y0008814D01*
X0105645Y0010395D01*
X0105645Y0012105D01*
X0104990Y0013686D01*
X0103781Y0014895D01*
X0102200Y0015550D01*
X0100490Y0015550D01*
X0098909Y0014895D01*
X0097557Y0013341D02*
X0095133Y0013341D01*
X0095645Y0011743D02*
X0097045Y0011743D01*
X0097149Y0010144D02*
X0095541Y0010144D01*
X0094722Y0008546D02*
X0097968Y0008546D01*
X0104722Y0008546D02*
X0107968Y0008546D01*
X0107700Y0008814D02*
X0108909Y0007605D01*
X0110490Y0006950D01*
X0112200Y0006950D01*
X0113781Y0007605D01*
X0114990Y0008814D01*
X0115645Y0010395D01*
X0115645Y0012105D01*
X0114990Y0013686D01*
X0113781Y0014895D01*
X0112200Y0015550D01*
X0110490Y0015550D01*
X0108909Y0014895D01*
X0107700Y0013686D01*
X0107045Y0012105D01*
X0107045Y0010395D01*
X0107700Y0008814D01*
X0107149Y0010144D02*
X0105541Y0010144D01*
X0105645Y0011743D02*
X0107045Y0011743D01*
X0107557Y0013341D02*
X0105133Y0013341D01*
X0103674Y0014940D02*
X0109016Y0014940D01*
X0113674Y0014940D02*
X0119016Y0014940D01*
X0117557Y0013341D02*
X0115133Y0013341D01*
X0115645Y0011743D02*
X0117045Y0011743D01*
X0117149Y0010144D02*
X0115541Y0010144D01*
X0114722Y0008546D02*
X0117968Y0008546D01*
X0131345Y0010144D02*
X0131345Y0010144D01*
X0131345Y0011250D02*
X0131345Y0011250D01*
X0131345Y0011743D02*
X0131345Y0011743D01*
X0131345Y0013341D02*
X0131345Y0013341D01*
X0131345Y0014940D02*
X0131345Y0014940D01*
X0131345Y0018137D02*
X0131345Y0018137D01*
X0134454Y0018137D02*
X0138236Y0018137D01*
X0141345Y0018137D02*
X0141345Y0018137D01*
X0144454Y0018137D02*
X0148660Y0018137D01*
X0147245Y0019735D02*
X0145745Y0019735D01*
X0145745Y0021250D02*
X0141345Y0021250D01*
X0145745Y0021250D01*
X0145745Y0021334D02*
X0147245Y0021334D01*
X0147245Y0022932D02*
X0145745Y0022932D01*
X0141345Y0022932D02*
X0141345Y0022932D01*
X0141345Y0021334D02*
X0141345Y0021334D01*
X0141345Y0021250D02*
X0141345Y0021250D01*
X0141345Y0019735D02*
X0141345Y0019735D01*
X0136945Y0019735D02*
X0135745Y0019735D01*
X0135745Y0021250D02*
X0131345Y0021250D01*
X0135745Y0021250D01*
X0135745Y0021334D02*
X0136945Y0021334D01*
X0136945Y0022932D02*
X0135745Y0022932D01*
X0131345Y0022932D02*
X0131345Y0022932D01*
X0131345Y0021334D02*
X0131345Y0021334D01*
X0131345Y0021250D02*
X0131345Y0021250D01*
X0131345Y0019735D02*
X0131345Y0019735D01*
X0131345Y0024531D02*
X0131345Y0024531D01*
X0128403Y0024531D02*
X0123863Y0024531D01*
X0118828Y0024531D02*
X0105242Y0024531D01*
X0106841Y0026129D02*
X0174050Y0026129D01*
X0178111Y0027300D02*
X0165461Y0039950D01*
X0165645Y0040395D01*
X0165645Y0042105D01*
X0165047Y0043550D01*
X0167644Y0043550D01*
X0167045Y0042105D01*
X0167045Y0040395D01*
X0167700Y0038814D01*
X0168909Y0037605D01*
X0170490Y0036950D01*
X0172200Y0036950D01*
X0172786Y0037193D01*
X0177645Y0032334D01*
X0177645Y0031533D01*
X0178079Y0030486D01*
X0178881Y0029684D01*
X0179928Y0029250D01*
X0181062Y0029250D01*
X0182110Y0029684D01*
X0182911Y0030486D01*
X0183345Y0031533D01*
X0183345Y0032667D01*
X0182911Y0033714D01*
X0182110Y0034516D01*
X0181062Y0034950D01*
X0180261Y0034950D01*
X0175402Y0039809D01*
X0175645Y0040395D01*
X0175645Y0042105D01*
X0175047Y0043550D01*
X0177644Y0043550D01*
X0177045Y0042105D01*
X0177045Y0040395D01*
X0177700Y0038814D01*
X0178909Y0037605D01*
X0180490Y0036950D01*
X0182200Y0036950D01*
X0182892Y0037237D01*
X0192829Y0027300D01*
X0178111Y0027300D01*
X0177684Y0027728D02*
X0192401Y0027728D01*
X0190803Y0029326D02*
X0181246Y0029326D01*
X0179744Y0029326D02*
X0176085Y0029326D01*
X0174487Y0030925D02*
X0177897Y0030925D01*
X0177456Y0032523D02*
X0172888Y0032523D01*
X0171290Y0034122D02*
X0175857Y0034122D01*
X0174259Y0035720D02*
X0169691Y0035720D01*
X0169600Y0037319D02*
X0168093Y0037319D01*
X0164459Y0035720D02*
X0143495Y0035720D01*
X0143495Y0037319D02*
X0149600Y0037319D01*
X0153091Y0037319D02*
X0159600Y0037319D01*
X0157657Y0038917D02*
X0155033Y0038917D01*
X0155645Y0040516D02*
X0157045Y0040516D01*
X0157049Y0042114D02*
X0155641Y0042114D01*
X0147049Y0042114D02*
X0145671Y0042114D01*
X0145645Y0040516D02*
X0147045Y0040516D01*
X0147657Y0038917D02*
X0145033Y0038917D01*
X0144272Y0034122D02*
X0166057Y0034122D01*
X0167656Y0032523D02*
X0145445Y0032523D01*
X0145445Y0030925D02*
X0169254Y0030925D01*
X0170853Y0029326D02*
X0145220Y0029326D01*
X0143621Y0027728D02*
X0172451Y0027728D01*
X0183093Y0030925D02*
X0189204Y0030925D01*
X0187606Y0032523D02*
X0183345Y0032523D01*
X0182504Y0034122D02*
X0186007Y0034122D01*
X0184409Y0035720D02*
X0179491Y0035720D01*
X0179600Y0037319D02*
X0177893Y0037319D01*
X0177657Y0038917D02*
X0176294Y0038917D01*
X0175645Y0040516D02*
X0177045Y0040516D01*
X0177049Y0042114D02*
X0175641Y0042114D01*
X0167049Y0042114D02*
X0165641Y0042114D01*
X0165645Y0040516D02*
X0167045Y0040516D01*
X0166494Y0038917D02*
X0167657Y0038917D01*
X0185446Y0039915D02*
X0185645Y0040395D01*
X0185645Y0042105D01*
X0185047Y0043550D01*
X0187644Y0043550D01*
X0187045Y0042105D01*
X0187045Y0040395D01*
X0187700Y0038814D01*
X0188909Y0037605D01*
X0190490Y0036950D01*
X0192200Y0036950D01*
X0192751Y0037178D01*
X0195479Y0034450D01*
X0203795Y0034450D01*
X0202645Y0033300D01*
X0202645Y0031250D01*
X0207595Y0031250D01*
X0207595Y0031250D01*
X0202645Y0031250D01*
X0202645Y0029200D01*
X0203145Y0028700D01*
X0196661Y0028700D01*
X0185446Y0039915D01*
X0185645Y0040516D02*
X0187045Y0040516D01*
X0186444Y0038917D02*
X0187657Y0038917D01*
X0188043Y0037319D02*
X0189600Y0037319D01*
X0189641Y0035720D02*
X0194209Y0035720D01*
X0191240Y0034122D02*
X0203467Y0034122D01*
X0202645Y0032523D02*
X0192838Y0032523D01*
X0194437Y0030925D02*
X0202645Y0030925D01*
X0207595Y0031250D02*
X0207595Y0031250D01*
X0212545Y0031250D01*
X0212545Y0030800D01*
X0219445Y0030800D01*
X0219895Y0031250D01*
X0219378Y0031767D01*
X0219282Y0032000D01*
X0213929Y0032000D01*
X0211479Y0034450D01*
X0211395Y0034450D01*
X0212545Y0033300D01*
X0212545Y0031250D01*
X0207595Y0031250D01*
X0212545Y0030925D02*
X0219570Y0030925D01*
X0213406Y0032523D02*
X0212545Y0032523D01*
X0211807Y0034122D02*
X0211724Y0034122D01*
X0214095Y0037066D02*
X0215461Y0035700D01*
X0219364Y0035700D01*
X0219378Y0035733D01*
X0219683Y0036038D01*
X0219393Y0036328D01*
X0218978Y0036950D01*
X0218691Y0037642D01*
X0218545Y0038376D01*
X0218545Y0038750D01*
X0226345Y0038750D01*
X0226345Y0038750D01*
X0218545Y0038750D01*
X0218545Y0039124D01*
X0218691Y0039858D01*
X0218978Y0040550D01*
X0219393Y0041172D01*
X0219671Y0041450D01*
X0212245Y0041450D01*
X0212245Y0040325D01*
X0211537Y0038616D01*
X0211071Y0038150D01*
X0213011Y0038150D01*
X0214095Y0037066D01*
X0213843Y0037319D02*
X0218825Y0037319D01*
X0219373Y0035720D02*
X0215441Y0035720D01*
X0218545Y0038917D02*
X0211662Y0038917D01*
X0212245Y0040516D02*
X0218963Y0040516D01*
X0226345Y0038750D02*
X0230145Y0038750D01*
X0230145Y0039124D01*
X0229999Y0039858D01*
X0229713Y0040550D01*
X0229297Y0041172D01*
X0229007Y0041462D01*
X0229312Y0041767D01*
X0229845Y0043054D01*
X0229845Y0044446D01*
X0229312Y0045733D01*
X0229095Y0045950D01*
X0236045Y0045950D01*
X0236045Y0006550D01*
X0229095Y0006550D01*
X0229312Y0006767D01*
X0229845Y0008054D01*
X0229845Y0009446D01*
X0229312Y0010733D01*
X0228795Y0011250D01*
X0229312Y0011767D01*
X0229845Y0013054D01*
X0229845Y0014446D01*
X0229312Y0015733D01*
X0228795Y0016250D01*
X0229312Y0016767D01*
X0229845Y0018054D01*
X0229845Y0019446D01*
X0229312Y0020733D01*
X0228795Y0021250D01*
X0229312Y0021767D01*
X0229845Y0023054D01*
X0229845Y0024446D01*
X0229312Y0025733D01*
X0228795Y0026250D01*
X0229312Y0026767D01*
X0229845Y0028054D01*
X0229845Y0029446D01*
X0229312Y0030733D01*
X0228795Y0031250D01*
X0229312Y0031767D01*
X0229845Y0033054D01*
X0229845Y0034446D01*
X0229312Y0035733D01*
X0229007Y0036038D01*
X0229297Y0036328D01*
X0229713Y0036950D01*
X0229999Y0037642D01*
X0230145Y0038376D01*
X0230145Y0038750D01*
X0226345Y0038750D01*
X0226345Y0038750D01*
X0230145Y0038917D02*
X0236045Y0038917D01*
X0236045Y0040516D02*
X0229727Y0040516D01*
X0229456Y0042114D02*
X0236045Y0042114D01*
X0236045Y0043713D02*
X0229845Y0043713D01*
X0229487Y0045311D02*
X0236045Y0045311D01*
X0236045Y0037319D02*
X0229865Y0037319D01*
X0229317Y0035720D02*
X0236045Y0035720D01*
X0236045Y0034122D02*
X0229845Y0034122D01*
X0229625Y0032523D02*
X0236045Y0032523D01*
X0236045Y0030925D02*
X0229120Y0030925D01*
X0229845Y0029326D02*
X0236045Y0029326D01*
X0236045Y0027728D02*
X0229710Y0027728D01*
X0228916Y0026129D02*
X0236045Y0026129D01*
X0236045Y0024531D02*
X0229810Y0024531D01*
X0229795Y0022932D02*
X0236045Y0022932D01*
X0236045Y0021334D02*
X0228879Y0021334D01*
X0229725Y0019735D02*
X0236045Y0019735D01*
X0236045Y0018137D02*
X0229845Y0018137D01*
X0229083Y0016538D02*
X0236045Y0016538D01*
X0236045Y0014940D02*
X0229641Y0014940D01*
X0229845Y0013341D02*
X0236045Y0013341D01*
X0236045Y0011743D02*
X0229287Y0011743D01*
X0229556Y0010144D02*
X0236045Y0010144D01*
X0236045Y0008546D02*
X0229845Y0008546D01*
X0229387Y0006947D02*
X0236045Y0006947D01*
X0219895Y0016250D02*
X0219395Y0015750D01*
X0214561Y0015750D01*
X0213245Y0017066D01*
X0212161Y0018150D01*
X0211708Y0018150D01*
X0212695Y0019138D01*
X0212695Y0021250D01*
X0212695Y0023362D01*
X0210510Y0025548D01*
X0211045Y0026084D01*
X0212061Y0027100D01*
X0219240Y0027100D01*
X0219378Y0026767D01*
X0219895Y0026250D01*
X0219378Y0025733D01*
X0218845Y0024446D01*
X0218845Y0023054D01*
X0219378Y0021767D01*
X0219895Y0021250D01*
X0219378Y0020733D01*
X0218845Y0019446D01*
X0218845Y0018054D01*
X0219378Y0016767D01*
X0219895Y0016250D01*
X0219607Y0016538D02*
X0213773Y0016538D01*
X0212175Y0018137D02*
X0218845Y0018137D01*
X0218965Y0019735D02*
X0212695Y0019735D01*
X0212695Y0021250D02*
X0207595Y0021250D01*
X0207595Y0021250D01*
X0202495Y0021250D01*
X0202495Y0023362D01*
X0204133Y0025000D01*
X0198611Y0025000D01*
X0202495Y0021116D01*
X0202495Y0021250D01*
X0207595Y0021250D01*
X0212695Y0021250D01*
X0212695Y0021334D02*
X0219812Y0021334D01*
X0218896Y0022932D02*
X0212695Y0022932D01*
X0211527Y0024531D02*
X0218880Y0024531D01*
X0219775Y0026129D02*
X0211091Y0026129D01*
X0203663Y0024531D02*
X0199081Y0024531D01*
X0200679Y0022932D02*
X0202495Y0022932D01*
X0202495Y0021334D02*
X0202278Y0021334D01*
X0207595Y0021250D02*
X0207595Y0021250D01*
X0202645Y0029326D02*
X0196035Y0029326D01*
X0161742Y0018137D02*
X0154030Y0018137D01*
X0119069Y0027728D02*
X0108439Y0027728D01*
X0104805Y0029326D02*
X0095220Y0029326D01*
X0093621Y0027728D02*
X0103207Y0027728D01*
X0106404Y0030925D02*
X0095445Y0030925D01*
X0095445Y0032523D02*
X0108002Y0032523D01*
X0109600Y0037319D02*
X0103091Y0037319D01*
X0103781Y0037605D02*
X0102200Y0036950D01*
X0100490Y0036950D01*
X0098909Y0037605D01*
X0097700Y0038814D01*
X0097045Y0040395D01*
X0097045Y0042105D01*
X0097700Y0043686D01*
X0098909Y0044895D01*
X0100490Y0045550D01*
X0102200Y0045550D01*
X0103781Y0044895D01*
X0104990Y0043686D01*
X0105645Y0042105D01*
X0105645Y0040395D01*
X0104990Y0038814D01*
X0103781Y0037605D01*
X0105033Y0038917D02*
X0107657Y0038917D01*
X0107700Y0038814D02*
X0108909Y0037605D01*
X0110490Y0036950D01*
X0112200Y0036950D01*
X0113781Y0037605D01*
X0114990Y0038814D01*
X0115645Y0040395D01*
X0115645Y0042105D01*
X0114990Y0043686D01*
X0113781Y0044895D01*
X0112200Y0045550D01*
X0110490Y0045550D01*
X0108909Y0044895D01*
X0107700Y0043686D01*
X0107045Y0042105D01*
X0107045Y0040395D01*
X0107700Y0038814D01*
X0107045Y0040516D02*
X0105645Y0040516D01*
X0105641Y0042114D02*
X0107049Y0042114D01*
X0107727Y0043713D02*
X0104963Y0043713D01*
X0102777Y0045311D02*
X0109914Y0045311D01*
X0112777Y0045311D02*
X0119184Y0045311D01*
X0121345Y0045311D02*
X0121345Y0045311D01*
X0121345Y0043713D02*
X0121345Y0043713D01*
X0117449Y0043713D02*
X0114963Y0043713D01*
X0115641Y0042114D02*
X0116825Y0042114D01*
X0121345Y0042114D02*
X0121345Y0042114D01*
X0121345Y0040516D02*
X0121345Y0040516D01*
X0121345Y0038917D02*
X0121345Y0038917D01*
X0117371Y0038917D02*
X0115033Y0038917D01*
X0115645Y0040516D02*
X0116804Y0040516D01*
X0118930Y0037319D02*
X0113091Y0037319D01*
X0121345Y0037319D02*
X0121345Y0037319D01*
X0099600Y0037319D02*
X0093091Y0037319D01*
X0093781Y0037605D02*
X0094990Y0038814D01*
X0095645Y0040395D01*
X0095645Y0042105D01*
X0094990Y0043686D01*
X0093781Y0044895D01*
X0092200Y0045550D01*
X0090490Y0045550D01*
X0088909Y0044895D01*
X0087700Y0043686D01*
X0087045Y0042105D01*
X0087045Y0040395D01*
X0087700Y0038814D01*
X0088909Y0037605D01*
X0090490Y0036950D01*
X0092200Y0036950D01*
X0093781Y0037605D01*
X0095033Y0038917D02*
X0097657Y0038917D01*
X0097045Y0040516D02*
X0095645Y0040516D01*
X0095641Y0042114D02*
X0097049Y0042114D01*
X0097727Y0043713D02*
X0094963Y0043713D01*
X0092777Y0045311D02*
X0099914Y0045311D01*
X0089914Y0045311D02*
X0082777Y0045311D01*
X0082200Y0045550D02*
X0080490Y0045550D01*
X0078909Y0044895D01*
X0077700Y0043686D01*
X0077045Y0042105D01*
X0077045Y0040395D01*
X0077700Y0038814D01*
X0078909Y0037605D01*
X0080490Y0036950D01*
X0082200Y0036950D01*
X0083781Y0037605D01*
X0084990Y0038814D01*
X0085645Y0040395D01*
X0085645Y0042105D01*
X0084990Y0043686D01*
X0083781Y0044895D01*
X0082200Y0045550D01*
X0079914Y0045311D02*
X0072777Y0045311D01*
X0072200Y0045550D02*
X0070490Y0045550D01*
X0068909Y0044895D01*
X0067700Y0043686D01*
X0067045Y0042105D01*
X0067045Y0040395D01*
X0067700Y0038814D01*
X0068909Y0037605D01*
X0070490Y0036950D01*
X0072200Y0036950D01*
X0073781Y0037605D01*
X0074990Y0038814D01*
X0075645Y0040395D01*
X0075645Y0042105D01*
X0074990Y0043686D01*
X0073781Y0044895D01*
X0072200Y0045550D01*
X0069914Y0045311D02*
X0062777Y0045311D01*
X0062200Y0045550D02*
X0063781Y0044895D01*
X0064990Y0043686D01*
X0065645Y0042105D01*
X0065645Y0040395D01*
X0064990Y0038814D01*
X0063781Y0037605D01*
X0062200Y0036950D01*
X0060490Y0036950D01*
X0058909Y0037605D01*
X0057700Y0038814D01*
X0057045Y0040395D01*
X0057045Y0042105D01*
X0057700Y0043686D01*
X0058909Y0044895D01*
X0060490Y0045550D01*
X0062200Y0045550D01*
X0059914Y0045311D02*
X0053311Y0045311D01*
X0053645Y0043713D02*
X0057727Y0043713D01*
X0057049Y0042114D02*
X0053645Y0042114D01*
X0053645Y0040516D02*
X0057045Y0040516D01*
X0057657Y0038917D02*
X0053645Y0038917D01*
X0053386Y0037319D02*
X0059600Y0037319D01*
X0063091Y0037319D02*
X0069600Y0037319D01*
X0073091Y0037319D02*
X0079600Y0037319D01*
X0083091Y0037319D02*
X0089600Y0037319D01*
X0087657Y0038917D02*
X0085033Y0038917D01*
X0085645Y0040516D02*
X0087045Y0040516D01*
X0087049Y0042114D02*
X0085641Y0042114D01*
X0084963Y0043713D02*
X0087727Y0043713D01*
X0077727Y0043713D02*
X0074963Y0043713D01*
X0075641Y0042114D02*
X0077049Y0042114D01*
X0077045Y0040516D02*
X0075645Y0040516D01*
X0075033Y0038917D02*
X0077657Y0038917D01*
X0067657Y0038917D02*
X0065033Y0038917D01*
X0065645Y0040516D02*
X0067045Y0040516D01*
X0067049Y0042114D02*
X0065641Y0042114D01*
X0064963Y0043713D02*
X0067727Y0043713D01*
X0049045Y0040516D02*
X0048645Y0040516D01*
X0048645Y0038917D02*
X0049045Y0038917D01*
X0070684Y0027728D02*
X0089069Y0027728D01*
X0063967Y0016538D02*
X0059494Y0016538D01*
X0066002Y0013341D02*
X0067557Y0013341D01*
X0067045Y0011743D02*
X0065645Y0011743D01*
X0065645Y0010144D02*
X0067149Y0010144D01*
X0067968Y0008546D02*
X0065645Y0008546D01*
X0074722Y0008546D02*
X0077968Y0008546D01*
X0077149Y0010144D02*
X0075541Y0010144D01*
X0075645Y0011743D02*
X0077045Y0011743D01*
X0077557Y0013341D02*
X0075133Y0013341D01*
X0085133Y0013341D02*
X0087557Y0013341D01*
X0087045Y0011743D02*
X0085645Y0011743D01*
X0085541Y0010144D02*
X0087149Y0010144D01*
X0087968Y0008546D02*
X0084722Y0008546D01*
X0047474Y0006947D02*
X0045395Y0006947D01*
X0045395Y0024531D02*
X0045762Y0024531D01*
X0185641Y0042114D02*
X0187049Y0042114D01*
D23*
X0181545Y0041200D02*
X0181345Y0041250D01*
X0181545Y0041200D02*
X0195895Y0026850D01*
X0209195Y0026850D01*
X0211295Y0028950D01*
X0226345Y0028950D01*
X0226345Y0028750D01*
X0226345Y0033750D02*
X0226345Y0033850D01*
X0214695Y0033850D01*
X0212245Y0036300D01*
X0196245Y0036300D01*
X0191345Y0041200D01*
X0191345Y0041250D01*
X0180495Y0032100D02*
X0171345Y0041250D01*
X0161595Y0041200D02*
X0161345Y0041250D01*
X0161595Y0041200D02*
X0177345Y0025450D01*
X0195545Y0025450D01*
X0204695Y0016300D01*
X0211395Y0016300D01*
X0213795Y0013900D01*
X0226345Y0013900D01*
X0226345Y0013750D01*
X0207595Y0011250D02*
X0207445Y0011450D01*
X0197645Y0021250D01*
X0181345Y0021250D01*
X0171045Y0011450D02*
X0161245Y0021250D01*
X0151345Y0021250D01*
X0171045Y0011450D02*
X0171345Y0011250D01*
X0131495Y0031400D02*
X0131345Y0031250D01*
X0131495Y0031400D02*
X0131495Y0041200D01*
X0131345Y0041250D01*
X0121345Y0031250D02*
X0121345Y0031050D01*
X0109145Y0031050D01*
X0093395Y0015300D01*
X0065345Y0015300D01*
X0061495Y0011450D01*
X0061345Y0011250D01*
M02*
